{
.appVersion = "3259";
.formatVersion = 3;
DisplayStrings = (
"/uni072B.fina",
"/uni0712.init",
"᷺/uni071B.init.longG"
);
axes = (
{
name = Weight;
tag = wght;
},
{
name = Width;
tag = wdth;
}
);
classes = (
{
code = "uni0713.init uni0713.medi uni0714.init uni0714.medi uni072E.init uni072E.medi";
name = gamal_initmedi;
},
{
code = "uni0713.fina uni0713.medi uni0714.fina uni0714.medi uni072E.fina uni072E.medi";
name = gamal_medifina;
},
{
code = "uni0713.fina uni0713.medi uni0713.medi.long uni0714.fina uni0714.medi uni0714.medi.long uni072E.fina uni072E.medi uni072E.medi.long";
name = class3;
},
{
code = "uni0712.init uni0712.medi uni0713.init uni0713.init.long uni0713.medi uni0713.medi.long uni0713.medi.wide uni0713.medi.wide2 uni0714.init uni0714.init.long uni0714.medi uni0714.medi.long uni0714.medi.wide uni0714.medi.wide2 uni071A.init uni071A.medi uni071F.init uni071F.medi uni0721.init uni0721.medi uni0722.init uni0722.medi uni0723.init uni0723.medi uni0724.init uni0724.medi uni0725.init uni0725.medi uni0726.init uni0726.medi uni0727.init uni0727.medi uni072B.init uni072B.medi uni072D.init uni072D.medi uni072E.init uni072E.init.long uni072E.medi uni072E.medi.long uni072E.medi.wide uni072E.medi.wide2";
name = class4;
},
{
code = "uni071B.init uni071B.medi uni071C.init uni071C.medi uni0720.init uni0720.medi uni074F.init uni074F.medi";
name = class6;
},
{
code = "uni0711 uni0730 uni0733 uni0735 uni0736 uni073A uni073D uni073F uni0740 uni0743 uni0745 uni0747 uni0749 uni074A uni0303 uni0304 uni0307 uni0308 uni064B uni064C uni064E uni064F uni0651 uni0652 uni0653 uni0654 uni0670 FC5E FC5F uni064B0651 FC60 FC61 FC62 FC63 uni0654064B uni0654064E uni0654064C uni0654064F uni06540652 uni0732.above";
name = markAttachmentSet1;
},
{

glyphs = (
{
glyphname = .notdef;
lastChange = "2022-12-15 11:31:32 +0000";
layers = (
{
layerId = m01;
shapes = (
{
closed = 1;
nodes = (
(94,714,l),
(94,0,l),
(505,0,l),
(505,714,l)
);
},
{
closed = 1;
nodes = (
(454,51,l),
(145,51,l),
(145,663,l),
(454,663,l)
);
}
);
width = 600;
},
{
layerId = "22847997-2214-411C-BF12-975F69A1246B";
shapes = (
{
closed = 1;
nodes = (
(94,714,l),
(94,0,l),
(505,0,l),
(505,714,l)
);
},
{
closed = 1;
nodes = (
(454,51,l),
(145,51,l),
(145,663,l),
(454,663,l)
);
}
);
width = 600;
},
{
layerId = "54406707-D089-4649-8539-9EC6A26EE6B0";
shapes = (
{
closed = 1;
nodes = (
(94,714,l),
(94,0,l),
(505,0,l),
(505,714,l)
);
},
{
closed = 1;
nodes = (
(454,51,l),
(145,51,l),
(145,663,l),
(454,663,l)
);
}
);
width = 600;
}
);
note = .notdef;
},
{
glyphname = uni200E;
lastChange = "2022-12-15 11:31:32 +0000";
layers = (
{
layerId = m01;
shapes = (
{
closed = 1;
nodes = (
(-18,0,l),
(17,0,l),
(17,603,l),
(147,603,l),
(80,539,l),
(104,515,l),
(210,620,l),
(104,725,l),
(80,701,l),
(147,637,l),
(-18,637,l)
);
}
);
width = 0;
},
{
layerId = "22847997-2214-411C-BF12-975F69A1246B";
shapes = (
{
closed = 1;
nodes = (
(-18,0,l),
(17,0,l),
(17,603,l),
(147,603,l),
(80,539,l),
(104,515,l),
(210,620,l),
(104,725,l),
(80,701,l),
(147,637,l),
(-18,637,l)
);
}
);
width = 0;
},
{
layerId = "54406707-D089-4649-8539-9EC6A26EE6B0";
shapes = (
{
closed = 1;
nodes = (
(-16,0,l),
(15,0,l),
(15,551,l),
(136,551,l),
(74,491,l),
(96,469,l),
(195,566,l),
(96,662,l),
(74,640,l),
(136,583,l),
(-16,583,l)
);
}
);
width = 0;
}
);
note = uni200E;
unicode = 8206;
},
{
glyphname = uni200F;
lastChange = "2022-12-15 11:31:32 +0000";
layers = (
{
layerId = m01;
shapes = (
{
closed = 1;
nodes = (
(-18,0,l),
(17,0,l),
(17,637,l),
(-147,637,l),
(-81,701,l),
(-104,725,l),
(-210,620,l),
(-104,515,l),
(-81,539,l),
(-147,603,l),
(-18,603,l)
);
}
);
width = 0;
},
{
layerId = "22847997-2214-411C-BF12-975F69A1246B";
shapes = (
{
closed = 1;
nodes = (
(-18,0,l),
(17,0,l),
(17,637,l),
(-147,637,l),
(-81,701,l),
(-104,725,l),
(-210,620,l),
(-104,515,l),
(-81,539,l),
(-147,603,l),
(-18,603,l)
);
}
);
width = 0;
},
{
layerId = "54406707-D089-4649-8539-9EC6A26EE6B0";
shapes = (
{
closed = 1;
nodes = (
(-16,0,l),
(15,0,l),
(15,583,l),
(-136,583,l),
(-75,640,l),
(-96,662,l),
(-195,566,l),
(-96,469,l),
(-75,491,l),
(-136,551,l),
(-16,551,l)
);
}
);
width = 0;
}
);
note = uni200F;
unicode = 8207;
},
{
glyphname = uni0710;
lastChange = "2022-12-15 11:31:32 +0000";
layers = (
{
anchors = (
{
name = bottom;
pos = (429,-49);
},
{
name = top;
pos = (392,492);
}
);
layerId = m01;
shapes = (
{
closed = 1;
nodes = (
(780,58,l),
(744,69,o),
(708,84,o),
(671,107,cs),
(635,129,o),
(589,164,o),
(535,209,cs),
(480,254,o),
(433,286,o),
(390,302,c),
(390,307,l),
(581,320,o),
(798,407,o),
(922,547,c),
(869,595,l),
(722,462,o),
(502,366,o),
(310,366,cs),
(209,366,o),
(155,370,o),
(102,377,c),
(81,371,o),
(73,355,o),
(73,326,cs),
(73,317,o),
(81,279,o),
(95,213,cs),
(109,147,o),
(123,77,o),
(134,0,c),
(208,0,l),
(194,104,o),
(172,208,o),
(148,303,c),
(156,303,ls),
(265,303,o),
(374,254,o),
(484,156,cs),
(594,58,o),
(681,3,o),
(746,-8,c)
);
}
);
width = 930;
},
{
anchors = (
{
name = bottom;
pos = (412,-49);
},
{
name = top;
pos = (375,450);
}
);
layerId = "22847997-2214-411C-BF12-975F69A1246B";
shapes = (
{
closed = 1;
nodes = (
(721,18,l),
(678,33,o),
(647,51,o),
(615,74,cs),
(581,99,o),
(547,127,o),
(500,167,cs),
(392,258,o),
(320,289,o),
(267,298,c),
(267,300,l),
(561,303,o),
(755,405,o),
(861,514,c),
(844,530,l),
(708,406,o),
(531,321,o),
(203,321,cs),
(184,321,o),
(129,323,o),
(98,328,c),
(87,326,o),
(83,316,o),
(83,303,cs),
(83,293,o),
(87,274,o),
(94,241,cs),
(118,125,o),
(124,96,o),
(138,0,c),
(164,0,l),
(148,117,o),
(125,230,o),
(108,299,c),
(121,299,ls),
(238,299,o),
(344,267,o),
(476,153,cs),
(563,78,o),
(636,17,o),
(710,-5,c)
);
}
);
width = 875;
},
{
anchors = (
{
name = bottom;
pos = (461,-49);
},
{
name = top;
pos = (418,583);
}
);
layerId = "54406707-D089-4649-8539-9EC6A26EE6B0";
shapes = (
{
closed = 1;
nodes = (
(875,126,l),
(841,135,o),
(807,149,o),
(772,170,cs),
(738,190,o),
(701,212,o),
(661,238,cs),
(612,270,o),
(576,292,o),
(519,318,c),
(519,322,l),
(695,335,o),
(900,423,o),
(1015,545,c),
(910,661,l),
(741,521,o),
(539,456,o),
(296,456,cs),
(266,456,o),
(188,457,o),
(95,471,c),
(61,455,o),
(45,422,o),
(45,367,cs),
(45,357,o),
(46,324,o),
(56,279,cs),
(77,187,o),
(98,86,o),
(111,0,c),
(279,0,l),
(267,83,o),
(236,235,o),
(221,291,c),
(237,291,ls),
(302,291,o),
(362,259,o),
(521,130,cs),
(662,15,o),
(741,-16,o),
(792,-22,c)
);
}
);
width = 1015;
}
);
note = uni0710;
unicode = 1808;
},
{
glyphname = uni0710.fin3;
lastChange = "2022-12-15 11:31:32 +0000";
layers = (
{
anchors = (
{
name = bottom;
pos = (429,-49);
},
{
name = top;
pos = (395,491);
}
);
layerId = m01;
shapes = (
{
closed = 1;
nodes = (
(780,58,l),
(744,69,o),
(708,84,o),
(671,107,cs),
(635,129,o),
(589,164,o),
(535,209,cs),
(480,254,o),
(433,286,o),
(390,302,c),
(390,307,l),
(581,320,o),
(798,407,o),
(922,547,c),
(869,595,l),
(722,462,o),
(502,366,o),
(310,366,cs),
(209,366,o),
(155,370,o),
(102,377,c),
(81,371,o),
(73,355,o),
(73,326,cs),
(73,317,o),
(81,279,o),
(95,213,cs),
(109,147,o),
(123,77,o),
(134,0,c),
(208,0,l),
(194,104,o),
(172,208,o),
(148,303,c),
(156,303,ls),
(265,303,o),
(374,254,o),
(484,156,cs),
(594,58,o),
(681,3,o),
(746,-8,c)
);
}
);
width = 930;
},
{
anchors = (
{
name = bottom;
pos = (412,-49);
},
{
name = top;
pos = (376,451);
}
);
layerId = "22847997-2214-411C-BF12-975F69A1246B";
shapes = (
{
closed = 1;
nodes = (
(721,18,l),
(678,33,o),
(647,51,o),
(615,74,cs),
(581,99,o),
(547,127,o),
(500,167,cs),
(392,258,o),
(320,289,o),
(267,298,c),
(267,300,l),
(561,303,o),
(755,405,o),
(861,514,c),
(844,530,l),
(708,406,o),
(531,321,o),
(203,321,cs),
(184,321,o),
(129,323,o),
(98,328,c),
(87,326,o),
(83,316,o),
(83,303,cs),
(83,293,o),
(87,274,o),
(94,241,cs),
(118,125,o),
(124,96,o),
(138,0,c),
(164,0,l),
(148,117,o),
(125,230,o),
(108,299,c),
(121,299,ls),
(238,299,o),
(344,267,o),
(476,153,cs),
(563,78,o),
(636,17,o),
(710,-5,c)
);
}
);
width = 875;
},
{
anchors = (
{
name = bottom;
pos = (455,-49);
},
{
name = top;
pos = (418,582);
}
);
layerId = "54406707-D089-4649-8539-9EC6A26EE6B0";
shapes = (
{
closed = 1;
nodes = (
(875,126,l),
(841,135,o),
(807,149,o),
(772,170,cs),
(738,190,o),
(701,212,o),
(661,238,cs),
(612,270,o),
(576,292,o),
(519,318,c),
(519,322,l),
(695,335,o),
(900,423,o),
(1015,545,c),
(910,661,l),
(741,521,o),
(539,456,o),
(296,456,cs),
(266,456,o),
(188,457,o),
(95,471,c),
(61,455,o),
(45,422,o),
(45,367,cs),
(45,357,o),
(46,324,o),
(56,279,cs),
(77,187,o),
(98,86,o),
(111,0,c),
(279,0,l),
(267,83,o),
(236,235,o),
(221,291,c),
(237,291,ls),
(302,291,o),
(362,259,o),
(521,130,cs),
(662,15,o),
(741,-16,o),
(792,-22,c)
);
}
);
width = 1015;
}
);
note = uni0710.fin3;
},
{
glyphname = uni0710.fin2;
lastChange = "2022-12-15 11:31:32 +0000";
layers = (
{
anchors = (
{
name = bottom;
pos = (429,-49);
},
{
name = top;
pos = (395,491);
}
);
layerId = m01;
shapes = (
{
closed = 1;
nodes = (
(780,58,l),
(744,69,o),
(708,84,o),
(671,107,cs),
(635,129,o),
(589,164,o),
(535,209,cs),
(480,254,o),
(433,286,o),
(390,302,c),
(390,307,l),
(581,320,o),
(798,407,o),
(922,547,c),
(869,595,l),
(722,462,o),
(502,366,o),
(310,366,cs),
(209,366,o),
(155,370,o),
(102,377,c),
(81,371,o),
(73,355,o),
(73,326,cs),
(73,317,o),
(81,279,o),
(95,213,cs),
(109,147,o),
(123,77,o),
(134,0,c),
(208,0,l),
(194,104,o),
(172,208,o),
(148,303,c),
(156,303,ls),
(265,303,o),
(374,254,o),
(484,156,cs),
(594,58,o),
(681,3,o),
(746,-8,c)
);
}
);
width = 930;
},
{
anchors = (
{
name = bottom;
pos = (411,-49);
},
{
name = top;
pos = (377,450);
}
);
layerId = "22847997-2214-411C-BF12-975F69A1246B";
shapes = (
{
closed = 1;
nodes = (
(721,18,l),
(678,33,o),
(647,51,o),
(615,74,cs),
(581,99,o),
(547,127,o),
(500,167,cs),
(392,258,o),
(320,289,o),
(267,298,c),
(267,300,l),
(561,303,o),
(755,405,o),
(861,514,c),
(844,530,l),
(708,406,o),
(531,321,o),
(203,321,cs),
(184,321,o),
(129,323,o),
(98,328,c),
(87,326,o),
(83,316,o),
(83,303,cs),
(83,293,o),
(87,274,o),
(94,241,cs),
(118,125,o),
(124,96,o),
(138,0,c),
(164,0,l),
(148,117,o),
(125,230,o),
(108,299,c),
(121,299,ls),
(238,299,o),
(344,267,o),
(476,153,cs),
(563,78,o),
(636,17,o),
(710,-5,c)
);
}
);
width = 875;
},
{
anchors = (
{
name = bottom;
pos = (455,-49);
},
{
name = top;
pos = (418,583);
}
);
layerId = "54406707-D089-4649-8539-9EC6A26EE6B0";
shapes = (
{
closed = 1;
nodes = (
(875,126,l),
(841,135,o),
(807,149,o),
(772,170,cs),
(738,190,o),
(701,212,o),
(661,238,cs),
(612,270,o),
(576,292,o),
(519,318,c),
(519,322,l),
(695,335,o),
(900,423,o),
(1015,545,c),
(910,661,l),
(741,521,o),
(539,456,o),
(296,456,cs),
(266,456,o),
(188,457,o),
(95,471,c),
(61,455,o),
(45,422,o),
(45,367,cs),
(45,357,o),
(46,324,o),
(56,279,cs),
(77,187,o),
(98,86,o),
(111,0,c),
(279,0,l),
(267,83,o),
(236,235,o),
(221,291,c),
(237,291,ls),
(302,291,o),
(362,259,o),
(521,130,cs),
(662,15,o),
(741,-16,o),
(792,-22,c)
);
}
);
width = 1015;
}
);
note = uni0710.fin2;
},
{
glyphname = uni0710.fina;
lastChange = "2022-12-15 11:31:32 +0000";
layers = (
{
anchors = (
{
name = bottom;
pos = (429,-49);
},
{
name = top;
pos = (392,492);
}
);
layerId = m01;
shapes = (
{
closed = 1;
nodes = (
(870,0,l),
(870,76,l),
(837,76,ls),
(703,76,o),
(620,135,o),
(532,209,cs),
(476,256,o),
(428,287,o),
(388,302,c),
(388,306,l),
(584,314,o),
(821,430,o),
(922,547,c),
(869,595,l),
(738,472,o),
(498,366,o),
(310,366,cs),
(276,366,o),
(168,367,o),
(102,377,c),
(81,371,o),
(73,356,o),
(73,327,cs),
(73,317,o),
(76,300,o),
(84,264,cs),
(108,152,o),
(120,93,o),
(134,0,c),
(208,0,l),
(192,111,o),
(165,244,o),
(149,303,c),
(156,303,ls),
(292,303,o),
(389,238,o),
(492,146,cs),
(592,56,o),
(678,0,o),
(825,0,cs)
);
}
);
width = 870;
},
{
anchors = (
{
name = bottom;
pos = (412,-49);
},
{
name = top;
pos = (375,449);
}
);
layerId = "22847997-2214-411C-BF12-975F69A1246B";
shapes = (
{
closed = 1;
nodes = (
(832,0,l),
(832,25,l),
(797,25,ls),
(690,25,o),
(656,41,o),
(502,167,cs),
(378,268,o),
(331,282,o),
(265,298,c),
(265,300,l),
(559,303,o),
(760,417,o),
(866,526,c),
(849,542,l),
(713,418,o),
(531,321,o),
(203,321,cs),
(184,321,o),
(129,323,o),
(98,328,c),
(87,326,o),
(83,316,o),
(83,303,cs),
(83,293,o),
(87,274,o),
(94,241,cs),
(118,125,o),
(124,96,o),
(138,0,c),
(164,0,l),
(148,117,o),
(125,230,o),
(108,299,c),
(120,299,ls),
(237,299,o),
(344,267,o),
(476,153,cs),
(586,58,o),
(665,0,o),
(782,0,cs)
);
}
);
width = 832;
},
{
anchors = (
{
name = bottom;
pos = (455,-49);
},
{
name = top;
pos = (419,582);
}
);
layerId = "54406707-D089-4649-8539-9EC6A26EE6B0";
shapes = (
{
closed = 1;
nodes = (
(932,0,l),
(932,185,l),
(895,185,ls),
(824,185,o),
(751,190,o),
(663,240,cs),
(611,269,o),
(569,292,o),
(512,318,c),
(512,322,l),
(688,335,o),
(893,423,o),
(1008,545,c),
(903,661,l),
(734,521,o),
(532,456,o),
(289,456,cs),
(259,456,o),
(181,457,o),
(88,471,c),
(54,455,o),
(38,422,o),
(38,367,cs),
(38,357,o),
(39,324,o),
(49,279,cs),
(70,185,o),
(91,86,o),
(104,0,c),
(272,0,l),
(260,83,o),
(229,230,o),
(214,291,c),
(235,291,ls),
(286,291,o),
(347,272,o),
(512,137,cs),
(674,5,o),
(795,0,o),
(908,0,cs)
);
}
);
width = 932;
}
);
note = uni0710.fina;
},
{
glyphname = uni0710.med2;
lastChange = "2022-12-15 11:31:32 +0000";
layers = (
{
anchors = (
{
name = bottom;
pos = (430,-49);
},
{
name = top;
pos = (396,492);
}
);
layerId = m01;
shapes = (
{
closed = 1;
nodes = (
(870,0,l),
(870,76,l),
(837,76,ls),
(703,76,o),
(620,135,o),
(532,209,cs),
(476,256,o),
(428,287,o),
(388,302,c),
(388,306,l),
(584,314,o),
(821,430,o),
(922,547,c),
(869,595,l),
(738,472,o),
(498,366,o),
(310,366,cs),
(276,366,o),
(168,367,o),
(102,377,c),
(81,371,o),
(73,356,o),
(73,327,cs),
(73,317,o),
(76,300,o),
(84,264,cs),
(108,152,o),
(120,93,o),
(134,0,c),
(208,0,l),
(192,111,o),
(165,244,o),
(149,303,c),
(156,303,ls),
(292,303,o),
(389,238,o),
(492,146,cs),
(592,56,o),
(678,0,o),
(825,0,cs)
);
}
);
width = 870;
},
{
anchors = (
{
name = bottom;
pos = (411,-49);
},
{
name = top;
pos = (377,451);
}
);
layerId = "22847997-2214-411C-BF12-975F69A1246B";
shapes = (
{
closed = 1;
nodes = (
(832,0,l),
(832,25,l),
(797,25,ls),
(690,25,o),
(656,41,o),
(502,167,cs),
(378,268,o),
(331,282,o),
(265,298,c),
(265,300,l),
(559,303,o),
(760,417,o),
(866,526,c),
(849,542,l),
(713,418,o),
(531,321,o),
(203,321,cs),
(184,321,o),
(129,323,o),
(98,328,c),
(87,326,o),
(83,316,o),
(83,303,cs),
(83,293,o),
(87,274,o),
(94,241,cs),
(118,125,o),
(124,96,o),
(138,0,c),
(164,0,l),
(148,117,o),
(125,230,o),
(108,299,c),
(120,299,ls),
(237,299,o),
(344,267,o),
(476,153,cs),
(586,58,o),
(665,0,o),
(782,0,cs)
);
}
);
width = 832;
},
{
anchors = (
{
name = bottom;
pos = (454,-49);
},
{
name = top;
pos = (420,586);
}
);
layerId = "54406707-D089-4649-8539-9EC6A26EE6B0";
shapes = (
{
closed = 1;
nodes = (
(932,0,l),
(932,185,l),
(895,185,ls),
(824,185,o),
(751,190,o),
(663,240,cs),
(611,269,o),
(569,292,o),
(512,318,c),
(512,322,l),
(688,335,o),
(893,423,o),
(1008,545,c),
(903,661,l),
(734,521,o),
(532,456,o),
(289,456,cs),
(259,456,o),
(181,457,o),
(88,471,c),
(54,455,o),
(38,422,o),
(38,367,cs),
(38,357,o),
(39,324,o),
(49,279,cs),
(70,185,o),
(91,86,o),
(104,0,c),
(272,0,l),
(260,83,o),
(229,230,o),
(214,291,c),
(235,291,ls),
(286,291,o),
(347,272,o),
(512,137,cs),
(674,5,o),
(795,0,o),
(908,0,cs)
);
}
);
width = 932;
}
);
note = uni0710.med2;
},
{
category = Mark;
glyphname = uni0711;
lastChange = "2022-12-15 11:31:32 +0000";
layers = (
{
anchors = (
{
name = _cantillation_above;
pos = (0,540);
},
{
name = _top;
pos = (0,542);
}
);
layerId = m01;
shapes = (
{
closed = 1;
nodes = (
(118,577,l),
(88,587,o),
(67,599,o),
(38,623,cs),
(24,635,o),
(9,645,o),
(-3,651,c),
(-3,653,l),
(73,667,o),
(130,697,o),
(162,734,c),
(137,760,l),
(67,701,o),
(9,682,o),
(-56,682,cs),
(-68,682,o),
(-91,683,o),
(-111,685,c),
(-119,682,o),
(-122,673,o),
(-122,666,cs),
(-122,660,o),
(-121,652,o),
(-119,641,cs),
(-115,619,o),
(-109,586,o),
(-103,548,c),
(-66,548,l),
(-70,581,o),
(-76,615,o),
(-82,648,c),
(-79,648,ls),
(-57,648,o),
(-27,629,o),
(7,599,cs),
(37,573,o),
(70,549,o),
(99,544,c)
);
}
);
width = 0;
},
{
anchors = (
{
name = _cantillation_above;
pos = (0,540);
},
{
name = _top;
pos = (0,542);
}
);
layerId = "22847997-2214-411C-BF12-975F69A1246B";
shapes = (
{
closed = 1;
nodes = (
(81,570,l),
(60,578,o),
(44,593,o),
(18,617,cs),
(-4,638,o),
(-17,649,o),
(-33,656,c),
(-33,657,l),
(28,659,o),
(82,689,o),
(110,724,c),
(98,735,l),
(60,694,o),
(8,671,o),
(-54,671,cs),
(-63,671,o),
(-84,672,o),
(-100,675,c),
(-105,673,o),
(-108,668,o),
(-108,662,cs),
(-108,659,o),
(-107,653,o),
(-104,638,cs),
(-97,601,o),
(-95,588,o),
(-91,557,c),
(-74,557,l),
(-78,594,o),
(-86,636,o),
(-91,656,c),
(-84,656,ls),
(-56,656,o),
(-32,644,o),
(5,606,cs),
(29,581,o),
(56,561,o),
(74,555,c)
);
}
);
width = 0;
},
{
anchors = (
{
name = _cantillation_above;
pos = (0,540);
},
{
name = _top;
pos = (0,542);
}
);
layerId = "54406707-D089-4649-8539-9EC6A26EE6B0";
shapes = (
{
closed = 1;
nodes = (
(158,599,l),
(130,607,o),
(104,623,o),
(75,642,cs),
(56,655,o),
(41,663,o),
(18,673,c),
(18,674,l),
(86,679,o),
(167,713,o),
(211,760,c),
(171,805,l),
(106,750,o),
(28,726,o),
(-65,726,cs),
(-77,726,o),
(-108,726,o),
(-139,730,c),
(-151,722,o),
(-155,706,o),
(-155,694,cs),
(-155,679,o),
(-153,660,o),
(-149,639,cs),
(-145,618,o),
(-139,584,o),
(-135,551,c),
(-74,551,l),
(-77,576,o),
(-87,645,o),
(-90,663,c),
(-84,663,ls),
(-60,663,o),
(-39,650,o),
(21,600,cs),
(75,555,o),
(106,544,o),
(126,542,c)
);
}
);
width = 0;
}
);
note = uni0711;
subCategory = Nonspacing;
unicode = 1809;
},
{
glyphname = uni0712;
lastChange = "2022-12-15 11:31:32 +0000";
layers = (
{
anchors = (
{
name = bottom;
pos = (460,-97);
},
{
name = bottomright;
pos = (812,-81);
},
{
name = top;
pos = (570,519);
},
{
name = topright;
pos = (820,499);
}
);
layerId = m01;
shapes = (
{
closed = 1;
nodes = (
(708,0,ls),
(841,0,o),
(889,54,o),
(889,175,cs),
(889,205,o),
(883,250,o),
(879,275,cs),
(859,387,o),
(799,426,o),
(705,426,cs),
(628,426,o),
(551,421,o),
(474,421,cs),
(393,421,o),
(348,424,o),
(326,429,c),
(326,357,l),
(345,352,o),
(388,348,o),
(479,348,cs),
(548,348,o),
(621,353,o),
(690,353,cs),
(757,353,o),
(791,335,o),
(807,264,cs),
(812,243,o),
(817,205,o),
(817,175,cs),
(817,106,o),
(797,76,o),
(729,76,cs),
(266,76,ls),
(166,76,o),
(127,94,o),
(96,131,c),
(49,78,l),
(69,33,o),
(129,0,o),
(240,0,cs)
);
}
);
width = 958;
},
{
anchors = (
{
name = bottom;
pos = (427,-97);
},
{
name = bottomright;
pos = (779,-84);
},
{
name = top;
pos = (535,469);
},
{
name = topright;
pos = (785,450);
}
);
layerId = "22847997-2214-411C-BF12-975F69A1246B";
shapes = (
{
closed = 1;
nodes = (
(667,0,ls),
(779,0,o),
(810,51,o),
(810,147,cs),
(810,180,o),
(807,214,o),
(802,242,cs),
(785,339,o),
(732,376,o),
(648,376,cs),
(572,376,o),
(543,371,o),
(437,371,cs),
(382,371,o),
(340,373,o),
(316,378,c),
(316,353,l),
(335,348,o),
(373,346,o),
(435,346,cs),
(511,346,o),
(580,351,o),
(644,351,cs),
(717,351,o),
(755,325,o),
(775,242,cs),
(781,219,o),
(784,177,o),
(784,147,cs),
(784,60,o),
(755,25,o),
(674,25,cs),
(228,25,ls),
(137,25,o),
(106,34,o),
(77,73,c),
(60,53,l),
(77,23,o),
(113,0,o),
(197,0,cs)
);
}
);
width = 889;
},
{
anchors = (
{
name = bottom;
pos = (518,-97);
},
{
name = bottomright;
pos = (871,-75);
},
{
name = top;
pos = (628,600);
},
{
name = topright;
pos = (909,558);
}
);
layerId = "54406707-D089-4649-8539-9EC6A26EE6B0";
shapes = (
{
closed = 1;
nodes = (
(698,0,ls),
(863,0,o),
(960,61,o),
(960,228,cs),
(960,249,o),
(954,306,o),
(949,335,cs),
(926,471,o),
(831,507,o),
(724,507,cs),
(651,507,o),
(548,502,o),
(535,502,cs),
(461,502,o),
(430,505,o),
(363,510,c),
(363,341,l),
(413,331,o),
(456,330,o),
(503,330,cs),
(553,330,o),
(653,334,o),
(691,334,cs),
(749,334,o),
(777,321,o),
(787,288,cs),
(791,274,o),
(794,249,o),
(794,236,cs),
(794,214,o),
(789,185,o),
(749,185,cs),
(366,185,ls),
(254,185,o),
(187,203,o),
(145,246,c),
(38,128,l),
(74,43,o),
(162,0,o),
(315,0,cs)
);
}
);
width = 1018;
}
);
note = uni0712;
unicode = 1810;
},
{
glyphname = uni0712.fina;
lastChange = "2022-12-15 11:31:32 +0000";
layers = (
{
anchors = (
{
name = bottom;
pos = (460,-97);
},
{
name = bottomright;
pos = (813,-83);
},
{
name = top;
pos = (570,519);
},
{
name = topright;
pos = (820,499);
}
);
layerId = m01;
shapes = (
{
closed = 1;
nodes = (
(968,0,l),
(968,76,l),
(865,76,l),
(865,78,l),
(882,100,o),
(889,128,o),
(889,175,cs),
(889,205,o),
(883,250,o),
(879,275,cs),
(859,387,o),
(799,426,o),
(705,426,cs),
(628,426,o),
(551,421,o),
(474,421,cs),
(393,421,o),
(348,424,o),
(326,429,c),
(326,357,l),
(345,352,o),
(388,348,o),
(479,348,cs),
(548,348,o),
(621,353,o),
(690,353,cs),
(757,353,o),
(791,335,o),
(807,264,cs),
(812,243,o),
(817,205,o),
(817,175,cs),
(817,106,o),
(797,76,o),
(729,76,cs),
(266,76,ls),
(166,76,o),
(127,94,o),
(96,131,c),
(49,78,l),
(69,33,o),
(129,0,o),
(240,0,cs)
);
}
);
width = 968;
},
{
anchors = (
{
name = bottom;
pos = (427,-97);
},
{
name = bottomright;
pos = (780,-83);
},
{
name = top;
pos = (535,469);
},
{
name = topright;
pos = (785,450);
}
);
layerId = "22847997-2214-411C-BF12-975F69A1246B";
shapes = (
{
closed = 1;
nodes = (
(898,0,l),
(898,25,l),
(766,25,l),
(766,27,l),
(805,54,o),
(810,98,o),
(810,147,cs),
(810,180,o),
(807,214,o),
(802,242,cs),
(785,339,o),
(732,376,o),
(648,376,cs),
(572,376,o),
(543,371,o),
(437,371,cs),
(382,371,o),
(340,373,o),
(316,378,c),
(316,353,l),
(335,348,o),
(373,346,o),
(435,346,cs),
(511,346,o),
(580,351,o),
(644,351,cs),
(717,351,o),
(755,325,o),
(775,242,cs),
(781,219,o),
(784,177,o),
(784,147,cs),
(784,60,o),
(755,25,o),
(674,25,cs),
(228,25,ls),
(137,25,o),
(106,34,o),
(77,73,c),
(60,53,l),
(77,23,o),
(113,0,o),
(197,0,cs)
);
}
);
width = 898;
},
{
anchors = (
{
name = bottom;
pos = (518,-97);
},
{
name = bottomright;
pos = (871,-80);
},
{
name = top;
pos = (628,600);
},
{
name = topright;
pos = (908,559);
}
);
layerId = "54406707-D089-4649-8539-9EC6A26EE6B0";
shapes = (
{
closed = 1;
nodes = (
(1032,0,l),
(1032,185,l),
(956,185,l),
(956,187,l),
(959,200,o),
(960,224,o),
(960,242,cs),
(960,263,o),
(954,306,o),
(949,335,cs),
(926,471,o),
(831,507,o),
(724,507,cs),
(651,507,o),
(548,502,o),
(535,502,cs),
(461,502,o),
(430,505,o),
(363,510,c),
(363,340,l),
(413,330,o),
(455,329,o),
(502,329,cs),
(552,329,o),
(653,334,o),
(691,334,cs),
(749,334,o),
(777,316,o),
(787,283,cs),
(791,269,o),
(794,249,o),
(794,236,cs),
(794,214,o),
(789,185,o),
(749,185,cs),
(366,185,ls),
(254,185,o),
(187,203,o),
(145,246,c),
(38,128,l),
(74,43,o),
(162,0,o),
(315,0,cs)
);
}
);
width = 1032;
}
);
note = uni0712.fina;
},
{
glyphname = uni0712.medi;
lastChange = "2022-12-15 11:31:32 +0000";
layers = (
{
anchors = (
{
name = bottom;
pos = (296,-98);
},
{
name = bottomright;
pos = (585,-81);
},
{
name = top;
pos = (342,519);
},
{
name = topright;
pos = (592,499);
}
);
layerId = m01;
shapes = (
{
closed = 1;
nodes = (
(740,0,l),
(740,76,l),
(637,76,l),
(637,78,l),
(654,100,o),
(661,128,o),
(661,175,cs),
(661,205,o),
(655,250,o),
(651,275,cs),
(631,387,o),
(571,426,o),
(477,426,cs),
(400,426,o),
(323,421,o),
(246,421,cs),
(165,421,o),
(120,424,o),
(98,429,c),
(98,357,l),
(117,352,o),
(160,348,o),
(251,348,cs),
(320,348,o),
(393,353,o),
(462,353,cs),
(529,353,o),
(563,335,o),
(579,264,cs),
(584,243,o),
(589,205,o),
(589,175,cs),
(589,106,o),
(569,76,o),
(501,76,cs),
(0,76,ls),
(-21,76,o),
(-39,61,o),
(-39,38,cs),
(-39,14,o),
(-21,0,o),
(0,0,cs)
);
}
);
width = 740;
},
{
anchors = (
{
name = bottom;
pos = (277,-98);
},
{
name = bottomright;
pos = (582,-81);
},
{
name = top;
pos = (333,469);
},
{
name = topright;
pos = (582,449);
}
);
layerId = "22847997-2214-411C-BF12-975F69A1246B";
shapes = (
{
closed = 1;
nodes = (
(695,0,l),
(695,25,l),
(563,25,l),
(563,27,l),
(602,54,o),
(607,98,o),
(607,147,cs),
(607,180,o),
(604,214,o),
(599,242,cs),
(582,339,o),
(529,376,o),
(445,376,cs),
(369,376,o),
(335,371,o),
(229,371,cs),
(174,371,o),
(132,373,o),
(108,378,c),
(108,353,l),
(127,348,o),
(165,346,o),
(227,346,cs),
(303,346,o),
(377,351,o),
(441,351,cs),
(514,351,o),
(553,324,o),
(572,242,cs),
(577,219,o),
(581,177,o),
(581,147,cs),
(581,60,o),
(552,25,o),
(471,25,cs),
(0,25,ls),
(-19,25,o),
(-40,21,o),
(-40,13,cs),
(-40,4,o),
(-19,0,o),
(0,0,cs)
);
}
);
width = 695;
},
{
anchors = (
{
name = bottom;
pos = (272,-98);
},
{
name = bottomright;
pos = (624,-81);
},
{
name = top;
pos = (382,599);
},
{
name = topright;
pos = (662,560);
}
);
layerId = "54406707-D089-4649-8539-9EC6A26EE6B0";
shapes = (
{
closed = 1;
nodes = (
(787,0,l),
(787,185,l),
(711,185,l),
(711,187,l),
(714,200,o),
(715,224,o),
(715,242,cs),
(715,263,o),
(709,306,o),
(704,335,cs),
(681,471,o),
(586,507,o),
(479,507,cs),
(406,507,o),
(303,502,o),
(290,502,cs),
(216,502,o),
(185,505,o),
(118,510,c),
(118,340,l),
(168,330,o),
(211,329,o),
(258,329,cs),
(308,329,o),
(408,334,o),
(446,334,cs),
(504,334,o),
(532,316,o),
(542,283,cs),
(546,269,o),
(549,249,o),
(549,236,cs),
(549,214,o),
(544,185,o),
(504,185,cs),
(0,185,ls),
(-24,185,o),
(-40,141,o),
(-40,92,cs),
(-40,42,o),
(-24,0,o),
(0,0,cs)
);
}
);
width = 787;
}
);
note = uni0712.medi;
},
{
glyphname = uni0712.init;
lastChange = "2022-12-15 11:31:32 +0000";
layers = (
{
anchors = (
{
name = bottom;
pos = (296,-98);
},
{
name = bottomright;
pos = (585,-81);
},
{
name = top;
pos = (341,519);
},
{
name = topright;
pos = (592,500);
}
);
layerId = m01;
shapes = (
{
closed = 1;
nodes = (
(480,0,ls),
(613,0,o),
(661,54,o),
(661,175,cs),
(661,205,o),
(655,250,o),
(651,275,cs),
(631,387,o),
(571,426,o),
(477,426,cs),
(400,426,o),
(323,421,o),
(246,421,cs),
(165,421,o),
(120,424,o),
(98,429,c),
(98,357,l),
(117,352,o),
(160,348,o),
(251,348,cs),
(320,348,o),
(393,353,o),
(462,353,cs),
(529,353,o),
(563,335,o),
(579,264,cs),
(584,243,o),
(589,205,o),
(589,175,cs),
(589,106,o),
(569,76,o),
(501,76,cs),
(0,76,ls),
(-21,76,o),
(-39,61,o),
(-39,38,cs),
(-39,14,o),
(-21,0,o),
(0,0,cs)
);
}
);
width = 730;
},
{
anchors = (
{
name = bottom;
pos = (278,-98);
},
{
name = bottomright;
pos = (582,-81);
},
{
name = top;
pos = (333,468);
},
{
name = topright;
pos = (583,449);
}
);
layerId = "22847997-2214-411C-BF12-975F69A1246B";
shapes = (
{
closed = 1;
nodes = (
(464,0,ls),
(576,0,o),
(607,51,o),
(607,147,cs),
(607,180,o),
(604,214,o),
(599,242,cs),
(582,339,o),
(529,376,o),
(445,376,cs),
(369,376,o),
(335,371,o),
(229,371,cs),
(174,371,o),
(132,373,o),
(108,378,c),
(108,353,l),
(127,348,o),
(165,346,o),
(227,346,cs),
(303,346,o),
(377,351,o),
(441,351,cs),
(514,351,o),
(552,325,o),
(572,242,cs),
(578,219,o),
(581,177,o),
(581,147,cs),
(581,60,o),
(552,25,o),
(471,25,cs),
(0,25,ls),
(-19,25,o),
(-40,21,o),
(-40,13,cs),
(-40,4,o),
(-19,0,o),
(0,0,cs)
);
}
);
width = 686;
},
{
anchors = (
{
name = bottom;
pos = (271,-98);
},
{
name = bottomright;
pos = (625,-81);
},
{
name = top;
pos = (383,600);
},
{
name = topright;
pos = (661,559);
}
);
layerId = "54406707-D089-4649-8539-9EC6A26EE6B0";
shapes = (
{
closed = 1;
nodes = (
(453,0,ls),
(618,0,o),
(715,61,o),
(715,228,cs),
(715,249,o),
(709,306,o),
(704,335,cs),
(681,471,o),
(586,507,o),
(479,507,cs),
(406,507,o),
(303,502,o),
(290,502,cs),
(216,502,o),
(185,505,o),
(118,510,c),
(118,340,l),
(168,330,o),
(211,329,o),
(258,329,cs),
(308,329,o),
(408,334,o),
(446,334,cs),
(504,334,o),
(532,321,o),
(542,288,cs),
(546,274,o),
(549,249,o),
(549,236,cs),
(549,214,o),
(544,185,o),
(504,185,cs),
(0,185,ls),
(-24,185,o),
(-40,141,o),
(-40,92,cs),
(-40,42,o),
(-24,0,o),
(0,0,cs)
);
}
);
width = 773;
}
);
note = uni0712.init;
},
{
glyphname = uni0713;
lastChange = "2022-12-15 11:31:32 +0000";
layers = (
{
anchors = (
{
name = bottom;
pos = (603,-144);
},
{
name = bottomright;
pos = (880,-232);
},
{
name = top;
pos = (643,586);
},
{
name = topright;
pos = (855,259);
}
);
layerId = m01;
shapes = (
{
closed = 1;
nodes = (
(1278,-375,l),
(1324,-316,l),
(1245,-264,o),
(1170,-205,o),
(1059,-105,cs),
(997,-50,o),
(936,10,o),
(878,72,cs),
(728,231,o),
(594,403,o),
(497,536,c),
(427,496,l),
(505,386,o),
(628,227,o),
(751,93,cs),
(820,18,o),
(882,-43,o),
(958,-97,c),
(955,-100,l),
(850,-36,o),
(774,-5,o),
(685,21,cs),
(513,71,o),
(384,76,o),
(278,76,cs),
(220,76,o),
(103,69,o),
(49,58,c),
(63,-12,l),
(123,-4,o),
(223,0,o),
(293,0,cs),
(448,0,o),
(607,-28,o),
(773,-88,cs),
(871,-123,o),
(958,-167,o),
(1033,-211,cs),
(1106,-254,o),
(1168,-297,o),
(1222,-335,cs)
);
}
);
width = 1091;
},
{
anchors = (
{
name = bottom;
pos = (543,-144);
},
{
name = bottomright;
pos = (821,-232);
},
{
name = top;
pos = (605,532);
},
{
name = topright;
pos = (820,204);
}
);
layerId = "22847997-2214-411C-BF12-975F69A1246B";
shapes = (
{
closed = 1;
nodes = (
(1212,-370,l),
(1227,-349,l),
(1160,-302,o),
(1087,-243,o),
(991,-151,cs),
(942,-104,o),
(893,-53,o),
(844,0,cs),
(695,163,o),
(556,344,o),
(459,481,c),
(437,467,l),
(528,334,o),
(712,100,o),
(873,-69,cs),
(933,-132,o),
(990,-186,o),
(1038,-222,c),
(1036,-224,l),
(916,-142,o),
(765,-67,o),
(640,-30,cs),
(476,18,o),
(355,25,o),
(255,25,cs),
(206,25,o),
(115,19,o),
(60,11,c),
(65,-14,l),
(126,-5,o),
(216,0,o),
(278,0,cs),
(426,0,o),
(593,-30,o),
(737,-91,cs),
(845,-137,o),
(943,-190,o),
(1028,-244,cs),
(1084,-279,o),
(1133,-313,o),
(1175,-343,cs)
);
}
);
width = 1005;
},
{
anchors = (
{
name = bottom;
pos = (650,-163);
},
{
name = bottomright;
pos = (973,-232);
},
{
name = top;
pos = (763,682);
},
{
name = topright;
pos = (976,356);
}
);
layerId = "54406707-D089-4649-8539-9EC6A26EE6B0";
shapes = (
{
closed = 1;
nodes = (
(1378,-382,l),
(1477,-247,l),
(1386,-187,o),
(1307,-133,o),
(1178,-20,cs),
(1096,52,o),
(1006,143,o),
(937,222,cs),
(808,369,o),
(700,513,o),
(617,631,c),
(458,530,l),
(525,430,o),
(608,322,o),
(708,218,cs),
(761,162,o),
(820,108,o),
(884,56,c),
(880,50,l),
(773,109,o),
(673,142,o),
(578,160,cs),
(482,178,o),
(392,182,o),
(302,182,cs),
(245,182,o),
(118,170,o),
(38,146,c),
(65,-23,l),
(180,-3,o),
(282,0,o),
(341,0,cs),
(507,0,o),
(688,-33,o),
(857,-90,cs),
(939,-118,o),
(1026,-152,o),
(1117,-205,cs),
(1178,-240,o),
(1242,-283,o),
(1308,-331,cs)
);
}
);
width = 1243;
}
);
note = uni0713;
unicode = 1811;
},
{
glyphname = uni0713.fina;
lastChange = "2022-12-15 11:41:32 +0000";
layers = (
{
anchors = (
{
name = bottom;
pos = (604,-146);
},
{
name = bottomright;
pos = (881,-232);
},
{
name = top;
pos = (644,586);
},
{
name = topright;
pos = (856,258);
}
);
layerId = m01;
shapes = (
{
closed = 1;
nodes = (
(1278,-375,l),
(1324,-316,l),
(1245,-264,o),
(1170,-205,o),
(1059,-105,cs),
(1021,-70,o),
(982,-34,o),
(945,3,c),
(945,3,l),
(945,76,l),
(875,76,l),
(726,234,o),
(593,404,o),
(497,536,c),
(427,496,l),
(505,387,o),
(626,228,o),
(750,95,cs),
(818,22,o),
(883,-43,o),
(958,-97,c),
(955,-100,l),
(848,-34,o),
(773,-5,o),
(685,21,cs),
(513,71,o),
(384,76,o),
(278,76,cs),
(220,76,o),
(103,69,o),
(49,58,c),
(63,-12,l),
(123,-4,o),
(223,0,o),
(293,0,cs),
(448,0,o),
(607,-28,o),
(773,-88,cs),
(870,-123,o),
(955,-165,o),
(1030,-209,cs),
(1104,-252,o),
(1168,-296,o),
(1222,-335,cs)
);
}
);
width = 945;
},
{
anchors = (
{
name = bottom;
pos = (543,-146);
},
{
name = bottomright;
pos = (823,-232);
},
{
name = top;
pos = (606,532);
},
{
name = topright;
pos = (820,205);
}
);
layerId = "22847997-2214-411C-BF12-975F69A1246B";
shapes = (
{
closed = 1;
nodes = (
(1212,-370,l),
(1227,-349,l),
(1160,-302,o),
(1087,-243,o),
(991,-151,cs),
(941,-104,o),
(892,-53,o),
(843,0,c),
(865,0,l),
(865,25,l),
(821,25,l),
(680,183,o),
(550,350,o),
(459,481,c),
(437,467,l),
(512,357,o),
(650,179,o),
(786,25,cs),
(865,-65,o),
(962,-164,o),
(1038,-222,c),
(1036,-224,l),
(916,-142,o),
(767,-67,o),
(640,-30,cs),
(476,18,o),
(355,25,o),
(255,25,cs),
(206,25,o),
(115,19,o),
(60,11,c),
(65,-14,l),
(126,-5,o),
(216,0,o),
(278,0,cs),
(426,0,o),
(593,-30,o),
(737,-91,cs),
(845,-137,o),
(944,-191,o),
(1028,-244,cs),
(1083,-279,o),
(1133,-312,o),
(1175,-343,cs)
);
}
);
width = 865;
},
{
anchors = (
{
name = bottom;
pos = (652,-163);
},
{
name = bottomright;
pos = (973,-232);
},
{
name = top;
pos = (763,682);
},
{
name = topright;
pos = (976,358);
}
);
layerId = "54406707-D089-4649-8539-9EC6A26EE6B0";
shapes = (
{
closed = 1;
nodes = (
(1378,-382,l),
(1477,-247,l),
(1386,-187,o),
(1307,-132,o),
(1178,-19,cs),
(1142,12,o),
(1106,46,o),
(1070,82,c),
(1070,82,l),
(1070,185,l),
(970,185,l),
(802,375,o),
(699,513,o),
(616,631,c),
(458,530,l),
(525,431,o),
(606,327,o),
(705,224,cs),
(759,167,o),
(819,111,o),
(884,56,c),
(880,50,l),
(773,109,o),
(673,142,o),
(578,160,cs),
(482,178,o),
(392,182,o),
(302,182,cs),
(245,182,o),
(118,170,o),
(38,146,c),
(65,-23,l),
(180,-3,o),
(282,0,o),
(341,0,cs),
(507,0,o),
(688,-33,o),
(857,-90,cs),
(939,-118,o),
(1026,-153,o),
(1117,-205,cs),
(1178,-240,o),
(1242,-283,o),
(1308,-331,cs)
);
}
);
width = 1070;
}
);
note = uni0713.fina;
},
{
glyphname = uni0713.medi;
lastChange = "2022-12-15 11:41:55 +0000";
layers = (
{
anchors = (
{
name = bottom;
pos = (248,-158);
},
{
name = bottomright;
pos = (508,-230);
},
{
name = top;
pos = (271,586);
},
{
name = topright;
pos = (483,253);
}
);
layerId = m01;
shapes = (
{
closed = 1;
nodes = (
(905,-375,l),
(951,-316,l),
(872,-264,o),
(797,-205,o),
(686,-105,cs),
(647,-70,o),
(609,-34,o),
(571,4,c),
(571,4,l),
(571,76,l),
(501,76,l),
(353,234,o),
(220,404,o),
(124,536,c),
(54,496,l),
(140,376,o),
(253,227,o),
(379,94,cs),
(430,40,o),
(484,-11,o),
(538,-58,c),
(535,-61,l),
(442,-9,o),
(359,25,o),
(271,47,cs),
(190,67,o),
(104,76,o),
(0,76,cs),
(-21,76,o),
(-39,61,o),
(-39,38,cs),
(-39,14,o),
(-21,0,o),
(0,0,cs),
(149,0,o),
(279,-24,o),
(398,-69,cs),
(490,-104,o),
(576,-149,o),
(660,-205,cs),
(735,-255,o),
(781,-290,o),
(870,-351,cs)
);
}
);
width = 571;
},
{
anchors = (
{
name = bottom;
pos = (212,-144);
},
{
name = bottomright;
pos = (488,-230);
},
{
name = top;
pos = (272,532);
},
{
name = topright;
pos = (486,206);
}
);
layerId = "22847997-2214-411C-BF12-975F69A1246B";
shapes = (
{
closed = 1;
nodes = (
(878,-370,l),
(893,-349,l),
(826,-302,o),
(753,-243,o),
(657,-151,cs),
(619,-115,o),
(546,-41,o),
(510,0,c),
(531,0,l),
(531,25,l),
(487,25,l),
(343,187,o),
(248,309,o),
(125,481,c),
(103,467,l),
(178,357,o),
(316,179,o),
(452,25,cs),
(534,-67,o),
(617,-154,o),
(704,-222,c),
(702,-224,l),
(612,-164,o),
(510,-110,o),
(415,-69,cs),
(280,-11,o),
(137,25,o),
(0,25,cs),
(-19,25,o),
(-40,21,o),
(-40,13,cs),
(-40,4,o),
(-19,0,o),
(0,0,cs),
(28,0,o),
(188,0,o),
(403,-91,cs),
(511,-137,o),
(610,-191,o),
(694,-244,cs),
(750,-279,o),
(799,-312,o),
(841,-343,cs)
);
}
);
width = 531;
},
{
anchors = (
{
name = bottom;
pos = (249,-159);
},
{
name = bottomright;
pos = (509,-230);
},
{
name = top;
pos = (358,682);
},
{
name = topright;
pos = (571,356);
}
);
layerId = "54406707-D089-4649-8539-9EC6A26EE6B0";
shapes = (
{
closed = 1;
nodes = (
(973,-382,l),
(1072,-247,l),
(981,-187,o),
(902,-133,o),
(773,-20,cs),
(737,11,o),
(701,45,o),
(665,81,c),
(665,81,l),
(665,185,l),
(565,185,l),
(397,375,o),
(294,513,o),
(211,631,c),
(53,530,l),
(120,430,o),
(202,323,o),
(302,219,cs),
(355,163,o),
(414,108,o),
(479,56,c),
(475,50,l),
(400,96,o),
(328,127,o),
(262,147,cs),
(152,181,o),
(59,185,o),
(0,185,cs),
(-24,185,o),
(-40,141,o),
(-40,92,cs),
(-40,42,o),
(-24,0,o),
(0,0,cs),
(121,0,o),
(244,-22,o),
(362,-58,cs),
(487,-96,o),
(606,-145,o),
(712,-205,cs),
(773,-239,o),
(837,-283,o),
(903,-331,cs)
);
}
);
width = 665;
}
);
note = uni0713.medi;
},
{
glyphname = uni0713.init;
lastChange = "2022-12-15 11:31:32 +0000";
layers = (
{
anchors = (
{
name = bottom;
pos = (248,-157);
},
{
name = bottomright;
pos = (508,-232);
},
{
name = top;
pos = (271,586);
},
{
name = topright;
pos = (483,253);
}
);
layerId = m01;
shapes = (
{
closed = 1;
nodes = (
(905,-375,l),
(951,-316,l),
(872,-264,o),
(797,-205,o),
(686,-105,cs),
(623,-49,o),
(561,12,o),
(502,75,cs),
(353,234,o),
(220,403,o),
(124,536,c),
(54,496,l),
(140,376,o),
(253,228,o),
(379,95,cs),
(430,41,o),
(484,-11,o),
(538,-58,c),
(535,-61,l),
(441,-9,o),
(359,25,o),
(270,47,cs),
(189,67,o),
(103,76,o),
(0,76,cs),
(-21,76,o),
(-39,61,o),
(-39,38,cs),
(-39,14,o),
(-21,0,o),
(0,0,cs),
(148,0,o),
(276,-24,o),
(395,-68,cs),
(488,-102,o),
(575,-149,o),
(660,-205,cs),
(735,-254,o),
(782,-289,o),
(870,-351,cs)
);
}
);
width = 718;
},
{
anchors = (
{
name = bottom;
pos = (210,-145);
},
{
name = bottomright;
pos = (488,-232);
},
{
name = top;
pos = (272,532);
},
{
name = topright;
pos = (486,206);
}
);
layerId = "22847997-2214-411C-BF12-975F69A1246B";
shapes = (
{
closed = 1;
nodes = (
(878,-370,l),
(893,-349,l),
(826,-302,o),
(752,-242,o),
(657,-151,cs),
(606,-103,o),
(557,-52,o),
(510,0,cs),
(371,152,o),
(244,315,o),
(125,481,c),
(103,467,l),
(194,334,o),
(378,100,o),
(539,-69,cs),
(599,-132,o),
(656,-186,o),
(704,-222,c),
(702,-224,l),
(612,-164,o),
(510,-110,o),
(415,-69,cs),
(280,-11,o),
(137,25,o),
(0,25,cs),
(-19,25,o),
(-40,21,o),
(-40,13,cs),
(-40,4,o),
(-19,0,o),
(0,0,cs),
(28,0,o),
(188,0,o),
(403,-91,cs),
(511,-137,o),
(610,-191,o),
(695,-244,cs),
(750,-278,o),
(799,-313,o),
(841,-343,cs)
);
}
);
width = 671;
},
{
anchors = (
{
name = bottom;
pos = (249,-159);
},
{
name = bottomright;
pos = (509,-232);
},
{
name = top;
pos = (358,682);
},
{
name = topright;
pos = (573,355);
}
);
layerId = "54406707-D089-4649-8539-9EC6A26EE6B0";
shapes = (
{
closed = 1;
nodes = (
(973,-382,l),
(1072,-247,l),
(981,-187,o),
(902,-132,o),
(773,-19,cs),
(691,53,o),
(601,144,o),
(532,223,cs),
(403,370,o),
(294,513,o),
(211,631,c),
(53,530,l),
(120,430,o),
(202,323,o),
(303,218,cs),
(356,163,o),
(415,108,o),
(479,56,c),
(475,50,l),
(403,94,o),
(334,124,o),
(271,144,cs),
(157,180,o),
(60,185,o),
(0,185,cs),
(-24,185,o),
(-40,141,o),
(-40,92,cs),
(-40,42,o),
(-24,0,o),
(0,0,cs),
(121,0,o),
(244,-22,o),
(362,-58,cs),
(487,-96,o),
(606,-145,o),
(712,-205,cs),
(773,-239,o),
(837,-283,o),
(903,-331,cs)
);
}
);
width = 838;
}
);
note = uni0713.init;
},
{
glyphname = uni0714;
lastChange = "2022-12-15 11:31:32 +0000";
layers = (
{
anchors = (
{
name = bottom;
pos = (605,-146);
},
{
name = top;
pos = (643,586);
}
);
layerId = m01;
shapes = (
{
closed = 1;
nodes = (
(1278,-375,l),
(1324,-316,l),
(1245,-264,o),
(1170,-205,o),
(1059,-105,cs),
(997,-50,o),
(936,10,o),
(878,72,cs),
(728,231,o),
(594,403,o),
(497,536,c),
(427,496,l),
(505,386,o),
(628,227,o),
(751,93,cs),
(820,18,o),
(882,-43,o),
(958,-97,c),
(955,-100,l),
(850,-36,o),
(774,-5,o),
(685,21,cs),
(513,71,o),
(384,76,o),
(278,76,cs),
(220,76,o),
(103,69,o),
(49,58,c),
(63,-12,l),
(123,-4,o),
(223,0,o),
(293,0,cs),
(448,0,o),
(607,-28,o),
(773,-88,cs),
(871,-123,o),
(958,-167,o),
(1033,-211,cs),
(1106,-254,o),
(1168,-297,o),
(1222,-335,cs)
);
},
{
closed = 1;
nodes = (
(490,148,o),
(510,168,o),
(510,204,cs),
(510,241,o),
(491,261,o),
(458,261,cs),
(427,261,o),
(409,241,o),
(409,204,cs),
(409,164,o),
(430,148,o),
(458,148,cs)
);
}
);
width = 1091;
},
{
anchors = (
{
name = bottom;
pos = (544,-146);
},
{
name = top;
pos = (606,534);
}
);
layerId = "22847997-2214-411C-BF12-975F69A1246B";
shapes = (
{
closed = 1;
nodes = (
(1212,-370,l),
(1227,-349,l),
(1160,-302,o),
(1087,-243,o),
(991,-151,cs),
(942,-104,o),
(893,-53,o),
(844,0,cs),
(695,163,o),
(556,344,o),
(459,481,c),
(437,467,l),
(528,334,o),
(712,100,o),
(873,-69,cs),
(933,-132,o),
(990,-186,o),
(1038,-222,c),
(1036,-224,l),
(916,-142,o),
(765,-67,o),
(640,-30,cs),
(476,18,o),
(355,25,o),
(255,25,cs),
(206,25,o),
(115,19,o),
(60,11,c),
(65,-14,l),
(126,-5,o),
(216,0,o),
(278,0,cs),
(426,0,o),
(593,-30,o),
(737,-91,cs),
(845,-137,o),
(943,-191,o),
(1028,-244,cs),
(1083,-278,o),
(1133,-313,o),
(1175,-343,cs)
);
},
{
closed = 1;
nodes = (
(482,145,o),
(484,158,o),
(484,173,cs),
(484,187,o),
(482,201,o),
(460,201,cs),
(442,201,o),
(438,187,o),
(438,173,cs),
(438,158,o),
(442,145,o),
(460,145,cs)
);
}
);
width = 1005;
},
{
anchors = (
{
name = bottom;
pos = (650,-162);
},
{
name = top;
pos = (713,684);
}
);
layerId = "54406707-D089-4649-8539-9EC6A26EE6B0";
shapes = (
{
closed = 1;
nodes = (
(1378,-382,l),
(1477,-247,l),
(1386,-187,o),
(1307,-133,o),
(1178,-20,cs),
(1096,52,o),
(1006,143,o),
(937,222,cs),
(808,369,o),
(700,513,o),
(617,631,c),
(458,530,l),
(525,430,o),
(608,322,o),
(708,218,cs),
(761,162,o),
(820,108,o),
(884,56,c),
(880,50,l),
(773,109,o),
(673,142,o),
(578,160,cs),
(482,178,o),
(392,182,o),
(302,182,cs),
(245,182,o),
(118,170,o),
(38,146,c),
(65,-23,l),
(180,-3,o),
(282,0,o),
(341,0,cs),
(507,0,o),
(688,-33,o),
(857,-90,cs),
(939,-118,o),
(1026,-153,o),
(1117,-205,cs),
(1178,-240,o),
(1242,-283,o),
(1308,-331,cs)
);
},
{
closed = 1;
nodes = (
(498,230,o),
(535,249,o),
(535,297,cs),
(535,347,o),
(498,365,o),
(460,365,cs),
(422,365,o),
(386,347,o),
(386,297,cs),
(386,249,o),
(422,230,o),
(460,230,cs)
);
}
);
width = 1243;
}
);
note = uni0714;
unicode = 1812;
},
{
glyphname = uni0714.fina;
lastChange = "2022-12-15 11:42:55 +0000";
layers = (
{
anchors = (
{
name = bottom;
pos = (600,-146);
},
{
name = top;
pos = (646,586);
}
);
layerId = m01;
shapes = (
{
closed = 1;
nodes = (
(490,148,o),
(510,168,o),
(510,204,cs),
(510,241,o),
(491,261,o),
(458,261,cs),
(427,261,o),
(409,241,o),
(409,204,cs),
(409,164,o),
(430,148,o),
(458,148,cs)
);
},
{
ref = uni0713.fina;
}
);
width = 945;
},
{
anchors = (
{
name = bottom;
pos = (543,-146);
},
{
name = top;
pos = (605,532);
}
);
layerId = "22847997-2214-411C-BF12-975F69A1246B";
shapes = (
{
closed = 1;
nodes = (
(482,145,o),
(484,158,o),
(484,173,cs),
(484,187,o),
(482,201,o),
(460,201,cs),
(442,201,o),
(438,187,o),
(438,173,cs),
(438,158,o),
(442,145,o),
(460,145,cs)
);
},
{
ref = uni0713.fina;
}
);
width = 865;
},
{
anchors = (
{
name = bottom;
pos = (652,-163);
},
{
name = top;
pos = (763,682);
}
);
layerId = "54406707-D089-4649-8539-9EC6A26EE6B0";
shapes = (
{
closed = 1;
nodes = (
(498,230,o),
(535,249,o),
(535,297,cs),
(535,347,o),
(498,365,o),
(460,365,cs),
(422,365,o),
(386,347,o),
(386,297,cs),
(386,249,o),
(422,230,o),
(460,230,cs)
);
},
{
ref = uni0713.fina;
}
);
width = 1070;
}
);
note = uni0714.fina;
},
{
glyphname = uni0714.medi;
lastChange = "2022-12-15 11:43:18 +0000";
layers = (
{
anchors = (
{
name = bottom;
pos = (248,-157);
},
{
name = top;
pos = (271,586);
}
);
layerId = m01;
shapes = (
{
closed = 1;
nodes = (
(115,148,o),
(135,168,o),
(135,204,cs),
(135,241,o),
(116,261,o),
(83,261,cs),
(52,261,o),
(34,241,o),
(34,204,cs),
(34,164,o),
(55,148,o),
(83,148,cs)
);
},
{
ref = uni0713.medi;
}
);
width = 571;
},
{
anchors = (
{
name = bottom;
pos = (210,-146);
},
{
name = top;
pos = (271,534);
}
);
layerId = "22847997-2214-411C-BF12-975F69A1246B";
shapes = (
{
closed = 1;
nodes = (
(148,145,o),
(150,158,o),
(150,173,cs),
(150,187,o),
(148,201,o),
(126,201,cs),
(108,201,o),
(104,187,o),
(104,173,cs),
(104,158,o),
(108,145,o),
(126,145,cs)
);
},
{
ref = uni0713.medi;
}
);
width = 531;
},
{
anchors = (
{
name = bottom;
pos = (249,-162);
},
{
name = top;
pos = (359,682);
}
);
layerId = "54406707-D089-4649-8539-9EC6A26EE6B0";
shapes = (
{
closed = 1;
nodes = (
(93,230,o),
(130,249,o),
(130,297,cs),
(130,347,o),
(93,365,o),
(55,365,cs),
(17,365,o),
(-19,347,o),
(-19,297,cs),
(-19,249,o),
(17,230,o),
(55,230,cs)
);
},
{
ref = uni0713.medi;
}
);
width = 665;
}
);
note = uni0714.medi;
},
{
glyphname = uni0714.init;
lastChange = "2022-12-15 11:31:32 +0000";
layers = (
{
anchors = (
{
name = bottom;
pos = (249,-157);
},
{
name = top;
pos = (271,586);
}
);
layerId = m01;
shapes = (
{
closed = 1;
nodes = (
(905,-375,l),
(951,-316,l),
(872,-264,o),
(797,-205,o),
(686,-105,cs),
(623,-49,o),
(561,12,o),
(502,75,cs),
(353,234,o),
(220,403,o),
(124,536,c),
(54,496,l),
(140,376,o),
(253,228,o),
(379,95,cs),
(430,41,o),
(484,-11,o),
(538,-58,c),
(535,-61,l),
(441,-9,o),
(359,25,o),
(270,47,cs),
(189,67,o),
(103,76,o),
(0,76,cs),
(-21,76,o),
(-39,61,o),
(-39,38,cs),
(-39,14,o),
(-21,0,o),
(0,0,cs),
(148,0,o),
(276,-24,o),
(395,-68,cs),
(488,-102,o),
(575,-149,o),
(660,-205,cs),
(735,-254,o),
(782,-289,o),
(870,-351,cs)
);
},
{
closed = 1;
nodes = (
(115,148,o),
(135,168,o),
(135,204,cs),
(135,241,o),
(116,261,o),
(83,261,cs),
(52,261,o),
(34,241,o),
(34,204,cs),
(34,164,o),
(55,148,o),
(83,148,cs)
);
}
);
width = 718;
},
{
anchors = (
{
name = bottom;
pos = (212,-144);
},
{
name = top;
pos = (273,532);
}
);
layerId = "22847997-2214-411C-BF12-975F69A1246B";
shapes = (
{
closed = 1;
nodes = (
(878,-370,l),
(893,-349,l),
(826,-302,o),
(752,-244,o),
(657,-151,cs),
(607,-102,o),
(557,-52,o),
(510,0,cs),
(371,152,o),
(244,315,o),
(125,481,c),
(103,467,l),
(194,334,o),
(378,100,o),
(539,-69,cs),
(599,-132,o),
(656,-186,o),
(704,-222,c),
(702,-224,l),
(612,-164,o),
(510,-110,o),
(415,-69,cs),
(280,-11,o),
(137,25,o),
(0,25,cs),
(-19,25,o),
(-40,21,o),
(-40,13,cs),
(-40,4,o),
(-19,0,o),
(0,0,cs),
(28,0,o),
(188,0,o),
(403,-91,cs),
(511,-137,o),
(610,-191,o),
(695,-244,cs),
(751,-279,o),
(799,-313,o),
(841,-343,cs)
);
},
{
closed = 1;
nodes = (
(148,145,o),
(150,158,o),
(150,173,cs),
(150,187,o),
(148,201,o),
(126,201,cs),
(108,201,o),
(104,187,o),
(104,173,cs),
(104,158,o),
(108,145,o),
(126,145,cs)
);
}
);
width = 671;
},
{
anchors = (
{
name = bottom;
pos = (250,-163);
},
{
name = top;
pos = (360,683);
}
);
layerId = "54406707-D089-4649-8539-9EC6A26EE6B0";
shapes = (
{
closed = 1;
nodes = (
(973,-382,l),
(1072,-247,l),
(981,-187,o),
(902,-132,o),
(773,-19,cs),
(691,53,o),
(601,144,o),
(532,223,cs),
(403,370,o),
(294,513,o),
(211,631,c),
(53,530,l),
(120,430,o),
(202,323,o),
(303,218,cs),
(356,163,o),
(415,108,o),
(479,56,c),
(475,50,l),
(403,94,o),
(334,124,o),
(271,144,cs),
(157,180,o),
(60,185,o),
(0,185,cs),
(-24,185,o),
(-40,141,o),
(-40,92,cs),
(-40,42,o),
(-24,0,o),
(0,0,cs),
(121,0,o),
(244,-22,o),
(362,-58,cs),
(487,-96,o),
(606,-145,o),
(712,-205,cs),
(773,-239,o),
(837,-283,o),
(903,-331,cs)
);
},
{
closed = 1;
nodes = (
(93,230,o),
(130,249,o),
(130,297,cs),
(130,347,o),
(93,365,o),
(55,365,cs),
(17,365,o),
(-19,347,o),
(-19,297,cs),
(-19,249,o),
(17,230,o),
(55,230,cs)
);
}
);
width = 838;
}
);
note = uni0714.init;
},
{
glyphname = uni0715;
lastChange = "2022-12-15 11:31:32 +0000";
layers = (
{
anchors = (
{
name = bottom;
pos = (203,-73);
},
{
name = bottomright;
pos = (443,-106);
},
{
name = top;
pos = (201,525);
},
{
name = topright;
pos = (429,492);
}
);
layerId = m01;
shapes = (
{
closed = 1;
nodes = (
(44,353,l),
(288,353,ls),
(323,353,o),
(343,350,o),
(348,314,cs),
(393,-18,l),
(465,-18,l),
(417,345,ls),
(411,390,o),
(380,426,o),
(315,426,cs),
(44,426,l)
);
},
{
closed = 1;
nodes = (
(248,95,o),
(268,115,o),
(268,151,cs),
(268,188,o),
(249,208,o),
(216,208,cs),
(185,208,o),
(167,188,o),
(167,151,cs),
(167,111,o),
(188,95,o),
(216,95,cs)
);
}
);
width = 539;
},
{
anchors = (
{
name = bottom;
pos = (203,-73);
},
{
name = bottomright;
pos = (416,-106);
},
{
name = top;
pos = (190,476);
},
{
name = topright;
pos = (406,449);
}
);
layerId = "22847997-2214-411C-BF12-975F69A1246B";
shapes = (
{
closed = 1;
nodes = (
(54,351,l),
(294,351,ls),
(333,351,o),
(340,340,o),
(345,304,cs),
(389,-18,l),
(417,-18,l),
(369,321,ls),
(364,353,o),
(351,376,o),
(303,376,cs),
(54,376,l)
);
},
{
closed = 1;
nodes = (
(246,120,o),
(248,133,o),
(248,148,cs),
(248,162,o),
(246,176,o),
(224,176,cs),
(206,176,o),
(202,162,o),
(202,148,cs),
(202,133,o),
(206,120,o),
(224,120,cs)
);
}
);
width = 497;
},
{
anchors = (
{
name = bottom;
pos = (209,-73);
},
{
name = bottomright;
pos = (477,-106);
},
{
name = top;
pos = (234,598);
},
{
name = topright;
pos = (474,555);
}
);
layerId = "54406707-D089-4649-8539-9EC6A26EE6B0";
shapes = (
{
closed = 1;
nodes = (
(45,337,l),
(249,334,ls),
(329,333,o),
(346,326,o),
(355,246,cs),
(385,-16,l),
(545,-16,l),
(495,350,ls),
(484,433,o),
(426,502,o),
(308,502,cs),
(45,502,l)
);
},
{
closed = 1;
nodes = (
(248,62,o),
(295,86,o),
(295,146,cs),
(295,208,o),
(248,231,o),
(201,231,cs),
(153,231,o),
(108,208,o),
(108,146,cs),
(108,86,o),
(153,62,o),
(201,62,cs)
);
}
);
width = 607;
}
);
note = uni0715;
unicode = 1813;
},
{
glyphname = uni0715.fina;
lastChange = "2022-12-15 11:31:32 +0000";
layers = (
{
anchors = (
{
name = bottom;
pos = (197,-73);
},
{
name = bottomright;
pos = (437,-106);
},
{
name = top;
pos = (201,525);
},
{
name = topright;
pos = (430,492);
}
);
layerId = m01;
shapes = (
{
closed = 1;
nodes = (
(525,0,l),
(525,76,l),
(513,76,ls),
(502,76,o),
(466,76,o),
(455,79,c),
(450,91,o),
(446,115,o),
(440,165,cs),
(417,345,ls),
(411,390,o),
(380,426,o),
(315,426,cs),
(44,426,l),
(44,353,l),
(288,353,ls),
(323,353,o),
(343,350,o),
(348,314,cs),
(379,86,ls),
(388,19,o),
(418,0,o),
(467,0,cs)
);
},
{
closed = 1;
nodes = (
(242,95,o),
(262,115,o),
(262,151,cs),
(262,188,o),
(243,208,o),
(210,208,cs),
(179,208,o),
(161,188,o),
(161,151,cs),
(161,111,o),
(182,95,o),
(210,95,cs)
);
}
);
width = 525;
},
{
anchors = (
{
name = bottom;
pos = (203,-76);
},
{
name = bottomright;
pos = (416,-106);
},
{
name = top;
pos = (190,475);
},
{
name = topright;
pos = (406,449);
}
);
layerId = "22847997-2214-411C-BF12-975F69A1246B";
shapes = (
{
closed = 1;
nodes = (
(481,0,l),
(481,25,l),
(448,25,ls),
(434,25,o),
(424,26,o),
(413,28,c),
(411,31,o),
(407,53,o),
(403,79,cs),
(369,321,ls),
(364,353,o),
(351,376,o),
(303,376,cs),
(54,376,l),
(54,351,l),
(294,351,ls),
(333,351,o),
(340,340,o),
(345,304,cs),
(382,35,ls),
(386,5,o),
(396,0,o),
(431,0,cs)
);
},
{
closed = 1;
nodes = (
(251,120,o),
(253,133,o),
(253,148,cs),
(253,162,o),
(251,176,o),
(229,176,cs),
(211,176,o),
(207,162,o),
(207,148,cs),
(207,133,o),
(211,120,o),
(229,120,cs)
);
}
);
width = 481;
},
{
anchors = (
{
name = bottom;
pos = (209,-74);
},
{
name = bottomright;
pos = (476,-104);
},
{
name = top;
pos = (234,598);
},
{
name = topright;
pos = (474,555);
}
);
layerId = "54406707-D089-4649-8539-9EC6A26EE6B0";
shapes = (
{
closed = 1;
nodes = (
(617,0,l),
(617,185,l),
(606,185,ls),
(579,185,o),
(534,186,o),
(520,188,c),
(518,193,o),
(513,226,o),
(509,255,cs),
(495,350,ls),
(483,433,o),
(426,502,o),
(308,502,cs),
(45,502,l),
(45,337,l),
(249,334,ls),
(329,333,o),
(343,326,o),
(355,246,cs),
(370,143,ls),
(382,63,o),
(413,0,o),
(525,0,cs)
);
},
{
closed = 1;
nodes = (
(248,62,o),
(295,86,o),
(295,146,cs),
(295,208,o),
(248,231,o),
(201,231,cs),
(153,231,o),
(108,208,o),
(108,146,cs),
(108,86,o),
(153,62,o),
(201,62,cs)
);
}
);
width = 617;
}
);
note = uni0715.fina;
},
{
glyphname = uni0716;
lastChange = "2022-12-15 11:31:32 +0000";
layers = (
{
anchors = (
{
name = bottom;
pos = (203,-73);
},
{
name = bottomright;
pos = (443,-106);
},
{
name = top;
pos = (201,524);
},
{
name = topright;
pos = (429,492);
}
);
layerId = m01;
shapes = (
{
closed = 1;
nodes = (
(44,353,l),
(288,353,ls),
(323,353,o),
(343,350,o),
(348,314,cs),
(393,-18,l),
(465,-18,l),
(417,345,ls),
(411,390,o),
(380,426,o),
(315,426,cs),
(44,426,l)
);
}
);
width = 539;
},
{
anchors = (
{
name = bottom;
pos = (203,-73);
},
{
name = bottomright;
pos = (417,-106);
},
{
name = top;
pos = (190,475);
},
{
name = topright;
pos = (406,449);
}
);
layerId = "22847997-2214-411C-BF12-975F69A1246B";
shapes = (
{
closed = 1;
nodes = (
(54,351,l),
(294,351,ls),
(333,351,o),
(340,340,o),
(345,304,cs),
(389,-18,l),
(417,-18,l),
(369,321,ls),
(364,353,o),
(351,376,o),
(303,376,cs),
(54,376,l)
);
}
);
width = 497;
},
{
anchors = (
{
name = bottom;
pos = (203,-73);
},
{
name = bottomright;
pos = (470,-105);
},
{
name = top;
pos = (228,598);
},
{
name = topright;
pos = (468,555);
}
);
layerId = "54406707-D089-4649-8539-9EC6A26EE6B0";
shapes = (
{
closed = 1;
nodes = (
(39,337,l),
(243,334,ls),
(323,333,o),
(340,326,o),
(349,246,cs),
(379,-16,l),
(539,-16,l),
(489,350,ls),
(478,433,o),
(420,502,o),
(302,502,cs),
(39,502,l)
);
}
);
width = 601;
}
);
note = uni0716;
unicode = 1814;
},
{
glyphname = uni0716.fina;
lastChange = "2022-12-15 11:31:32 +0000";
layers = (
{
anchors = (
{
name = bottom;
pos = (197,-73);
},
{
name = bottomright;
pos = (437,-106);
},
{
name = top;
pos = (201,523);
},
{
name = topright;
pos = (429,492);
}
);
layerId = m01;
shapes = (
{
closed = 1;
nodes = (
(525,0,l),
(525,76,l),
(513,76,ls),
(502,76,o),
(466,76,o),
(455,79,c),
(450,91,o),
(446,115,o),
(440,165,cs),
(417,345,ls),
(411,390,o),
(380,426,o),
(315,426,cs),
(44,426,l),
(44,353,l),
(288,353,ls),
(323,353,o),
(343,350,o),
(348,314,cs),
(379,86,ls),
(388,19,o),
(418,0,o),
(467,0,cs)
);
}
);
width = 525;
},
{
anchors = (
{
name = bottom;
pos = (202,-74);
},
{
name = bottomright;
pos = (417,-106);
},
{
name = top;
pos = (190,475);
},
{
name = topright;
pos = (406,449);
}
);
layerId = "22847997-2214-411C-BF12-975F69A1246B";
shapes = (
{
closed = 1;
nodes = (
(481,0,l),
(481,25,l),
(448,25,ls),
(434,25,o),
(424,26,o),
(413,28,c),
(411,31,o),
(407,53,o),
(403,79,cs),
(369,321,ls),
(364,353,o),
(351,376,o),
(303,376,cs),
(54,376,l),
(54,351,l),
(294,351,ls),
(333,351,o),
(340,340,o),
(345,304,cs),
(382,35,ls),
(386,5,o),
(396,0,o),
(431,0,cs)
);
}
);
width = 481;
},
{
anchors = (
{
name = bottom;
pos = (203,-72);
},
{
name = bottomright;
pos = (469,-104);
},
{
name = top;
pos = (228,598);
},
{
name = topright;
pos = (468,555);
}
);
layerId = "54406707-D089-4649-8539-9EC6A26EE6B0";
shapes = (
{
closed = 1;
nodes = (
(611,0,l),
(611,185,l),
(600,185,ls),
(573,185,o),
(528,186,o),
(514,188,c),
(512,193,o),
(507,226,o),
(503,255,cs),
(489,350,ls),
(477,433,o),
(420,502,o),
(302,502,cs),
(39,502,l),
(39,337,l),
(243,334,ls),
(323,333,o),
(337,326,o),
(349,246,cs),
(364,143,ls),
(376,63,o),
(407,0,o),
(519,0,cs)
);
}
);
width = 611;
}
);
note = uni0716.fina;
},
{
glyphname = uni0717;
lastChange = "2022-12-15 11:44:11 +0000";
layers = (
{
anchors = (
{
name = bottom;
pos = (474,-97);
},
{
name = top;
pos = (464,540);
}
);
layerId = m01;
shapes = (
{
closed = 1;
nodes = (
(671,75,o),
(663,75,o),
(646,76,c),
(643,2,l),
(653,0,o),
(664,0,o),
(667,0,cs),
(838,0,o),
(861,116,o),
(861,195,cs),
(861,334,o),
(809,436,o),
(649,436,cs),
(608,436,o),
(559,426,o),
(498,426,cs),
(437,426,o),
(394,437,o),
(312,437,cs),
(164,437,o),
(68,358,o),
(68,225,cs),
(68,102,o),
(125,33,o),
(231,-8,c),
(264,57,l),
(187,89,o),
(142,131,o),
(142,216,cs),
(142,334,o),
(229,365,o),
(333,365,cs),
(370,365,o),
(420,362,o),
(458,354,c),
(361,5,l),
(426,-6,l),
(535,353,l),
(561,357,o),
(598,362,o),
(643,362,cs),
(749,362,o),
(788,312,o),
(788,198,cs),
(788,137,o),
(777,75,o),
(676,75,cs)
);
}
);
width = 930;
},
{
anchors = (
{
name = bottom;
pos = (445,-97);
},
{
name = top;
pos = (439,490);
}
);
layerId = "22847997-2214-411C-BF12-975F69A1246B";
shapes = (
{
closed = 1;
nodes = (
(625,24,o),
(623,24,o),
(622,24,c),
(620,0,l),
(622,0,o),
(623,0,o),
(625,0,cs),
(767,0,o),
(792,103,o),
(792,173,cs),
(792,298,o),
(738,384,o),
(601,384,cs),
(539,384,o),
(506,376,o),
(458,376,cs),
(430,376,o),
(348,387,o),
(290,387,cs),
(156,387,o),
(78,315,o),
(78,202,cs),
(78,98,o),
(118,35,o),
(202,-3,c),
(212,18,l),
(142,53,o),
(104,107,o),
(104,197,cs),
(104,323,o),
(195,362,o),
(295,362,cs),
(344,362,o),
(432,354,o),
(459,351,c),
(356,1,l),
(381,-4,l),
(485,351,l),
(515,356,o),
(557,359,o),
(595,359,cs),
(712,359,o),
(766,302,o),
(766,174,cs),
(766,95,o),
(739,24,o),
(626,24,cs)
);
}
);
width = 871;
},
{
anchors = (
{
name = bottom;
pos = (508,-96);
},
{
name = top;
pos = (528,616);
}
);
layerId = "54406707-D089-4649-8539-9EC6A26EE6B0";
shapes = (
{
closed = 1;
nodes = (
(682,160,o),
(671,161,o),
(660,163,c),
(649,6,l),
(669,1,o),
(692,0,o),
(701,0,cs),
(907,0,o),
(941,163,o),
(941,235,cs),
(941,385,o),
(900,513,o),
(712,513,cs),
(657,513,o),
(588,502,o),
(549,502,cs),
(490,502,o),
(436,513,o),
(341,513,cs),
(197,513,o),
(63,430,o),
(63,244,cs),
(63,118,o),
(141,28,o),
(272,-9,c),
(329,148,l),
(268,165,o),
(224,199,o),
(224,257,cs),
(224,312,o),
(268,347,o),
(337,347,cs),
(367,347,o),
(418,342,o),
(451,333,c),
(365,19,l),
(513,-5,l),
(616,333,l),
(641,344,o),
(677,347,o),
(697,347,cs),
(765,347,o),
(781,304,o),
(781,246,cs),
(781,188,o),
(750,160,o),
(692,160,cs)
);
}
);
width = 997;
}
);
note = uni0717;
unicode = 1815;
},
{
glyphname = uni0717.fina;
lastChange = "2022-12-15 11:54:46 +0000";
layers = (
{
anchors = (
{
name = bottom;
pos = (474,-97);
},
{
name = top;
pos = (465,540);
}
);
layerId = m01;
shapes = (
{
closed = 1;
nodes = (
(942,0,l),
(942,76,l),
(824,76,l),
(824,79,l),
(853,106,o),
(861,155,o),
(861,195,cs),
(861,334,o),
(809,436,o),
(649,436,cs),
(608,436,o),
(559,426,o),
(498,426,cs),
(437,426,o),
(394,437,o),
(312,437,cs),
(164,437,o),
(68,358,o),
(68,225,cs),
(68,102,o),
(125,33,o),
(231,-8,c),
(264,57,l),
(187,89,o),
(142,131,o),
(142,216,cs),
(142,334,o),
(229,365,o),
(333,365,cs),
(370,365,o),
(420,362,o),
(458,354,c),
(361,5,l),
(426,-6,l),
(535,353,l),
(561,357,o),
(598,362,o),
(643,362,cs),
(749,362,o),
(788,312,o),
(788,198,cs),
(788,135,o),
(777,72,o),
(673,72,cs),
(671,72,o),
(657,72,o),
(646,73,c),
(643,2,l),
(653,0,o),
(727,0,o),
(730,0,cs)
);
}
);
width = 942;
},
{
anchors = (
{
name = bottom;
pos = (445,-97);
},
{
name = top;
pos = (439,490);
}
);
layerId = "22847997-2214-411C-BF12-975F69A1246B";
shapes = (
{
closed = 1;
nodes = (
(883,0,l),
(883,25,l),
(723,25,l),
(723,27,l),
(776,58,o),
(792,119,o),
(792,173,cs),
(792,298,o),
(738,384,o),
(601,384,cs),
(539,384,o),
(506,376,o),
(458,376,cs),
(430,376,o),
(348,387,o),
(290,387,cs),
(156,387,o),
(78,315,o),
(78,202,cs),
(78,98,o),
(118,35,o),
(202,-3,c),
(212,18,l),
(142,53,o),
(104,107,o),
(104,197,cs),
(104,323,o),
(195,362,o),
(295,362,cs),
(344,362,o),
(432,354,o),
(459,351,c),
(356,1,l),
(381,-4,l),
(485,351,l),
(515,356,o),
(557,359,o),
(595,359,cs),
(712,359,o),
(766,302,o),
(766,174,cs),
(766,100,o),
(741,24,o),
(633,24,cs),
(629,24,o),
(626,24,o),
(622,24,c),
(620,1,l),
(638,0,o),
(659,0,o),
(673,0,cs)
);
}
);
width = 883;
},
{
anchors = (
{
name = bottom;
pos = (508,-97);
},
{
name = top;
pos = (528,615);
}
);
layerId = "54406707-D089-4649-8539-9EC6A26EE6B0";
shapes = (
{
closed = 1;
nodes = (
(1014,0,l),
(1014,185,l),
(932,185,l),
(932,187,l),
(938,203,o),
(941,230,o),
(941,246,cs),
(941,387,o),
(900,513,o),
(712,513,cs),
(657,513,o),
(588,502,o),
(549,502,cs),
(490,502,o),
(436,513,o),
(341,513,cs),
(197,513,o),
(63,430,o),
(63,244,cs),
(63,118,o),
(141,28,o),
(272,-9,c),
(329,148,l),
(268,165,o),
(224,200,o),
(224,258,cs),
(224,313,o),
(268,347,o),
(337,347,cs),
(367,347,o),
(418,342,o),
(451,333,c),
(365,19,l),
(513,-5,l),
(616,333,l),
(641,344,o),
(677,347,o),
(697,347,cs),
(765,347,o),
(781,304,o),
(781,246,cs),
(781,187,o),
(748,160,o),
(692,160,cs),
(682,160,o),
(672,161,o),
(660,163,c),
(649,6,l),
(669,1,o),
(742,0,o),
(751,0,cs)
);
}
);
width = 1014;
}
);
note = uni0717.fina;
},
{
glyphname = uni0718;
lastChange = "2022-12-15 11:31:32 +0000";
layers = (
{
anchors = (
{
name = bottom;
pos = (316,-98);
},
{
name = top;
pos = (278,537);
}
);
layerId = m01;
shapes = (
{
closed = 1;
nodes = (
(545,-9,l),
(531,93,o),
(515,169,o),
(501,230,cs),
(468,371,o),
(419,436,o),
(294,436,cs),
(167,436,o),
(68,319,o),
(68,195,cs),
(68,56,o),
(163,-9,o),
(283,-9,cs),
(326,-9,o),
(363,-5,o),
(396,9,c),
(375,74,l),
(347,66,o),
(329,64,o),
(292,64,cs),
(209,64,o),
(142,100,o),
(142,197,cs),
(142,284,o),
(204,362,o),
(297,362,cs),
(380,362,o),
(405,315,o),
(429,220,cs),
(445,156,o),
(461,63,o),
(473,-9,c)
);
}
);
width = 610;
},
{
anchors = (
{
name = bottom;
pos = (291,-98);
},
{
name = top;
pos = (262,487);
}
);
layerId = "22847997-2214-411C-BF12-975F69A1246B";
shapes = (
{
closed = 1;
nodes = (
(488,-9,l),
(479,61,o),
(463,146,o),
(451,200,cs),
(422,327,o),
(380,386,o),
(272,386,cs),
(156,386,o),
(78,285,o),
(78,171,cs),
(78,50,o),
(158,-9,o),
(265,-9,cs),
(295,-9,o),
(330,-6,o),
(353,1,c),
(347,24,l),
(326,18,o),
(298,16,o),
(274,16,cs),
(183,16,o),
(104,55,o),
(104,172,cs),
(104,273,o),
(172,361,o),
(274,361,cs),
(368,361,o),
(397,310,o),
(423,202,cs),
(439,137,o),
(451,63,o),
(462,-9,c)
);
}
);
width = 563;
},
{
anchors = (
{
name = bottom;
pos = (364,-98);
},
{
name = top;
pos = (321,613);
}
);
layerId = "54406707-D089-4649-8539-9EC6A26EE6B0";
shapes = (
{
closed = 1;
nodes = (
(643,-9,l),
(627,102,o),
(610,208,o),
(591,280,cs),
(549,439,o),
(485,512,o),
(333,512,cs),
(194,512,o),
(68,380,o),
(68,223,cs),
(68,56,o),
(168,-9,o),
(303,-9,cs),
(342,-9,o),
(392,-1,o),
(412,12,c),
(386,162,l),
(364,153,o),
(336,147,o),
(319,147,cs),
(259,147,o),
(223,183,o),
(223,237,cs),
(223,285,o),
(270,345,o),
(337,345,cs),
(394,345,o),
(426,308,o),
(442,239,cs),
(455,183,o),
(475,70,o),
(485,-9,c)
);
}
);
width = 696;
}
);
note = uni0718;
unicode = 1816;
},
{
glyphname = uni0718.fina;
lastChange = "2022-12-15 11:31:32 +0000";
layers = (
{
anchors = (
{
name = bottom;
pos = (316,-98);
},
{
name = top;
pos = (278,537);
}
);
layerId = m01;
shapes = (
{
closed = 1;
nodes = (
(598,0,l),
(598,76,l),
(586,76,ls),
(575,76,o),
(548,76,o),
(536,79,c),
(531,91,o),
(525,118,o),
(501,231,cs),
(471,372,o),
(419,436,o),
(294,436,cs),
(167,436,o),
(68,319,o),
(68,195,cs),
(68,56,o),
(163,-9,o),
(283,-9,cs),
(326,-9,o),
(363,-5,o),
(396,9,c),
(375,74,l),
(347,66,o),
(329,64,o),
(292,64,cs),
(209,64,o),
(142,100,o),
(142,197,cs),
(142,284,o),
(204,362,o),
(297,362,cs),
(380,362,o),
(408,313,o),
(429,217,cs),
(439,173,o),
(448,129,o),
(458,85,cs),
(473,18,o),
(501,0,o),
(550,0,cs)
);
}
);
width = 598;
},
{
anchors = (
{
name = bottom;
pos = (291,-97);
},
{
name = top;
pos = (263,486);
}
);
layerId = "22847997-2214-411C-BF12-975F69A1246B";
shapes = (
{
closed = 1;
nodes = (
(551,0,l),
(551,25,l),
(522,25,ls),
(508,25,o),
(498,26,o),
(487,28,c),
(481,37,o),
(459,166,o),
(451,200,cs),
(422,327,o),
(380,386,o),
(272,386,cs),
(156,386,o),
(78,285,o),
(78,171,cs),
(78,50,o),
(158,-9,o),
(265,-9,cs),
(295,-9,o),
(330,-6,o),
(353,1,c),
(347,24,l),
(326,18,o),
(298,16,o),
(274,16,cs),
(183,16,o),
(104,55,o),
(104,172,cs),
(104,273,o),
(172,361,o),
(274,361,cs),
(368,361,o),
(397,310,o),
(423,202,cs),
(439,137,o),
(444,96,o),
(456,37,cs),
(462,7,o),
(472,0,o),
(507,0,cs)
);
}
);
width = 551;
},
{
anchors = (
{
name = bottom;
pos = (364,-98);
},
{
name = top;
pos = (321,613);
}
);
layerId = "54406707-D089-4649-8539-9EC6A26EE6B0";
shapes = (
{
closed = 1;
nodes = (
(702,0,l),
(702,185,l),
(695,185,ls),
(668,185,o),
(623,186,o),
(609,188,c),
(606,193,o),
(600,226,o),
(591,269,cs),
(557,430,o),
(485,512,o),
(333,512,cs),
(194,512,o),
(68,380,o),
(68,223,cs),
(68,56,o),
(168,-9,o),
(303,-9,cs),
(342,-9,o),
(392,-1,o),
(412,12,c),
(386,162,l),
(364,153,o),
(336,147,o),
(319,147,cs),
(259,147,o),
(223,183,o),
(223,237,cs),
(223,285,o),
(270,345,o),
(337,345,cs),
(394,345,o),
(426,308,o),
(442,239,cs),
(450,205,o),
(457,171,o),
(465,137,cs),
(483,57,o),
(512,0,o),
(624,0,cs)
);
}
);
width = 702;
}
);
note = uni0718.fina;
},
{
glyphname = uni0719;
lastChange = "2022-12-15 11:31:32 +0000";
layers = (
{
anchors = (
{
name = bottom;
pos = (152,-138);
},
{
name = top;
pos = (88,537);
}
);
layerId = m01;
shapes = (
{
closed = 1;
nodes = (
(209,-37,l),
(196,106,o),
(160,318,o),
(141,426,c),
(68,417,l),
(87,318,o),
(121,107,o),
(137,-37,c)
);
}
);
width = 275;
},
{
anchors = (
{
name = bottom;
pos = (143,-138);
},
{
name = top;
pos = (73,487);
}
);
layerId = "22847997-2214-411C-BF12-975F69A1246B";
shapes = (
{
closed = 1;
nodes = (
(162,-37,l),
(149,91,o),
(123,267,o),
(105,373,c),
(78,370,l),
(97,266,o),
(122,95,o),
(136,-37,c)
);
}
);
width = 238;
},
{
anchors = (
{
name = bottom;
pos = (187,-138);
},
{
name = top;
pos = (114,601);
}
);
layerId = "54406707-D089-4649-8539-9EC6A26EE6B0";
shapes = (
{
closed = 1;
nodes = (
(293,-37,l),
(274,103,o),
(233,400,o),
(218,498,c),
(51,476,l),
(69,377,o),
(107,121,o),
(129,-37,c)
);
}
);
width = 351;
}
);
note = uni0719;
unicode = 1817;
},
{
glyphname = uni0719.fina;
lastChange = "2022-12-15 11:31:32 +0000";
layers = (
{
anchors = (
{
name = bottom;
pos = (151,-137);
},
{
name = top;
pos = (88,537);
}
);
layerId = m01;
shapes = (
{
closed = 1;
nodes = (
(277,0,l),
(277,76,l),
(255,76,ls),
(237,76,o),
(196,77,o),
(191,111,cs),
(175,228,o),
(154,352,o),
(141,426,c),
(68,417,l),
(87,318,o),
(122,102,o),
(138,-42,c),
(208,-42,l),
(206,-23,o),
(204,-3,o),
(201,18,c),
(206,18,l),
(218,6,o),
(239,0,o),
(263,0,cs)
);
}
);
width = 277;
},
{
anchors = (
{
name = bottom;
pos = (143,-140);
},
{
name = top;
pos = (74,486);
}
);
layerId = "22847997-2214-411C-BF12-975F69A1246B";
shapes = (
{
closed = 1;
nodes = (
(239,0,l),
(239,25,l),
(233,25,ls),
(209,25,o),
(155,26,o),
(148,82,cs),
(134,187,o),
(118,297,o),
(105,373,c),
(78,370,l),
(97,266,o),
(122,95,o),
(136,-37,c),
(162,-37,l),
(160,-17,o),
(158,3,o),
(155,24,c),
(157,24,l),
(167,12,o),
(188,0,o),
(233,0,cs)
);
}
);
width = 239;
},
{
anchors = (
{
name = bottom;
pos = (189,-137);
},
{
name = top;
pos = (115,601);
}
);
layerId = "54406707-D089-4649-8539-9EC6A26EE6B0";
shapes = (
{
closed = 1;
nodes = (
(360,0,l),
(360,185,l),
(340,185,ls),
(283,185,o),
(257,211,o),
(253,238,cs),
(237,349,o),
(228,435,o),
(218,498,c),
(51,476,l),
(69,377,o),
(117,109,o),
(136,-51,c),
(290,-51,l),
(289,-38,o),
(282,8,o),
(279,27,c),
(282,27,l),
(301,4,o),
(340,0,o),
(358,0,cs)
);
}
);
width = 360;
}
);
note = uni0719.fina;
},
{
glyphname = uni071A;
lastChange = "2022-12-15 11:31:32 +0000";
layers = (
{
anchors = (
{
name = bottom;
pos = (481,-98);
},
{
name = top;
pos = (432,458);
}
);
layerId = m01;
shapes = (
{
closed = 1;
nodes = (
(572,0,o),
(632,39,o),
(632,133,cs),
(632,187,o),
(620,265,o),
(605,311,cs),
(594,346,o),
(581,348,o),
(568,348,cs),
(549,348,o),
(530,338,o),
(530,310,cs),
(530,268,o),
(548,173,o),
(569,109,c),
(565,86,o),
(528,76,o),
(490,76,cs),
(445,76,o),
(402,85,o),
(389,123,c),
(389,162,o),
(378,260,o),
(363,311,cs),
(354,343,o),
(341,346,o),
(329,346,cs),
(306,346,o),
(288,336,o),
(288,304,cs),
(288,264,o),
(301,164,o),
(325,106,c),
(303,80,o),
(244,76,o),
(222,76,cs),
(173,76,o),
(125,88,o),
(94,132,c),
(49,89,l),
(68,41,o),
(137,0,o),
(219,0,cs),
(296,0,o),
(339,24,o),
(359,44,c),
(389,11,o),
(430,0,o),
(488,0,cs)
);
}
);
width = 701;
},
{
anchors = (
{
name = bottom;
pos = (453,-98);
},
{
name = top;
pos = (412,408);
}
);
layerId = "22847997-2214-411C-BF12-975F69A1246B";
shapes = (
{
closed = 1;
nodes = (
(501,0,o),
(570,9,o),
(570,91,cs),
(570,135,o),
(556,231,o),
(543,271,cs),
(538,286,o),
(534,287,o),
(528,287,cs),
(519,287,o),
(516,281,o),
(516,271,cs),
(516,253,o),
(538,147,o),
(546,70,c),
(537,35,o),
(496,25,o),
(447,25,cs),
(410,25,o),
(364,32,o),
(347,68,c),
(344,117,o),
(328,237,o),
(318,270,cs),
(313,287,o),
(310,288,o),
(303,288,cs),
(295,288,o),
(290,283,o),
(290,270,cs),
(290,245,o),
(304,147,o),
(323,63,c),
(304,31,o),
(249,25,o),
(214,25,cs),
(169,25,o),
(107,40,o),
(78,91,c),
(60,73,l),
(81,30,o),
(141,0,o),
(212,0,cs),
(282,0,o),
(314,16,o),
(335,39,c),
(362,8,o),
(404,0,o),
(444,0,cs)
);
}
);
width = 644;
},
{
anchors = (
{
name = bottom;
pos = (553,-98);
},
{
name = top;
pos = (503,552);
}
);
layerId = "54406707-D089-4649-8539-9EC6A26EE6B0";
shapes = (
{
closed = 1;
nodes = (
(717,-5,o),
(765,117,o),
(765,217,cs),
(765,251,o),
(765,306,o),
(748,369,cs),
(727,446,o),
(691,452,o),
(667,452,cs),
(627,452,o),
(578,433,o),
(578,366,cs),
(578,310,o),
(592,233,o),
(604,195,c),
(592,185,o),
(571,181,o),
(552,181,cs),
(526,181,o),
(500,189,o),
(488,205,c),
(488,255,o),
(484,322,o),
(469,371,cs),
(449,435,o),
(416,441,o),
(395,441,cs),
(345,441,o),
(305,422,o),
(305,349,cs),
(305,304,o),
(312,253,o),
(332,198,c),
(320,185,o),
(287,180,o),
(271,180,cs),
(218,180,o),
(180,199,o),
(147,235,c),
(38,120,l),
(71,46,o),
(156,-5,o),
(261,-5,cs),
(317,-5,o),
(378,11,o),
(418,42,c),
(463,3,o),
(511,-5,o),
(562,-5,cs)
);
}
);
width = 833;
}
);
note = uni071A;
unicode = 1818;
},
{
glyphname = uni071A.fina;
lastChange = "2022-12-15 11:31:32 +0000";
layers = (
{
anchors = (
{
name = bottom;
pos = (480,-99);
},
{
name = top;
pos = (434,458);
}
);
layerId = m01;
shapes = (
{
closed = 1;
nodes = (
(296,0,o),
(339,24,o),
(359,44,c),
(389,11,o),
(430,0,o),
(488,0,cs),
(538,0,o),
(588,19,o),
(610,44,c),
(633,16,o),
(681,0,o),
(727,0,c),
(727,76,l),
(697,76,o),
(649,90,o),
(637,120,c),
(637,131,ls),
(637,185,o),
(620,265,o),
(605,311,cs),
(594,346,o),
(581,348,o),
(568,348,cs),
(549,348,o),
(530,338,o),
(530,310,cs),
(530,267,o),
(546,169,o),
(569,109,c),
(564,85,o),
(527,76,o),
(490,76,cs),
(445,76,o),
(402,85,o),
(389,123,c),
(389,162,o),
(378,260,o),
(363,311,cs),
(354,343,o),
(341,346,o),
(329,346,cs),
(306,346,o),
(288,336,o),
(288,304,cs),
(288,264,o),
(301,164,o),
(325,106,c),
(303,80,o),
(244,76,o),
(222,76,cs),
(173,76,o),
(125,88,o),
(94,132,c),
(49,89,l),
(68,41,o),
(137,0,o),
(219,0,cs)
);
}
);
width = 727;
},
{
anchors = (
{
name = bottom;
pos = (454,-99);
},
{
name = top;
pos = (413,407);
}
);
layerId = "22847997-2214-411C-BF12-975F69A1246B";
shapes = (
{
closed = 1;
nodes = (
(282,0,o),
(314,16,o),
(335,39,c),
(362,8,o),
(404,0,o),
(444,0,cs),
(483,0,o),
(539,4,o),
(562,42,c),
(586,10,o),
(632,0,o),
(681,0,c),
(681,25,l),
(627,25,o),
(585,38,o),
(570,79,c),
(570,83,ls),
(568,119,o),
(557,237,o),
(547,270,cs),
(542,287,o),
(538,288,o),
(531,288,cs),
(523,288,o),
(519,283,o),
(519,270,cs),
(519,245,o),
(528,148,o),
(547,64,c),
(537,33,o),
(496,25,o),
(447,25,cs),
(410,25,o),
(364,32,o),
(347,68,c),
(344,117,o),
(328,237,o),
(318,270,cs),
(313,287,o),
(310,288,o),
(303,288,cs),
(295,288,o),
(290,283,o),
(290,270,cs),
(290,245,o),
(304,147,o),
(323,63,c),
(304,31,o),
(249,25,o),
(214,25,cs),
(169,25,o),
(107,40,o),
(78,91,c),
(60,73,l),
(81,30,o),
(141,0,o),
(212,0,cs)
);
}
);
width = 681;
},
{
anchors = (
{
name = bottom;
pos = (553,-99);
},
{
name = top;
pos = (503,552);
}
);
layerId = "54406707-D089-4649-8539-9EC6A26EE6B0";
shapes = (
{
closed = 1;
nodes = (
(317,-5,o),
(378,9,o),
(418,41,c),
(463,2,o),
(511,-5,o),
(562,-5,cs),
(614,-5,o),
(667,8,o),
(704,41,c),
(740,12,o),
(792,0,o),
(852,0,c),
(852,185,l),
(819,185,o),
(778,192,o),
(765,208,c),
(765,217,ls),
(765,251,o),
(765,308,o),
(748,369,cs),
(727,446,o),
(691,452,o),
(667,452,cs),
(627,452,o),
(578,433,o),
(578,366,cs),
(578,310,o),
(592,233,o),
(604,195,c),
(594,185,o),
(571,181,o),
(552,181,cs),
(526,181,o),
(500,189,o),
(488,205,c),
(488,255,o),
(484,322,o),
(469,371,cs),
(449,435,o),
(416,441,o),
(395,441,cs),
(345,441,o),
(305,422,o),
(305,349,cs),
(305,304,o),
(312,253,o),
(332,198,c),
(320,185,o),
(287,180,o),
(271,180,cs),
(218,180,o),
(180,199,o),
(147,235,c),
(38,120,l),
(71,46,o),
(156,-5,o),
(261,-5,cs)
);
}
);
width = 852;
}
);
note = uni071A.fina;
},
{
glyphname = uni071A.medi;
lastChange = "2022-12-15 11:31:32 +0000";
layers = (
{
anchors = (
{
name = bottom;
pos = (302,-98);
},
{
name = top;
pos = (242,458);
}
);
layerId = m01;
shapes = (
{
closed = 1;
nodes = (
(541,76,l),
(511,76,o),
(463,90,o),
(451,120,c),
(451,131,ls),
(451,185,o),
(434,265,o),
(419,311,cs),
(408,346,o),
(395,348,o),
(382,348,cs),
(363,348,o),
(344,338,o),
(344,310,cs),
(344,267,o),
(360,169,o),
(383,109,c),
(378,85,o),
(341,76,o),
(304,76,cs),
(259,76,o),
(216,85,o),
(203,123,c),
(203,162,o),
(192,260,o),
(177,311,cs),
(168,343,o),
(155,346,o),
(143,346,cs),
(120,346,o),
(102,336,o),
(102,304,cs),
(102,264,o),
(115,164,o),
(139,106,c),
(117,80,o),
(67,76,o),
(20,76,cs),
(0,76,ls),
(-21,76,o),
(-39,61,o),
(-39,38,cs),
(-39,14,o),
(-21,0,o),
(0,0,cs),
(19,0,ls),
(109,0,o),
(153,24,o),
(173,44,c),
(201,12,o),
(244,0,o),
(302,0,cs),
(352,0,o),
(402,19,o),
(424,44,c),
(447,16,o),
(495,0,o),
(541,0,c)
);
}
);
width = 541;
},
{
anchors = (
{
name = bottom;
pos = (279,-98);
},
{
name = top;
pos = (238,409);
}
);
layerId = "22847997-2214-411C-BF12-975F69A1246B";
shapes = (
{
closed = 1;
nodes = (
(507,25,l),
(453,25,o),
(411,38,o),
(396,79,c),
(396,83,ls),
(394,119,o),
(383,237,o),
(373,270,cs),
(368,287,o),
(364,288,o),
(357,288,cs),
(349,288,o),
(345,283,o),
(345,270,cs),
(345,245,o),
(354,148,o),
(373,64,c),
(363,33,o),
(322,25,o),
(273,25,cs),
(236,25,o),
(190,32,o),
(173,68,c),
(170,117,o),
(154,237,o),
(144,270,cs),
(139,287,o),
(136,288,o),
(129,288,cs),
(121,288,o),
(116,283,o),
(116,270,cs),
(116,245,o),
(130,147,o),
(149,63,c),
(129,29,o),
(65,25,o),
(12,25,cs),
(0,25,ls),
(-19,25,o),
(-40,21,o),
(-40,13,cs),
(-40,4,o),
(-19,0,o),
(0,0,cs),
(17,0,ls),
(102,0,o),
(141,18,o),
(161,39,c),
(188,8,o),
(230,0,o),
(270,0,cs),
(309,0,o),
(365,4,o),
(388,42,c),
(412,10,o),
(458,0,o),
(507,0,c)
);
}
);
width = 507;
},
{
anchors = (
{
name = bottom;
pos = (345,-98);
},
{
name = top;
pos = (303,551);
}
);
layerId = "54406707-D089-4649-8539-9EC6A26EE6B0";
shapes = (
{
closed = 1;
nodes = (
(644,185,l),
(611,185,o),
(570,187,o),
(557,203,c),
(557,217,ls),
(557,251,o),
(557,307,o),
(540,369,cs),
(519,446,o),
(483,452,o),
(459,452,cs),
(419,452,o),
(370,433,o),
(370,366,cs),
(370,310,o),
(384,233,o),
(396,195,c),
(384,185,o),
(363,181,o),
(344,181,cs),
(318,181,o),
(292,186,o),
(280,202,c),
(280,252,o),
(276,322,o),
(261,371,cs),
(241,435,o),
(208,441,o),
(187,441,cs),
(137,441,o),
(97,422,o),
(97,349,cs),
(97,304,o),
(102,257,o),
(122,202,c),
(110,190,o),
(54,185,o),
(14,185,cs),
(0,185,ls),
(-24,185,o),
(-40,141,o),
(-40,92,cs),
(-40,42,o),
(-24,0,o),
(0,0,cs),
(13,0,ls),
(93,0,o),
(147,9,o),
(206,41,c),
(255,0,o),
(295,-5,o),
(346,-5,cs),
(406,-5,o),
(459,9,o),
(496,41,c),
(532,12,o),
(584,0,o),
(644,0,c)
);
}
);
width = 644;
}
);
note = uni071A.medi;
},
{
glyphname = uni071A.init;
lastChange = "2022-12-15 11:31:32 +0000";
layers = (
{
anchors = (
{
name = bottom;
pos = (303,-98);
},
{
name = top;
pos = (242,459);
}
);
layerId = m01;
shapes = (
{
closed = 1;
nodes = (
(19,0,ls),
(109,0,o),
(153,24,o),
(173,44,c),
(201,12,o),
(244,0,o),
(302,0,cs),
(386,0,o),
(446,39,o),
(446,133,cs),
(446,187,o),
(434,265,o),
(419,311,cs),
(408,346,o),
(395,348,o),
(382,348,cs),
(363,348,o),
(344,338,o),
(344,310,cs),
(344,268,o),
(362,173,o),
(383,109,c),
(379,86,o),
(342,76,o),
(304,76,cs),
(259,76,o),
(217,84,o),
(203,123,c),
(203,162,o),
(192,260,o),
(177,311,cs),
(168,343,o),
(155,346,o),
(143,346,cs),
(120,346,o),
(102,336,o),
(102,304,cs),
(102,264,o),
(115,164,o),
(139,106,c),
(117,80,o),
(67,76,o),
(20,76,cs),
(0,76,ls),
(-21,76,o),
(-39,61,o),
(-39,38,cs),
(-39,14,o),
(-21,0,o),
(0,0,cs)
);
}
);
width = 514;
},
{
anchors = (
{
name = bottom;
pos = (280,-98);
},
{
name = top;
pos = (238,407);
}
);
layerId = "22847997-2214-411C-BF12-975F69A1246B";
shapes = (
{
closed = 1;
nodes = (
(17,0,ls),
(102,0,o),
(139,22,o),
(160,45,c),
(182,13,o),
(230,0,o),
(270,0,cs),
(327,0,o),
(396,9,o),
(396,91,cs),
(396,135,o),
(382,231,o),
(369,271,cs),
(364,286,o),
(360,287,o),
(354,287,cs),
(345,287,o),
(342,281,o),
(342,271,cs),
(342,253,o),
(364,147,o),
(372,70,c),
(363,35,o),
(322,25,o),
(273,25,cs),
(231,25,o),
(191,33,o),
(172,74,c),
(169,123,o),
(154,237,o),
(144,270,cs),
(139,287,o),
(136,288,o),
(129,288,cs),
(121,288,o),
(116,283,o),
(116,270,cs),
(116,245,o),
(129,153,o),
(148,69,c),
(128,32,o),
(65,25,o),
(12,25,cs),
(0,25,ls),
(-19,25,o),
(-40,21,o),
(-40,13,cs),
(-40,4,o),
(-19,0,o),
(0,0,cs)
);
}
);
width = 470;
},
{
anchors = (
{
name = bottom;
pos = (346,-98);
},
{
name = top;
pos = (303,552);
}
);
layerId = "54406707-D089-4649-8539-9EC6A26EE6B0";
shapes = (
{
closed = 1;
nodes = (
(11,0,ls),
(92,0,o),
(147,9,o),
(206,41,c),
(255,-1,o),
(303,-5,o),
(354,-5,cs),
(509,-5,o),
(557,117,o),
(557,217,cs),
(557,251,o),
(557,306,o),
(540,369,cs),
(519,446,o),
(483,452,o),
(459,452,cs),
(419,452,o),
(370,433,o),
(370,366,cs),
(370,310,o),
(384,233,o),
(396,195,c),
(384,185,o),
(363,181,o),
(344,181,cs),
(318,181,o),
(292,186,o),
(280,202,c),
(280,252,o),
(276,322,o),
(261,371,cs),
(241,435,o),
(208,441,o),
(187,441,cs),
(137,441,o),
(97,422,o),
(97,349,cs),
(97,304,o),
(102,257,o),
(122,202,c),
(110,190,o),
(54,185,o),
(14,185,cs),
(0,185,ls),
(-24,185,o),
(-40,141,o),
(-40,92,cs),
(-40,42,o),
(-24,0,o),
(0,0,cs)
);
}
);
width = 625;
}
);
note = uni071A.init;
},
{
glyphname = uni071B;
lastChange = "2022-12-15 11:31:32 +0000";
layers = (
{
anchors = (
{
name = bottom;
pos = (564,-418);
},
{
name = top;
pos = (525,753);
}
);
layerId = m01;
shapes = (
{
closed = 1;
nodes = (
(536,0,l),
(630,-238,ls),
(645,-274,o),
(668,-320,o),
(689,-337,cs),
(702,-348,o),
(716,-353,o),
(731,-353,cs),
(753,-353,o),
(771,-351,o),
(798,-319,cs),
(870,-236,o),
(950,-76,o),
(950,52,cs),
(950,76,l),
(595,76,l),
(344,720,l),
(273,693,l),
(513,76,l),
(268,76,ls),
(167,76,o),
(132,87,o),
(101,131,c),
(49,85,l),
(73,33,o),
(120,0,o),
(230,0,cs)
);
},
{
closed = 1;
nodes = (
(739,-279,l),
(729,-275,o),
(711,-237,o),
(702,-214,cs),
(618,0,l),
(876,0,l),
(864,-77,o),
(781,-243,o),
(743,-279,c)
);
}
);
width = 999;
},
{
anchors = (
{
name = bottom;
pos = (518,-418);
},
{
name = top;
pos = (489,726);
}
);
layerId = "22847997-2214-411C-BF12-975F69A1246B";
shapes = (
{
closed = 1;
nodes = (
(517,0,l),
(615,-257,ls),
(624,-280,o),
(639,-318,o),
(656,-333,cs),
(665,-341,o),
(676,-347,o),
(690,-347,cs),
(706,-347,o),
(717,-344,o),
(737,-321,cs),
(802,-248,o),
(882,-85,o),
(882,17,cs),
(882,25,l),
(538,25,l),
(291,686,l),
(266,676,l),
(509,25,l),
(228,25,ls),
(137,25,o),
(106,34,o),
(77,73,c),
(60,53,l),
(77,23,o),
(113,0,o),
(197,0,cs)
);
},
{
closed = 1;
nodes = (
(688,-321,l),
(677,-319,o),
(664,-310,o),
(642,-252,cs),
(546,0,l),
(856,0,l),
(845,-136,o),
(722,-318,o),
(700,-321,c)
);
}
);
width = 941;
},
{
anchors = (
{
name = bottom;
pos = (563,-418);
},
{
name = top;
pos = (640,795);
}
);
layerId = "54406707-D089-4649-8539-9EC6A26EE6B0";
shapes = (
{
closed = 1;
nodes = (
(542,0,l),
(618,-193,ls),
(645,-263,o),
(670,-319,o),
(712,-347,cs),
(732,-360,o),
(754,-367,o),
(788,-367,cs),
(835,-367,o),
(860,-355,o),
(895,-320,cs),
(973,-242,o),
(1059,-62,o),
(1059,155,cs),
(1059,185,l),
(664,185,l),
(459,763,l),
(284,704,l),
(484,185,l),
(390,185,ls),
(278,185,o),
(190,204,o),
(152,256,c),
(38,143,l),
(78,49,o),
(168,0,o),
(331,0,cs)
);
},
{
closed = 1;
nodes = (
(806,-209,l),
(800,-199,o),
(785,-166,o),
(771,-128,cs),
(724,0,l),
(893,0,l),
(887,-50,o),
(839,-167,o),
(809,-209,c)
);
}
);
width = 1095;
}
);
note = uni071B;
unicode = 1819;
},
{
glyphname = uni071B.fina;
lastChange = "2022-12-15 11:31:32 +0000";
layers = (
{
anchors = (
{
name = bottom;
pos = (564,-418);
},
{
name = top;
pos = (525,750);
}
);
layerId = m01;
shapes = (
{
closed = 1;
nodes = (
(536,0,l),
(630,-238,ls),
(645,-274,o),
(668,-320,o),
(689,-337,cs),
(702,-348,o),
(716,-353,o),
(731,-353,cs),
(753,-353,o),
(771,-351,o),
(798,-319,cs),
(870,-236,o),
(950,-76,o),
(950,52,cs),
(950,76,l),
(595,76,l),
(344,720,l),
(273,693,l),
(513,76,l),
(268,76,ls),
(167,76,o),
(132,87,o),
(101,131,c),
(49,85,l),
(73,33,o),
(120,0,o),
(230,0,cs)
);
},
{
closed = 1;
nodes = (
(739,-279,l),
(729,-275,o),
(711,-237,o),
(702,-214,cs),
(618,0,l),
(876,0,l),
(864,-77,o),
(781,-243,o),
(743,-279,c)
);
}
);
width = 922;
},
{
anchors = (
{
name = bottom;
pos = (519,-418);
},
{
name = top;
pos = (489,724);
}
);
layerId = "22847997-2214-411C-BF12-975F69A1246B";
shapes = (
{
closed = 1;
nodes = (
(515,0,l),
(613,-257,ls),
(622,-280,o),
(637,-318,o),
(654,-333,cs),
(663,-341,o),
(674,-347,o),
(688,-347,cs),
(704,-347,o),
(715,-344,o),
(735,-321,cs),
(800,-248,o),
(880,-85,o),
(880,17,cs),
(880,25,l),
(536,25,l),
(289,686,l),
(264,676,l),
(507,25,l),
(226,25,ls),
(135,25,o),
(104,34,o),
(75,73,c),
(58,53,l),
(75,23,o),
(111,0,o),
(195,0,cs)
);
},
{
closed = 1;
nodes = (
(686,-321,l),
(675,-319,o),
(662,-310,o),
(640,-252,cs),
(544,0,l),
(854,0,l),
(843,-136,o),
(720,-318,o),
(698,-321,c)
);
}
);
width = 833;
},
{
anchors = (
{
name = bottom;
pos = (563,-418);
},
{
name = top;
pos = (641,794);
}
);
layerId = "54406707-D089-4649-8539-9EC6A26EE6B0";
shapes = (
{
closed = 1;
nodes = (
(542,0,l),
(618,-193,ls),
(645,-263,o),
(670,-319,o),
(712,-347,cs),
(732,-360,o),
(754,-367,o),
(788,-367,cs),
(835,-367,o),
(860,-355,o),
(895,-320,cs),
(973,-242,o),
(1059,-62,o),
(1059,155,cs),
(1059,185,l),
(664,185,l),
(459,763,l),
(284,704,l),
(484,185,l),
(390,185,ls),
(278,185,o),
(190,204,o),
(152,256,c),
(38,143,l),
(78,49,o),
(168,0,o),
(331,0,cs)
);
},
{
closed = 1;
nodes = (
(806,-209,l),
(800,-199,o),
(785,-166,o),
(771,-128,cs),
(724,0,l),
(893,0,l),
(887,-50,o),
(839,-167,o),
(809,-209,c)
);
}
);
width = 1017;
}
);
note = uni071B.fina;
},
{
glyphname = uni071B.medi;
lastChange = "2022-12-15 11:31:32 +0000";
layers = (
{
anchors = (
{
name = bottom;
pos = (263,-418);
},
{
name = top;
pos = (224,750);
}
);
layerId = m01;
shapes = (
{
closed = 1;
nodes = (
(235,0,l),
(329,-238,ls),
(343,-274,o),
(367,-320,o),
(388,-337,cs),
(401,-348,o),
(415,-353,o),
(430,-353,cs),
(452,-353,o),
(470,-351,o),
(497,-319,cs),
(569,-236,o),
(649,-76,o),
(649,52,cs),
(649,76,l),
(294,76,l),
(43,720,l),
(-28,693,l),
(212,76,l),
(0,76,ls),
(-21,76,o),
(-39,61,o),
(-39,38,cs),
(-39,14,o),
(-21,0,o),
(0,0,cs)
);
},
{
closed = 1;
nodes = (
(438,-279,l),
(428,-275,o),
(410,-237,o),
(401,-214,cs),
(317,0,l),
(575,0,l),
(563,-77,o),
(480,-243,o),
(442,-279,c)
);
}
);
width = 621;
},
{
anchors = (
{
name = bottom;
pos = (234,-418);
},
{
name = top;
pos = (211,726);
}
);
layerId = "22847997-2214-411C-BF12-975F69A1246B";
shapes = (
{
closed = 1;
nodes = (
(235,0,l),
(333,-257,ls),
(342,-280,o),
(357,-318,o),
(374,-333,cs),
(383,-341,o),
(394,-347,o),
(408,-347,cs),
(424,-347,o),
(435,-344,o),
(455,-321,cs),
(520,-248,o),
(600,-85,o),
(600,17,cs),
(600,25,l),
(256,25,l),
(9,686,l),
(-16,676,l),
(227,25,l),
(0,25,ls),
(-19,25,o),
(-40,21,o),
(-40,13,cs),
(-40,4,o),
(-19,0,o),
(0,0,cs)
);
},
{
closed = 1;
nodes = (
(406,-321,l),
(395,-319,o),
(382,-310,o),
(360,-252,cs),
(264,0,l),
(574,0,l),
(563,-136,o),
(440,-318,o),
(418,-321,c)
);
}
);
width = 553;
},
{
anchors = (
{
name = bottom;
pos = (254,-418);
},
{
name = top;
pos = (322,795);
}
);
layerId = "54406707-D089-4649-8539-9EC6A26EE6B0";
shapes = (
{
closed = 1;
nodes = (
(225,0,l),
(301,-193,ls),
(328,-263,o),
(352,-316,o),
(394,-347,cs),
(414,-361,o),
(437,-367,o),
(471,-367,cs),
(516,-367,o),
(543,-355,o),
(578,-320,cs),
(656,-242,o),
(742,-62,o),
(742,155,cs),
(742,185,l),
(347,185,l),
(141,763,l),
(-34,704,l),
(167,185,l),
(0,185,ls),
(-24,185,o),
(-40,141,o),
(-40,92,cs),
(-40,42,o),
(-24,0,o),
(0,0,cs)
);
},
{
closed = 1;
nodes = (
(489,-209,l),
(483,-199,o),
(468,-166,o),
(454,-128,cs),
(407,0,l),
(576,0,l),
(570,-50,o),
(522,-167,o),
(492,-209,c)
);
}
);
width = 700;
}
);
note = uni071B.medi;
},
{
glyphname = uni071B.init;
lastChange = "2022-12-15 11:31:32 +0000";
layers = (
{
anchors = (
{
name = bottom;
pos = (263,-419);
},
{
name = top;
pos = (224,750);
}
);
layerId = m01;
shapes = (
{
closed = 1;
nodes = (
(235,0,l),
(329,-238,ls),
(343,-274,o),
(367,-320,o),
(388,-337,cs),
(401,-348,o),
(415,-353,o),
(430,-353,cs),
(452,-353,o),
(470,-351,o),
(497,-319,cs),
(569,-236,o),
(649,-76,o),
(649,52,cs),
(649,76,l),
(294,76,l),
(43,720,l),
(-28,693,l),
(212,76,l),
(0,76,ls),
(-21,76,o),
(-39,61,o),
(-39,38,cs),
(-39,14,o),
(-21,0,o),
(0,0,cs)
);
},
{
closed = 1;
nodes = (
(438,-279,l),
(428,-275,o),
(410,-237,o),
(401,-214,cs),
(317,0,l),
(575,0,l),
(563,-77,o),
(480,-243,o),
(442,-279,c)
);
}
);
width = 697;
},
{
anchors = (
{
name = bottom;
pos = (234,-419);
},
{
name = top;
pos = (211,726);
}
);
layerId = "22847997-2214-411C-BF12-975F69A1246B";
shapes = (
{
closed = 1;
nodes = (
(235,0,l),
(333,-257,ls),
(342,-280,o),
(357,-318,o),
(374,-333,cs),
(383,-341,o),
(394,-347,o),
(408,-347,cs),
(424,-347,o),
(435,-344,o),
(455,-321,cs),
(520,-248,o),
(600,-85,o),
(600,17,cs),
(600,25,l),
(256,25,l),
(9,686,l),
(-16,676,l),
(227,25,l),
(0,25,ls),
(-19,25,o),
(-40,21,o),
(-40,13,cs),
(-40,4,o),
(-19,0,o),
(0,0,cs)
);
},
{
closed = 1;
nodes = (
(406,-321,l),
(395,-319,o),
(382,-310,o),
(360,-252,cs),
(264,0,l),
(574,0,l),
(563,-136,o),
(440,-318,o),
(418,-321,c)
);
}
);
width = 659;
},
{
anchors = (
{
name = bottom;
pos = (255,-419);
},
{
name = top;
pos = (322,795);
}
);
layerId = "54406707-D089-4649-8539-9EC6A26EE6B0";
shapes = (
{
closed = 1;
nodes = (
(225,0,l),
(301,-193,ls),
(328,-263,o),
(352,-316,o),
(394,-347,cs),
(414,-361,o),
(437,-367,o),
(471,-367,cs),
(516,-367,o),
(543,-355,o),
(578,-320,cs),
(656,-242,o),
(742,-62,o),
(742,155,cs),
(742,185,l),
(347,185,l),
(141,763,l),
(-34,704,l),
(167,185,l),
(0,185,ls),
(-24,185,o),
(-40,141,o),
(-40,92,cs),
(-40,42,o),
(-24,0,o),
(0,0,cs)
);
},
{
closed = 1;
nodes = (
(489,-209,l),
(483,-199,o),
(468,-166,o),
(454,-128,cs),
(407,0,l),
(576,0,l),
(570,-50,o),
(522,-167,o),
(492,-209,c)
);
}
);
width = 778;
}
);
note = uni071B.init;
},
{
glyphname = uni071C;
lastChange = "2022-12-15 11:31:32 +0000";
layers = (
{
anchors = (
{
name = bottom;
pos = (563,-418);
},
{
name = top;
pos = (523,750);
}
);
layerId = m01;
shapes = (
{
closed = 1;
nodes = (
(536,0,l),
(630,-238,ls),
(645,-274,o),
(668,-320,o),
(689,-337,cs),
(702,-348,o),
(716,-353,o),
(731,-353,cs),
(753,-353,o),
(771,-351,o),
(798,-319,cs),
(870,-236,o),
(950,-76,o),
(950,52,cs),
(950,76,l),
(595,76,l),
(344,720,l),
(273,693,l),
(513,76,l),
(268,76,ls),
(167,76,o),
(132,87,o),
(101,131,c),
(49,85,l),
(73,33,o),
(120,0,o),
(230,0,cs)
);
},
{
closed = 1;
nodes = (
(739,-279,l),
(729,-275,o),
(711,-237,o),
(702,-214,cs),
(674,-143,o),
(646,-71,o),
(618,0,c),
(876,0,l),
(864,-77,o),
(781,-243,o),
(743,-279,c)
);
},
{
closed = 1;
nodes = (
(775,-149,o),
(795,-134,o),
(795,-102,cs),
(795,-69,o),
(775,-55,o),
(752,-55,cs),
(728,-55,o),
(709,-69,o),
(709,-102,cs),
(709,-134,o),
(728,-149,o),
(752,-149,cs)
);
}
);
width = 999;
},
{
anchors = (
{
name = bottom;
pos = (519,-418);
},
{
name = top;
pos = (489,726);
}
);
layerId = "22847997-2214-411C-BF12-975F69A1246B";
shapes = (
{
closed = 1;
nodes = (
(517,0,l),
(615,-257,ls),
(624,-280,o),
(639,-318,o),
(656,-333,cs),
(665,-341,o),
(676,-347,o),
(690,-347,cs),
(706,-347,o),
(717,-344,o),
(737,-321,cs),
(802,-248,o),
(882,-85,o),
(882,17,cs),
(882,25,l),
(538,25,l),
(291,686,l),
(266,676,l),
(509,25,l),
(228,25,ls),
(137,25,o),
(106,34,o),
(77,73,c),
(60,53,l),
(77,23,o),
(113,0,o),
(197,0,cs)
);
},
{
closed = 1;
nodes = (
(688,-321,l),
(677,-319,o),
(664,-310,o),
(642,-252,cs),
(610,-168,o),
(578,-84,o),
(546,0,c),
(856,0,l),
(845,-136,o),
(722,-318,o),
(700,-321,c)
);
},
{
closed = 1;
nodes = (
(727,-133,o),
(729,-120,o),
(729,-105,cs),
(729,-91,o),
(727,-77,o),
(705,-77,cs),
(687,-77,o),
(683,-91,o),
(683,-105,cs),
(683,-120,o),
(687,-133,o),
(705,-133,cs)
);
}
);
width = 941;
},
{
anchors = (
{
name = bottom;
pos = (563,-418);
},
{
name = top;
pos = (641,795);
}
);
layerId = "54406707-D089-4649-8539-9EC6A26EE6B0";
shapes = (
{
closed = 1;
nodes = (
(542,0,l),
(614,-190,ls),
(640,-260,o),
(670,-314,o),
(712,-345,cs),
(732,-359,o),
(764,-367,o),
(798,-367,cs),
(839,-367,o),
(879,-355,o),
(916,-322,cs),
(1001,-248,o),
(1069,-101,o),
(1069,146,cs),
(1069,185,l),
(664,185,l),
(458,763,l),
(283,704,l),
(484,185,l),
(390,185,ls),
(278,185,o),
(190,204,o),
(152,256,c),
(38,143,l),
(78,49,o),
(168,0,o),
(331,0,cs)
);
},
{
closed = 1;
nodes = (
(805,-232,l),
(785,-229,o),
(764,-212,o),
(745,-173,cs),
(727,-135,o),
(709,-75,o),
(694,16,c),
(935,16,l),
(935,-56,o),
(897,-214,o),
(819,-232,c)
);
},
{
closed = 1;
nodes = (
(858,-147,o),
(876,-116,o),
(876,-81,cs),
(876,-47,o),
(859,-14,o),
(818,-14,cs),
(776,-14,o),
(757,-47,o),
(757,-81,cs),
(757,-116,o),
(775,-147,o),
(817,-147,cs)
);
}
);
width = 1105;
}
);
note = uni071C;
unicode = 1820;
},
{
glyphname = uni071C.fina;
lastChange = "2022-12-15 11:31:32 +0000";
layers = (
{
anchors = (
{
name = bottom;
pos = (564,-418);
},
{
name = top;
pos = (525,750);
}
);
layerId = m01;
shapes = (
{
closed = 1;
nodes = (
(536,0,l),
(630,-238,ls),
(645,-274,o),
(668,-320,o),
(689,-337,cs),
(702,-348,o),
(716,-353,o),
(731,-353,cs),
(753,-353,o),
(771,-351,o),
(798,-319,cs),
(870,-236,o),
(950,-76,o),
(950,52,cs),
(950,76,l),
(595,76,l),
(344,720,l),
(273,693,l),
(513,76,l),
(268,76,ls),
(167,76,o),
(132,87,o),
(101,131,c),
(49,85,l),
(73,33,o),
(120,0,o),
(230,0,cs)
);
},
{
closed = 1;
nodes = (
(739,-279,l),
(729,-275,o),
(711,-237,o),
(702,-214,cs),
(674,-143,o),
(646,-71,o),
(618,0,c),
(876,0,l),
(864,-77,o),
(781,-243,o),
(743,-279,c)
);
},
{
closed = 1;
nodes = (
(775,-149,o),
(795,-134,o),
(795,-102,cs),
(795,-69,o),
(775,-55,o),
(752,-55,cs),
(728,-55,o),
(709,-69,o),
(709,-102,cs),
(709,-134,o),
(728,-149,o),
(752,-149,cs)
);
}
);
width = 922;
},
{
anchors = (
{
name = bottom;
pos = (516,-418);
},
{
name = top;
pos = (489,726);
}
);
layerId = "22847997-2214-411C-BF12-975F69A1246B";
shapes = (
{
closed = 1;
nodes = (
(515,0,l),
(613,-257,ls),
(622,-280,o),
(637,-318,o),
(654,-333,cs),
(663,-341,o),
(674,-347,o),
(688,-347,cs),
(704,-347,o),
(715,-344,o),
(735,-321,cs),
(800,-248,o),
(880,-85,o),
(880,17,cs),
(880,25,l),
(536,25,l),
(289,686,l),
(264,676,l),
(507,25,l),
(226,25,ls),
(135,25,o),
(104,34,o),
(75,73,c),
(58,53,l),
(75,23,o),
(111,0,o),
(195,0,cs)
);
},
{
closed = 1;
nodes = (
(686,-321,l),
(675,-319,o),
(662,-310,o),
(640,-252,cs),
(608,-168,o),
(576,-84,o),
(544,0,c),
(854,0,l),
(843,-136,o),
(720,-318,o),
(698,-321,c)
);
},
{
closed = 1;
nodes = (
(725,-133,o),
(727,-120,o),
(727,-105,cs),
(727,-91,o),
(725,-77,o),
(703,-77,cs),
(685,-77,o),
(681,-91,o),
(681,-105,cs),
(681,-120,o),
(685,-133,o),
(703,-133,cs)
);
}
);
width = 833;
},
{
anchors = (
{
name = bottom;
pos = (563,-418);
},
{
name = top;
pos = (641,795);
}
);
layerId = "54406707-D089-4649-8539-9EC6A26EE6B0";
shapes = (
{
closed = 1;
nodes = (
(542,0,l),
(614,-190,ls),
(640,-260,o),
(670,-314,o),
(712,-345,cs),
(732,-359,o),
(764,-367,o),
(798,-367,cs),
(839,-367,o),
(873,-354,o),
(910,-321,cs),
(995,-247,o),
(1069,-81,o),
(1069,146,cs),
(1069,185,l),
(664,185,l),
(458,763,l),
(283,704,l),
(484,185,l),
(390,185,ls),
(278,185,o),
(190,204,o),
(152,256,c),
(38,143,l),
(78,49,o),
(168,0,o),
(331,0,cs)
);
},
{
closed = 1;
nodes = (
(805,-232,l),
(785,-229,o),
(764,-212,o),
(745,-173,cs),
(727,-135,o),
(709,-75,o),
(694,16,c),
(935,16,l),
(935,-56,o),
(897,-214,o),
(819,-232,c)
);
},
{
closed = 1;
nodes = (
(858,-147,o),
(876,-116,o),
(876,-81,cs),
(876,-47,o),
(859,-14,o),
(818,-14,cs),
(776,-14,o),
(757,-47,o),
(757,-81,cs),
(757,-116,o),
(775,-147,o),
(817,-147,cs)
);
}
);
width = 1027;
}
);
note = uni071C.fina;
},
{
glyphname = uni071C.medi;
lastChange = "2022-12-15 11:31:32 +0000";
layers = (
{
anchors = (
{
name = bottom;
pos = (263,-418);
},
{
name = top;
pos = (224,750);
}
);
layerId = m01;
shapes = (
{
closed = 1;
nodes = (
(235,0,l),
(329,-238,ls),
(343,-274,o),
(367,-320,o),
(388,-337,cs),
(401,-348,o),
(415,-353,o),
(430,-353,cs),
(452,-353,o),
(470,-351,o),
(497,-319,cs),
(569,-236,o),
(649,-76,o),
(649,52,cs),
(649,76,l),
(294,76,l),
(43,720,l),
(-28,693,l),
(212,76,l),
(0,76,ls),
(-21,76,o),
(-39,61,o),
(-39,38,cs),
(-39,14,o),
(-21,0,o),
(0,0,cs)
);
},
{
closed = 1;
nodes = (
(438,-279,l),
(428,-275,o),
(410,-237,o),
(401,-214,cs),
(373,-143,o),
(345,-71,o),
(317,0,c),
(575,0,l),
(563,-77,o),
(480,-243,o),
(442,-279,c)
);
},
{
closed = 1;
nodes = (
(474,-149,o),
(494,-134,o),
(494,-102,cs),
(494,-69,o),
(474,-55,o),
(451,-55,cs),
(427,-55,o),
(408,-69,o),
(408,-102,cs),
(408,-134,o),
(427,-149,o),
(451,-149,cs)
);
}
);
width = 621;
},
{
anchors = (
{
name = bottom;
pos = (235,-418);
},
{
name = top;
pos = (211,726);
}
);
layerId = "22847997-2214-411C-BF12-975F69A1246B";
shapes = (
{
closed = 1;
nodes = (
(235,0,l),
(333,-257,ls),
(342,-280,o),
(357,-318,o),
(374,-333,cs),
(383,-341,o),
(394,-347,o),
(408,-347,cs),
(424,-347,o),
(435,-344,o),
(455,-321,cs),
(520,-248,o),
(600,-85,o),
(600,17,cs),
(600,25,l),
(256,25,l),
(9,686,l),
(-16,676,l),
(227,25,l),
(0,25,ls),
(-19,25,o),
(-40,21,o),
(-40,13,cs),
(-40,4,o),
(-19,0,o),
(0,0,cs)
);
},
{
closed = 1;
nodes = (
(406,-321,l),
(395,-319,o),
(382,-310,o),
(360,-252,cs),
(328,-168,o),
(296,-84,o),
(264,0,c),
(574,0,l),
(563,-136,o),
(440,-318,o),
(418,-321,c)
);
},
{
closed = 1;
nodes = (
(443,-133,o),
(445,-120,o),
(445,-105,cs),
(445,-91,o),
(443,-77,o),
(421,-77,cs),
(403,-77,o),
(399,-91,o),
(399,-105,cs),
(399,-120,o),
(403,-133,o),
(421,-133,cs)
);
}
);
width = 553;
},
{
anchors = (
{
name = bottom;
pos = (254,-418);
},
{
name = top;
pos = (322,795);
}
);
layerId = "54406707-D089-4649-8539-9EC6A26EE6B0";
shapes = (
{
closed = 1;
nodes = (
(225,0,l),
(297,-190,ls),
(323,-260,o),
(354,-317,o),
(396,-345,cs),
(416,-358,o),
(447,-367,o),
(481,-367,cs),
(522,-367,o),
(556,-354,o),
(593,-321,cs),
(678,-247,o),
(752,-81,o),
(752,146,cs),
(752,185,l),
(347,185,l),
(141,763,l),
(-34,704,l),
(167,185,l),
(0,185,ls),
(-24,185,o),
(-40,141,o),
(-40,92,cs),
(-40,42,o),
(-24,0,o),
(0,0,cs)
);
},
{
closed = 1;
nodes = (
(488,-232,l),
(468,-229,o),
(447,-212,o),
(428,-173,cs),
(410,-135,o),
(392,-75,o),
(377,16,c),
(618,16,l),
(618,-56,o),
(580,-214,o),
(502,-232,c)
);
},
{
closed = 1;
nodes = (
(541,-147,o),
(559,-116,o),
(559,-81,cs),
(559,-47,o),
(542,-14,o),
(501,-14,cs),
(459,-14,o),
(440,-47,o),
(440,-81,cs),
(440,-116,o),
(458,-147,o),
(500,-147,cs)
);
}
);
width = 710;
}
);
note = uni071C.medi;
},
{
glyphname = uni071C.init;
lastChange = "2022-12-15 11:31:32 +0000";
layers = (
{
anchors = (
{
name = bottom;
pos = (263,-418);
},
{
name = top;
pos = (224,750);
}
);
layerId = m01;
shapes = (
{
closed = 1;
nodes = (
(235,0,l),
(329,-238,ls),
(343,-274,o),
(367,-320,o),
(388,-337,cs),
(401,-348,o),
(415,-353,o),
(430,-353,cs),
(452,-353,o),
(470,-351,o),
(497,-319,cs),
(569,-236,o),
(649,-76,o),
(649,52,cs),
(649,76,l),
(294,76,l),
(43,720,l),
(-28,693,l),
(212,76,l),
(0,76,ls),
(-21,76,o),
(-39,61,o),
(-39,38,cs),
(-39,14,o),
(-21,0,o),
(0,0,cs)
);
},
{
closed = 1;
nodes = (
(438,-279,l),
(428,-275,o),
(410,-237,o),
(401,-214,cs),
(373,-143,o),
(345,-71,o),
(317,0,c),
(575,0,l),
(563,-77,o),
(480,-243,o),
(442,-279,c)
);
},
{
closed = 1;
nodes = (
(474,-149,o),
(494,-134,o),
(494,-102,cs),
(494,-69,o),
(474,-55,o),
(451,-55,cs),
(427,-55,o),
(408,-69,o),
(408,-102,cs),
(408,-134,o),
(427,-149,o),
(451,-149,cs)
);
}
);
width = 697;
},
{
anchors = (
{
name = bottom;
pos = (234,-418);
},
{
name = top;
pos = (211,726);
}
);
layerId = "22847997-2214-411C-BF12-975F69A1246B";
shapes = (
{
closed = 1;
nodes = (
(235,0,l),
(333,-257,ls),
(342,-280,o),
(357,-318,o),
(374,-333,cs),
(383,-341,o),
(394,-347,o),
(408,-347,cs),
(424,-347,o),
(435,-344,o),
(455,-321,cs),
(520,-248,o),
(600,-85,o),
(600,17,cs),
(600,25,l),
(256,25,l),
(9,686,l),
(-16,676,l),
(227,25,l),
(0,25,ls),
(-19,25,o),
(-40,21,o),
(-40,13,cs),
(-40,4,o),
(-19,0,o),
(0,0,cs)
);
},
{
closed = 1;
nodes = (
(406,-321,l),
(395,-319,o),
(382,-310,o),
(360,-252,cs),
(328,-168,o),
(296,-84,o),
(264,0,c),
(574,0,l),
(563,-136,o),
(440,-318,o),
(418,-321,c)
);
},
{
closed = 1;
nodes = (
(443,-133,o),
(445,-120,o),
(445,-105,cs),
(445,-91,o),
(443,-77,o),
(421,-77,cs),
(403,-77,o),
(399,-91,o),
(399,-105,cs),
(399,-120,o),
(403,-133,o),
(421,-133,cs)
);
}
);
width = 659;
},
{
anchors = (
{
name = bottom;
pos = (254,-418);
},
{
name = top;
pos = (322,795);
}
);
layerId = "54406707-D089-4649-8539-9EC6A26EE6B0";
shapes = (
{
closed = 1;
nodes = (
(225,0,l),
(297,-190,ls),
(323,-260,o),
(354,-317,o),
(396,-345,cs),
(416,-358,o),
(447,-367,o),
(481,-367,cs),
(522,-367,o),
(562,-355,o),
(599,-322,cs),
(684,-248,o),
(752,-101,o),
(752,146,cs),
(752,185,l),
(347,185,l),
(141,763,l),
(-34,704,l),
(167,185,l),
(0,185,ls),
(-24,185,o),
(-40,141,o),
(-40,92,cs),
(-40,42,o),
(-24,0,o),
(0,0,cs)
);
},
{
closed = 1;
nodes = (
(488,-232,l),
(468,-229,o),
(447,-212,o),
(428,-173,cs),
(410,-135,o),
(392,-75,o),
(377,16,c),
(618,16,l),
(618,-56,o),
(580,-214,o),
(502,-232,c)
);
},
{
closed = 1;
nodes = (
(541,-147,o),
(559,-116,o),
(559,-81,cs),
(559,-47,o),
(542,-14,o),
(501,-14,cs),
(459,-14,o),
(440,-47,o),
(440,-81,cs),
(440,-116,o),
(458,-147,o),
(500,-147,cs)
);
}
);
width = 788;
}
);
note = uni071C.init;
},
{
glyphname = uni071D;
lastChange = "2022-12-15 11:31:32 +0000";
layers = (
{
anchors = (
{
name = bottom;
pos = (120,-226);
},
{
name = top;
pos = (85,345);
}
);
layerId = m01;
shapes = (
{
closed = 1;
nodes = (
(194,105,o),
(160,171,o),
(133,199,cs),
(121,211,o),
(110,216,o),
(99,216,cs),
(81,216,o),
(59,201,o),
(59,179,cs),
(59,164,o),
(67,150,o),
(79,134,cs),
(107,96,o),
(123,61,o),
(130,31,c),
(127,5,o),
(111,-25,o),
(80,-64,cs),
(68,-79,o),
(62,-91,o),
(62,-104,cs),
(62,-125,o),
(80,-140,o),
(100,-140,cs),
(111,-140,o),
(122,-134,o),
(134,-122,cs),
(159,-96,o),
(194,-38,o),
(194,33,cs)
);
}
);
width = 243;
},
{
anchors = (
{
name = bottom;
pos = (102,-226);
},
{
name = top;
pos = (80,304);
}
);
layerId = "22847997-2214-411C-BF12-975F69A1246B";
shapes = (
{
closed = 1;
nodes = (
(152,73,o),
(124,131,o),
(100,161,cs),
(95,167,o),
(90,170,o),
(84,170,cs),
(77,170,o),
(71,165,o),
(71,157,cs),
(71,151,o),
(74,145,o),
(82,133,cs),
(113,86,o),
(124,52,o),
(129,13,c),
(125,-21,o),
(113,-60,o),
(81,-105,cs),
(72,-117,o),
(70,-121,o),
(70,-127,cs),
(70,-133,o),
(76,-137,o),
(82,-137,cs),
(87,-137,o),
(92,-135,o),
(98,-128,cs),
(121,-104,o),
(152,-41,o),
(152,12,cs)
);
}
);
width = 212;
},
{
anchors = (
{
name = bottom;
pos = (149,-158);
},
{
name = top;
pos = (111,465);
}
);
layerId = "54406707-D089-4649-8539-9EC6A26EE6B0";
shapes = (
{
closed = 1;
nodes = (
(266,228,o),
(237,281,o),
(214,303,cs),
(193,323,o),
(178,335,o),
(136,335,cs),
(102,335,o),
(59,310,o),
(59,267,cs),
(59,239,o),
(69,219,o),
(96,179,cs),
(108,161,o),
(111,148,o),
(115,127,c),
(114,107,o),
(108,82,o),
(90,58,cs),
(71,32,o),
(61,13,o),
(61,-10,cs),
(61,-48,o),
(95,-72,o),
(128,-72,cs),
(156,-72,o),
(182,-65,o),
(203,-42,cs),
(239,-2,o),
(266,60,o),
(266,131,cs)
);
}
);
width = 301;
}
);
note = uni071D;
unicode = 1821;
},
{
glyphname = uni071D.fina;
lastChange = "2022-12-15 11:54:40 +0000";
layers = (
{
anchors = (
{
name = bottom;
pos = (119,-226);
},
{
name = top;
pos = (85,345);
}
);
layerId = m01;
shapes = (
{
closed = 1;
nodes = (
(257,76,l),
(239,76,o),
(214,76,o),
(190,78,c),
(180,131,o),
(154,177,o),
(133,199,cs),
(121,211,o),
(110,216,o),
(99,216,cs),
(81,216,o),
(59,201,o),
(59,179,cs),
(59,164,o),
(67,150,o),
(79,134,cs),
(107,96,o),
(123,61,o),
(130,31,c),
(127,5,o),
(111,-25,o),
(80,-64,cs),
(68,-79,o),
(62,-91,o),
(62,-104,cs),
(62,-125,o),
(80,-140,o),
(100,-140,cs),
(111,-140,o),
(123,-135,o),
(134,-122,cs),
(154,-100,o),
(183,-56,o),
(191,-1,c),
(215,0,o),
(240,0,o),
(257,0,c)
);
}
);
width = 257;
},
{
anchors = (
{
name = bottom;
pos = (103,-226);
},
{
name = top;
pos = (80,304);
}
);
layerId = "22847997-2214-411C-BF12-975F69A1246B";
shapes = (
{
closed = 1;
nodes = (
(228,25,l),
(211,25,o),
(169,25,o),
(151,26,c),
(147,81,o),
(122,133,o),
(100,161,cs),
(95,167,o),
(90,170,o),
(84,170,cs),
(77,170,o),
(71,165,o),
(71,157,cs),
(71,151,o),
(74,145,o),
(82,133,cs),
(113,86,o),
(124,52,o),
(129,13,c),
(125,-21,o),
(113,-60,o),
(81,-105,cs),
(72,-117,o),
(70,-121,o),
(70,-127,cs),
(70,-133,o),
(76,-137,o),
(82,-137,cs),
(87,-137,o),
(92,-135,o),
(98,-128,cs),
(119,-106,o),
(147,-51,o),
(151,-1,c),
(172,0,o),
(207,0,o),
(228,0,c)
);
}
);
width = 228;
},
{
anchors = (
{
name = bottom;
pos = (131,-176);
},
{
name = top;
pos = (94,459);
}
);
layerId = "54406707-D089-4649-8539-9EC6A26EE6B0";
shapes = (
{
closed = 1;
nodes = (
(282,185,l),
(278,185,o),
(258,185,o),
(243,188,c),
(232,247,o),
(208,282,o),
(192,300,cs),
(172,323,o),
(147,330,o),
(117,330,cs),
(84,330,o),
(41,307,o),
(41,262,cs),
(41,234,o),
(50,215,o),
(78,174,cs),
(89,157,o),
(94,143,o),
(98,122,c),
(98,105,o),
(96,84,o),
(69,44,cs),
(51,17,o),
(42,-2,o),
(42,-26,cs),
(42,-66,o),
(78,-88,o),
(112,-88,cs),
(138,-88,o),
(162,-81,o),
(184,-58,cs),
(198,-43,o),
(211,-22,o),
(221,0,c),
(241,0,o),
(262,0,o),
(282,0,c)
);
}
);
width = 282;
}
);
note = uni071D.fina;
},
{
glyphname = uni071D.medi;
lastChange = "2022-12-15 11:54:17 +0000";
layers = (
{
anchors = (
{
name = bottom;
pos = (152,-98);
},
{
name = top;
pos = (137,420);
}
);
layerId = m01;
shapes = (
{
closed = 1;
nodes = (
(310,76,l),
(270,76,o),
(222,77,o),
(208,92,c),
(208,99,o),
(208,105,o),
(208,112,cs),
(208,158,o),
(201,232,o),
(185,260,cs),
(179,270,o),
(169,275,o),
(156,275,cs),
(138,275,o),
(113,265,o),
(113,238,cs),
(113,192,o),
(127,121,o),
(140,90,c),
(121,77,o),
(69,76,o),
(29,76,cs),
(0,76,ls),
(-21,76,o),
(-39,61,o),
(-39,38,cs),
(-39,14,o),
(-21,0,o),
(0,0,cs),
(29,0,ls),
(72,0,o),
(140,5,o),
(173,29,c),
(200,9,o),
(237,0,o),
(310,0,c)
);
}
);
width = 310;
},
{
anchors = (
{
name = bottom;
pos = (143,-98);
},
{
name = top;
pos = (133,381);
}
);
layerId = "22847997-2214-411C-BF12-975F69A1246B";
shapes = (
{
closed = 1;
nodes = (
(295,25,l),
(218,25,o),
(196,41,o),
(184,59,c),
(184,60,o),
(184,62,o),
(184,63,cs),
(184,87,o),
(165,207,o),
(153,228,cs),
(150,233,o),
(147,234,o),
(143,234,cs),
(132,234,o),
(130,226,o),
(130,218,cs),
(130,194,o),
(150,84,o),
(160,55,c),
(152,42,o),
(107,25,o),
(13,25,cs),
(0,25,ls),
(-19,25,o),
(-40,21,o),
(-40,13,cs),
(-40,4,o),
(-19,0,o),
(0,0,cs),
(5,0,ls),
(99,0,o),
(149,14,o),
(172,33,c),
(189,15,o),
(222,0,o),
(295,0,c)
);
}
);
width = 295;
},
{
anchors = (
{
name = bottom;
pos = (182,-98);
},
{
name = top;
pos = (155,544);
}
);
layerId = "54406707-D089-4649-8539-9EC6A26EE6B0";
shapes = (
{
closed = 1;
nodes = (
(353,185,l),
(327,185,o),
(293,189,o),
(273,199,c),
(273,208,o),
(274,217,o),
(274,226,cs),
(274,254,o),
(272,291,o),
(262,327,cs),
(244,393,o),
(215,399,o),
(184,399,cs),
(121,399,o),
(93,363,o),
(93,310,cs),
(93,278,o),
(98,231,o),
(109,198,c),
(102,190,o),
(59,185,o),
(29,185,cs),
(0,185,ls),
(-24,185,o),
(-40,141,o),
(-40,92,cs),
(-40,42,o),
(-24,0,o),
(0,0,cs),
(6,0,ls),
(85,0,o),
(158,11,o),
(200,41,c),
(236,10,o),
(297,0,o),
(353,0,c)
);
}
);
width = 353;
}
);
note = uni071D.medi;
},
{
glyphname = uni071D.init;
lastChange = "2022-12-15 11:31:32 +0000";
layers = (
{
anchors = (
{
name = bottom;
pos = (135,-97);
},
{
name = top;
pos = (125,407);
}
);
layerId = m01;
shapes = (
{
closed = 1;
nodes = (
(58,0,ls),
(114,0,o),
(150,11,o),
(174,31,cs),
(200,53,o),
(209,86,o),
(209,135,cs),
(209,184,o),
(195,236,o),
(182,260,cs),
(176,270,o),
(167,275,o),
(153,275,cs),
(132,275,o),
(110,265,o),
(110,234,cs),
(110,190,o),
(129,125,o),
(141,99,c),
(135,78,o),
(91,76,o),
(29,76,cs),
(0,76,ls),
(-21,76,o),
(-39,61,o),
(-39,38,cs),
(-39,14,o),
(-21,0,o),
(0,0,cs)
);
}
);
width = 278;
},
{
anchors = (
{
name = bottom;
pos = (135,-97);
},
{
name = top;
pos = (124,380);
}
);
layerId = "22847997-2214-411C-BF12-975F69A1246B";
shapes = (
{
closed = 1;
nodes = (
(45,0,ls),
(93,0,o),
(124,9,o),
(143,24,cs),
(165,41,o),
(172,66,o),
(172,93,cs),
(172,116,o),
(164,208,o),
(152,228,cs),
(149,233,o),
(146,234,o),
(142,234,cs),
(131,234,o),
(129,226,o),
(129,218,cs),
(129,193,o),
(142,120,o),
(147,74,c),
(147,51,o),
(120,25,o),
(54,25,cs),
(0,25,ls),
(-19,25,o),
(-40,21,o),
(-40,13,cs),
(-40,4,o),
(-19,0,o),
(0,0,cs)
);
}
);
width = 253;
},
{
anchors = (
{
name = bottom;
pos = (164,-97);
},
{
name = top;
pos = (134,544);
}
);
layerId = "54406707-D089-4649-8539-9EC6A26EE6B0";
shapes = (
{
closed = 1;
nodes = (
(28,0,ls),
(128,0,o),
(191,25,o),
(228,64,cs),
(265,103,o),
(278,153,o),
(278,205,cs),
(278,233,o),
(276,281,o),
(261,327,cs),
(240,393,o),
(211,399,o),
(180,399,cs),
(140,399,o),
(93,380,o),
(93,320,cs),
(93,286,o),
(99,236,o),
(113,197,c),
(107,189,o),
(63,185,o),
(33,185,cs),
(0,185,ls),
(-24,185,o),
(-40,141,o),
(-40,92,cs),
(-40,42,o),
(-24,0,o),
(0,0,cs)
);
}
);
width = 346;
}
);
note = uni071D.init;
},
{
glyphname = uni071E;
lastChange = "2022-12-15 11:54:06 +0000";
layers = (
{
layerId = m01;
shapes = (
{
closed = 1;
nodes = (
(524,643,o),
(544,663,o),
(544,699,cs),
(544,736,o),
(525,756,o),
(492,756,cs),
(461,756,o),
(443,736,o),
(443,699,cs),
(443,659,o),
(464,643,o),
(492,643,cs)
);
},
{
closed = 1;
nodes = (
(450,504,o),
(470,524,o),
(470,560,cs),
(470,597,o),
(451,617,o),
(418,617,cs),
(387,617,o),
(369,597,o),
(369,560,cs),
(369,520,o),
(390,504,o),
(418,504,cs)
);
},
{
closed = 1;
nodes = (
(598,504,o),
(618,524,o),
(618,560,cs),
(618,597,o),
(599,617,o),
(566,617,cs),
(535,617,o),
(517,597,o),
(517,560,cs),
(517,520,o),
(538,504,o),
(566,504,cs)
);
},
{
closed = 1;
nodes = (
(1000,0,ls),
(1056,0,o),
(1092,11,o),
(1116,31,cs),
(1142,53,o),
(1151,86,o),
(1151,135,cs),
(1151,184,o),
(1137,236,o),
(1124,260,cs),
(1118,270,o),
(1109,275,o),
(1095,275,cs),
(1074,275,o),
(1052,265,o),
(1052,234,cs),
(1052,190,o),
(1071,125,o),
(1083,99,c),
(1077,78,o),
(1033,76,o),
(971,76,cs),
(824,76,l),
(824,79,l),
(853,106,o),
(861,155,o),
(861,195,cs),
(861,334,o),
(809,436,o),
(649,436,cs),
(608,436,o),
(559,426,o),
(498,426,cs),
(437,426,o),
(394,437,o),
(312,437,cs),
(164,437,o),
(68,358,o),
(68,225,cs),
(68,102,o),
(125,33,o),
(231,-8,c),
(264,57,l),
(187,89,o),
(142,131,o),
(142,216,cs),
(142,334,o),
(229,365,o),
(333,365,cs),
(370,365,o),
(420,362,o),
(458,354,c),
(361,5,l),
(426,-6,l),
(535,353,l),
(561,357,o),
(598,362,o),
(643,362,cs),
(749,362,o),
(788,312,o),
(788,198,cs),
(788,135,o),
(777,72,o),
(673,72,cs),
(671,72,o),
(657,72,o),
(646,73,c),
(643,2,l),
(653,0,o),
(727,0,o),
(730,0,cs)
);
},
{
closed = 1;
nodes = (
(483,-183,o),
(503,-163,o),
(503,-127,cs),
(503,-90,o),
(484,-70,o),
(451,-70,cs),
(420,-70,o),
(402,-90,o),
(402,-127,cs),
(402,-167,o),
(423,-183,o),
(451,-183,cs)
);
}
);
width = 1220;
},
{
layerId = "22847997-2214-411C-BF12-975F69A1246B";
shapes = (
{
closed = 1;
nodes = (
(506,625,o),
(508,638,o),
(508,653,cs),
(508,667,o),
(506,681,o),
(484,681,cs),
(466,681,o),
(462,667,o),
(462,653,cs),
(462,638,o),
(466,625,o),
(484,625,cs)
);
},
{
closed = 1;
nodes = (
(439,495,o),
(441,508,o),
(441,523,cs),
(441,537,o),
(439,551,o),
(417,551,cs),
(399,551,o),
(395,537,o),
(395,523,cs),
(395,508,o),
(399,495,o),
(417,495,cs)
);
},
{
closed = 1;
nodes = (
(572,495,o),
(574,508,o),
(574,523,cs),
(574,537,o),
(572,551,o),
(550,551,cs),
(532,551,o),
(528,537,o),
(528,523,cs),
(528,508,o),
(532,495,o),
(550,495,cs)
);
},
{
closed = 1;
nodes = (
(893,0,ls),
(941,0,o),
(972,9,o),
(991,24,cs),
(1013,41,o),
(1020,66,o),
(1020,93,cs),
(1020,116,o),
(1012,208,o),
(1000,228,cs),
(997,233,o),
(994,234,o),
(990,234,cs),
(979,234,o),
(977,226,o),
(977,218,cs),
(977,193,o),
(990,120,o),
(995,74,c),
(995,51,o),
(968,25,o),
(902,25,cs),
(723,25,l),
(723,27,l),
(776,58,o),
(792,119,o),
(792,173,cs),
(792,298,o),
(738,384,o),
(601,384,cs),
(539,384,o),
(506,376,o),
(458,376,cs),
(430,376,o),
(348,387,o),
(290,387,cs),
(156,387,o),
(78,315,o),
(78,202,cs),
(78,98,o),
(118,35,o),
(202,-3,c),
(212,18,l),
(142,53,o),
(104,107,o),
(104,197,cs),
(104,323,o),
(195,362,o),
(295,362,cs),
(344,362,o),
(432,354,o),
(459,351,c),
(356,1,l),
(381,-4,l),
(485,351,l),
(515,356,o),
(557,359,o),
(595,359,cs),
(712,359,o),
(766,302,o),
(766,174,cs),
(766,100,o),
(741,24,o),
(633,24,cs),
(629,24,o),
(626,24,o),
(622,24,c),
(620,1,l),
(638,0,o),
(659,0,o),
(673,0,cs)
);
},
{
closed = 1;
nodes = (
(428,-140,o),
(430,-127,o),
(430,-112,cs),
(430,-98,o),
(428,-84,o),
(406,-84,cs),
(388,-84,o),
(384,-98,o),
(384,-112,cs),
(384,-127,o),
(388,-140,o),
(406,-140,cs)
);
}
);
width = 1100;
},
{
layerId = "54406707-D089-4649-8539-9EC6A26EE6B0";
shapes = (
{
closed = 1;
nodes = (
(577,739,o),
(612,756,o),
(612,800,cs),
(612,845,o),
(577,862,o),
(543,862,cs),
(508,862,o),
(475,845,o),
(475,800,cs),
(475,756,o),
(508,739,o),
(543,739,cs)
);
},
{
closed = 1;
nodes = (
(482,578,o),
(523,599,o),
(523,654,cs),
(523,711,o),
(482,731,o),
(440,731,cs),
(397,731,o),
(358,711,o),
(358,654,cs),
(358,599,o),
(397,578,o),
(440,578,cs)
);
},
{
closed = 1;
nodes = (
(687,578,o),
(728,599,o),
(728,654,cs),
(728,711,o),
(687,731,o),
(645,731,cs),
(602,731,o),
(563,711,o),
(563,654,cs),
(563,599,o),
(602,578,o),
(645,578,cs)
);
},
{
closed = 1;
nodes = (
(1041,0,ls),
(1141,0,o),
(1203,25,o),
(1241,64,cs),
(1278,102,o),
(1291,153,o),
(1291,205,cs),
(1291,233,o),
(1289,281,o),
(1274,327,cs),
(1253,393,o),
(1224,399,o),
(1193,399,cs),
(1153,399,o),
(1106,380,o),
(1106,320,cs),
(1106,286,o),
(1112,236,o),
(1126,197,c),
(1120,189,o),
(1076,185,o),
(1046,185,cs),
(937,185,l),
(937,187,l),
(943,203,o),
(946,230,o),
(946,246,cs),
(946,387,o),
(905,513,o),
(717,513,cs),
(662,513,o),
(593,502,o),
(554,502,cs),
(495,502,o),
(441,513,o),
(346,513,cs),
(202,513,o),
(68,430,o),
(68,244,cs),
(68,118,o),
(146,28,o),
(277,-9,c),
(334,148,l),
(273,165,o),
(229,200,o),
(229,258,cs),
(229,313,o),
(273,347,o),
(342,347,cs),
(372,347,o),
(423,342,o),
(456,333,c),
(370,19,l),
(518,-5,l),
(621,333,l),
(646,344,o),
(682,347,o),
(702,347,cs),
(770,347,o),
(786,304,o),
(786,246,cs),
(786,187,o),
(753,160,o),
(697,160,cs),
(687,160,o),
(677,161,o),
(665,163,c),
(654,6,l),
(674,1,o),
(747,0,o),
(756,0,cs)
);
},
{
closed = 1;
nodes = (
(541,-244,o),
(588,-220,o),
(588,-160,cs),
(588,-98,o),
(541,-75,o),
(494,-75,cs),
(446,-75,o),
(401,-98,o),
(401,-160,cs),
(401,-220,o),
(446,-244,o),
(494,-244,cs)
);
}
);
width = 1359;
}
);
note = uni071E;
unicode = 1822;
},
{
glyphname = uni071F;
lastChange = "2022-12-15 11:31:32 +0000";
layers = (
{
anchors = (
{
name = bottom;
pos = (337,-117);
},
{
name = bottomright;
pos = (667,-156);
},
{
name = top;
pos = (325,451);
},
{
name = topright;
pos = (682,429);
}
);
layerId = m01;
shapes = (
{
closed = 1;
nodes = (
(950,-344,l),
(842,-36,o),
(764,143,o),
(706,243,cs),
(642,353,o),
(597,375,o),
(543,375,cs),
(453,375,o),
(408,310,o),
(396,198,cs),
(383,77,o),
(353,55,o),
(296,55,cs),
(196,55,o),
(142,165,o),
(142,280,cs),
(142,310,o),
(147,346,o),
(156,366,c),
(91,392,l),
(74,359,o),
(68,305,o),
(68,277,cs),
(68,125,o),
(150,-21,o),
(299,-21,cs),
(421,-21,o),
(450,66,o),
(465,182,cs),
(475,263,o),
(493,300,o),
(541,300,cs),
(580,300,o),
(601,272,o),
(639,208,cs),
(708,90,o),
(798,-128,o),
(882,-364,c)
);
}
);
width = 889;
},
{
anchors = (
{
name = bottom;
pos = (301,-117);
},
{
name = bottomright;
pos = (631,-156);
},
{
name = top;
pos = (296,403);
},
{
name = topright;
pos = (652,386);
}
);
layerId = "22847997-2214-411C-BF12-975F69A1246B";
shapes = (
{
closed = 1;
nodes = (
(875,-353,l),
(779,-67,o),
(697,108,o),
(645,206,cs),
(595,301,o),
(551,328,o),
(507,328,cs),
(437,328,o),
(406,276,o),
(391,167,cs),
(373,35,o),
(347,3,o),
(276,3,cs),
(167,3,o),
(103,127,o),
(103,256,cs),
(103,282,o),
(107,307,o),
(112,327,c),
(90,334,l),
(82,310,o),
(78,274,o),
(78,250,cs),
(78,110,o),
(146,-22,o),
(276,-22,cs),
(381,-22,o),
(401,53,o),
(416,157,cs),
(430,255,o),
(446,303,o),
(506,303,cs),
(551,303,o),
(583,267,o),
(621,196,cs),
(685,76,o),
(774,-141,o),
(851,-361,c)
);
}
);
width = 814;
},
{
anchors = (
{
name = bottom;
pos = (365,-117);
},
{
name = bottomright;
pos = (667,-156);
},
{
name = top;
pos = (370,524);
},
{
name = topright;
pos = (755,502);
}
);
layerId = "54406707-D089-4649-8539-9EC6A26EE6B0";
shapes = (
{
closed = 1;
nodes = (
(1045,-324,l),
(947,-52,o),
(848,202,o),
(795,297,cs),
(727,419,o),
(662,449,o),
(587,449,cs),
(477,449,o),
(413,381,o),
(392,232,cs),
(382,158,o),
(346,152,o),
(321,152,cs),
(245,152,o),
(225,244,o),
(225,303,cs),
(225,342,o),
(235,389,o),
(248,421,c),
(97,480,l),
(75,443,o),
(54,366,o),
(54,302,cs),
(54,137,o),
(144,-24,o),
(305,-24,cs),
(451,-24,o),
(516,45,o),
(545,200,cs),
(554,249,o),
(563,266,o),
(586,266,cs),
(610,266,o),
(623,244,o),
(649,198,cs),
(690,125,o),
(798,-131,o),
(894,-375,c)
);
}
);
width = 981;
}
);
note = uni071F;
unicode = 1823;
},
{
glyphname = uni071F.fina;
lastChange = "2022-12-15 11:31:32 +0000";
layers = (
{
anchors = (
{
name = bottom;
pos = (337,-117);
},
{
name = bottomright;
pos = (667,-160);
},
{
name = top;
pos = (325,451);
},
{
name = topright;
pos = (681,430);
}
);
layerId = m01;
shapes = (
{
closed = 1;
nodes = (
(950,-344,l),
(901,-205,o),
(858,-91,o),
(820,0,c),
(886,0,l),
(886,76,l),
(788,76,l),
(757,147,o),
(730,202,o),
(706,243,cs),
(642,353,o),
(597,375,o),
(543,375,cs),
(453,375,o),
(409,310,o),
(396,198,cs),
(382,77,o),
(353,55,o),
(296,55,cs),
(196,55,o),
(142,165,o),
(142,280,cs),
(142,310,o),
(147,346,o),
(156,366,c),
(91,392,l),
(74,359,o),
(68,305,o),
(68,277,cs),
(68,125,o),
(150,-21,o),
(299,-21,cs),
(421,-21,o),
(450,66,o),
(465,182,cs),
(475,263,o),
(493,300,o),
(541,300,cs),
(580,300,o),
(602,273,o),
(639,208,cs),
(707,89,o),
(798,-128,o),
(882,-364,c)
);
}
);
width = 886;
},
{
anchors = (
{
name = bottom;
pos = (302,-117);
},
{
name = bottomright;
pos = (630,-160);
},
{
name = top;
pos = (297,403);
},
{
name = topright;
pos = (654,381);
}
);
layerId = "22847997-2214-411C-BF12-975F69A1246B";
shapes = (
{
closed = 1;
nodes = (
(875,-353,l),
(826,-208,o),
(781,-92,o),
(742,0,c),
(820,0,l),
(820,25,l),
(731,25,l),
(697,103,o),
(668,162,o),
(645,206,cs),
(595,301,o),
(551,328,o),
(507,328,cs),
(437,328,o),
(406,276,o),
(391,167,cs),
(373,35,o),
(347,3,o),
(276,3,cs),
(167,3,o),
(103,127,o),
(103,256,cs),
(103,282,o),
(107,307,o),
(112,327,c),
(90,334,l),
(82,310,o),
(78,274,o),
(78,250,cs),
(78,110,o),
(146,-22,o),
(276,-22,cs),
(381,-22,o),
(401,53,o),
(416,157,cs),
(430,255,o),
(446,303,o),
(506,303,cs),
(551,303,o),
(583,267,o),
(621,196,cs),
(685,76,o),
(774,-141,o),
(851,-361,c)
);
}
);
width = 820;
},
{
anchors = (
{
name = bottom;
pos = (365,-117);
},
{
name = bottomright;
pos = (667,-160);
},
{
name = top;
pos = (370,524);
},
{
name = topright;
pos = (755,502);
}
);
layerId = "54406707-D089-4649-8539-9EC6A26EE6B0";
shapes = (
{
closed = 1;
nodes = (
(1045,-324,l),
(1003,-209,o),
(962,-98,o),
(924,0,c),
(965,0,l),
(965,185,l),
(848,185,l),
(828,232,o),
(809,271,o),
(795,297,cs),
(727,419,o),
(662,449,o),
(587,449,cs),
(477,449,o),
(413,381,o),
(392,232,cs),
(382,158,o),
(346,152,o),
(321,152,cs),
(245,152,o),
(225,244,o),
(225,303,cs),
(225,342,o),
(235,389,o),
(248,421,c),
(97,480,l),
(75,443,o),
(54,366,o),
(54,302,cs),
(54,137,o),
(144,-24,o),
(305,-24,cs),
(451,-24,o),
(516,45,o),
(545,200,cs),
(554,249,o),
(563,266,o),
(586,266,cs),
(610,266,o),
(623,244,o),
(649,198,cs),
(690,125,o),
(798,-131,o),
(894,-375,c)
);
}
);
width = 965;
}
);
note = uni071F.fina;
},
{
glyphname = uni071F.medi;
lastChange = "2022-12-15 11:31:32 +0000";
layers = (
{
anchors = (
{
name = bottom;
pos = (285,-98);
},
{
name = bottomright;
pos = (546,-93);
},
{
name = top;
pos = (251,521);
},
{
name = topright;
pos = (511,406);
}
);
layerId = m01;
shapes = (
{
closed = 1;
nodes = (
(643,0,l),
(643,76,l),
(611,76,l),
(588,118,o),
(530,205,o),
(503,242,cs),
(407,377,o),
(338,428,o),
(233,428,cs),
(178,428,o),
(126,408,o),
(75,352,c),
(120,305,l),
(154,338,o),
(193,353,o),
(223,353,cs),
(317,353,o),
(386,286,o),
(466,164,cs),
(485,135,o),
(505,105,o),
(524,76,c),
(0,76,ls),
(-21,76,o),
(-39,61,o),
(-39,38,cs),
(-39,14,o),
(-21,0,o),
(0,0,cs)
);
}
);
width = 643;
},
{
anchors = (
{
name = bottom;
pos = (255,-98);
},
{
name = bottomright;
pos = (515,-95);
},
{
name = top;
pos = (244,479);
},
{
name = topright;
pos = (505,364);
}
);
layerId = "22847997-2214-411C-BF12-975F69A1246B";
shapes = (
{
closed = 1;
nodes = (
(614,0,l),
(614,25,l),
(581,25,l),
(556,73,o),
(495,167,o),
(467,208,cs),
(377,339,o),
(322,386,o),
(226,386,cs),
(188,386,o),
(135,375,o),
(94,332,c),
(110,315,l),
(142,345,o),
(183,361,o),
(225,361,cs),
(308,361,o),
(359,322,o),
(447,189,cs),
(492,122,o),
(532,59,o),
(551,25,c),
(0,25,ls),
(-19,25,o),
(-40,21,o),
(-40,13,cs),
(-40,4,o),
(-19,0,o),
(0,0,cs)
);
}
);
width = 614;
},
{
anchors = (
{
name = bottom;
pos = (301,-98);
},
{
name = bottomright;
pos = (571,-95);
},
{
name = top;
pos = (294,606);
},
{
name = topright;
pos = (589,493);
}
);
layerId = "54406707-D089-4649-8539-9EC6A26EE6B0";
shapes = (
{
closed = 1;
nodes = (
(716,0,l),
(716,185,l),
(684,185,l),
(667,215,o),
(612,294,o),
(600,311,cs),
(508,442,o),
(413,513,o),
(286,513,cs),
(217,513,o),
(135,490,o),
(67,407,c),
(167,297,l),
(202,328,o),
(236,344,o),
(274,344,cs),
(338,344,o),
(390,300,o),
(443,233,cs),
(456,217,o),
(468,201,o),
(481,185,c),
(0,185,ls),
(-24,185,o),
(-40,141,o),
(-40,92,cs),
(-40,42,o),
(-24,0,o),
(0,0,cs)
);
}
);
width = 716;
}
);
note = uni071F.medi;
},
{
glyphname = uni071F.init;
lastChange = "2022-12-15 11:31:32 +0000";
layers = (
{
anchors = (
{
name = bottom;
pos = (285,-98);
},
{
name = bottomright;
pos = (546,-92);
},
{
name = top;
pos = (251,522);
},
{
name = topright;
pos = (511,407);
}
);
layerId = m01;
shapes = (
{
closed = 1;
nodes = (
(569,0,ls),
(605,0,o),
(614,31,o),
(614,57,cs),
(614,66,o),
(612,75,o),
(606,85,cs),
(583,124,o),
(527,208,o),
(503,242,cs),
(408,378,o),
(338,428,o),
(233,428,cs),
(178,428,o),
(126,408,o),
(75,352,c),
(120,305,l),
(154,338,o),
(193,353,o),
(223,353,cs),
(317,353,o),
(385,285,o),
(466,164,cs),
(486,135,o),
(505,105,o),
(525,76,c),
(0,76,ls),
(-21,76,o),
(-39,61,o),
(-39,38,cs),
(-39,14,o),
(-21,0,o),
(0,0,cs)
);
}
);
width = 673;
},
{
anchors = (
{
name = bottom;
pos = (255,-98);
},
{
name = bottomright;
pos = (514,-92);
},
{
name = top;
pos = (243,479);
},
{
name = topright;
pos = (505,364);
}
);
layerId = "22847997-2214-411C-BF12-975F69A1246B";
shapes = (
{
closed = 1;
nodes = (
(557,0,ls),
(571,0,o),
(579,7,o),
(579,20,cs),
(579,24,o),
(578,31,o),
(573,40,cs),
(548,85,o),
(494,167,o),
(467,208,cs),
(378,340,o),
(322,386,o),
(226,386,cs),
(188,386,o),
(135,375,o),
(94,332,c),
(110,315,l),
(142,345,o),
(183,361,o),
(225,361,cs),
(308,361,o),
(359,322,o),
(447,189,cs),
(492,122,o),
(532,59,o),
(551,25,c),
(0,25,ls),
(-19,25,o),
(-40,21,o),
(-40,13,cs),
(-40,4,o),
(-19,0,o),
(0,0,cs)
);
}
);
width = 649;
},
{
anchors = (
{
name = bottom;
pos = (301,-98);
},
{
name = bottomright;
pos = (571,-95);
},
{
name = top;
pos = (294,606);
},
{
name = topright;
pos = (589,493);
}
);
layerId = "54406707-D089-4649-8539-9EC6A26EE6B0";
shapes = (
{
closed = 1;
nodes = (
(595,0,ls),
(670,0,o),
(690,81,o),
(690,135,cs),
(690,159,o),
(684,183,o),
(668,211,cs),
(653,237,o),
(613,294,o),
(600,312,cs),
(506,442,o),
(417,513,o),
(286,513,cs),
(217,513,o),
(135,490,o),
(67,407,c),
(167,297,l),
(202,328,o),
(236,344,o),
(274,344,cs),
(342,344,o),
(396,297,o),
(453,222,cs),
(462,210,o),
(472,197,o),
(481,185,c),
(0,185,ls),
(-24,185,o),
(-40,141,o),
(-40,92,cs),
(-40,42,o),
(-24,0,o),
(0,0,cs)
);
}
);
width = 726;
}
);
note = uni071F.init;
},
{
glyphname = uni0720;
lastChange = "2022-12-15 11:31:32 +0000";
layers = (
{
anchors = (
{
name = bottom;
pos = (318,-98);
},
{
name = top;
pos = (278,812);
}
);
layerId = m01;
shapes = (
{
closed = 1;
nodes = (
(543,0,ls),
(575,0,o),
(591,24,o),
(591,59,cs),
(591,88,o),
(583,119,o),
(568,166,cs),
(537,263,o),
(394,655,o),
(355,753,c),
(283,725,l),
(376,483,o),
(476,216,o),
(518,76,c),
(268,76,ls),
(167,76,o),
(132,87,o),
(101,131,c),
(49,85,l),
(73,33,o),
(120,0,o),
(230,0,cs)
);
}
);
width = 656;
},
{
anchors = (
{
name = bottom;
pos = (300,-98);
},
{
name = top;
pos = (243,788);
}
);
layerId = "22847997-2214-411C-BF12-975F69A1246B";
shapes = (
{
closed = 1;
nodes = (
(517,0,ls),
(531,0,o),
(539,8,o),
(539,21,cs),
(539,29,o),
(536,38,o),
(532,53,cs),
(495,186,o),
(335,619,o),
(292,720,c),
(268,710,l),
(345,515,o),
(477,155,o),
(513,25,c),
(228,25,ls),
(137,25,o),
(106,34,o),
(77,73,c),
(60,53,l),
(77,23,o),
(113,0,o),
(197,0,cs)
);
}
);
width = 613;
},
{
anchors = (
{
name = bottom;
pos = (352,-98);
},
{
name = top;
pos = (350,861);
}
);
layerId = "54406707-D089-4649-8539-9EC6A26EE6B0";
shapes = (
{
closed = 1;
nodes = (
(587,0,ls),
(677,0,o),
(690,92,o),
(690,131,cs),
(690,148,o),
(687,170,o),
(679,199,cs),
(647,321,o),
(547,632,o),
(483,803,c),
(302,743,l),
(367,575,o),
(474,292,o),
(510,185,c),
(369,185,ls),
(257,185,o),
(188,201,o),
(148,249,c),
(38,140,l),
(75,47,o),
(156,0,o),
(309,0,cs)
);
}
);
width = 750;
}
);
note = uni0720;
unicode = 1824;
},
{
glyphname = uni0720.fina;
lastChange = "2022-12-15 11:31:32 +0000";
layers = (
{
anchors = (
{
name = bottom;
pos = (318,-98);
},
{
name = top;
pos = (278,812);
}
);
layerId = m01;
shapes = (
{
closed = 1;
nodes = (
(652,0,l),
(652,76,l),
(601,76,l),
(539,249,o),
(374,707,o),
(355,753,c),
(282,725,l),
(305,670,o),
(465,241,o),
(525,76,c),
(267,76,ls),
(167,76,o),
(132,87,o),
(101,131,c),
(48,85,l),
(72,33,o),
(119,0,o),
(230,0,cs)
);
}
);
width = 652;
},
{
anchors = (
{
name = bottom;
pos = (300,-98);
},
{
name = top;
pos = (244,786);
}
);
layerId = "22847997-2214-411C-BF12-975F69A1246B";
shapes = (
{
closed = 1;
nodes = (
(606,0,l),
(606,25,l),
(552,25,l),
(490,204,o),
(312,676,o),
(293,720,c),
(269,710,l),
(302,625,o),
(467,187,o),
(525,25,c),
(228,25,ls),
(137,25,o),
(106,34,o),
(77,73,c),
(60,53,l),
(77,23,o),
(113,0,o),
(197,0,cs)
);
}
);
width = 606;
},
{
anchors = (
{
name = bottom;
pos = (352,-98);
},
{
name = top;
pos = (350,861);
}
);
layerId = "54406707-D089-4649-8539-9EC6A26EE6B0";
shapes = (
{
closed = 1;
nodes = (
(777,0,l),
(777,185,l),
(699,185,l),
(653,341,o),
(559,634,o),
(493,803,c),
(312,743,l),
(362,622,o),
(470,334,o),
(524,185,c),
(379,185,ls),
(267,185,o),
(198,201,o),
(158,249,c),
(48,140,l),
(85,47,o),
(166,0,o),
(319,0,cs)
);
}
);
width = 777;
}
);
note = uni0720.fina;
},
{
glyphname = uni0720.medi;
lastChange = "2022-12-15 11:31:32 +0000";
layers = (
{
anchors = (
{
name = bottom;
pos = (193,-98);
},
{
name = top;
pos = (-30,812);
}
);
layerId = m01;
shapes = (
{
closed = 1;
nodes = (
(338,0,l),
(338,76,l),
(288,76,l),
(226,249,o),
(60,707,o),
(41,753,c),
(-32,725,l),
(-9,670,o),
(151,241,o),
(211,76,c),
(0,76,ls),
(-21,76,o),
(-39,61,o),
(-39,38,cs),
(-39,14,o),
(-21,0,o),
(0,0,cs)
);
}
);
width = 338;
},
{
anchors = (
{
name = bottom;
pos = (164,-98);
},
{
name = top;
pos = (-54,788);
}
);
layerId = "22847997-2214-411C-BF12-975F69A1246B";
shapes = (
{
closed = 1;
nodes = (
(309,0,l),
(309,25,l),
(255,25,l),
(191,204,o),
(15,676,o),
(-4,720,c),
(-28,710,l),
(5,625,o),
(170,187,o),
(228,25,c),
(0,25,ls),
(-19,25,o),
(-40,21,o),
(-40,13,cs),
(-40,4,o),
(-19,0,o),
(0,0,cs)
);
}
);
width = 309;
},
{
anchors = (
{
name = bottom;
pos = (192,-98);
},
{
name = top;
pos = (20,861);
}
);
layerId = "54406707-D089-4649-8539-9EC6A26EE6B0";
shapes = (
{
closed = 1;
nodes = (
(420,0,l),
(420,185,l),
(341,185,l),
(296,341,o),
(202,634,o),
(136,803,c),
(-45,743,l),
(5,622,o),
(113,334,o),
(167,185,c),
(0,185,ls),
(-24,185,o),
(-40,141,o),
(-40,92,cs),
(-40,42,o),
(-24,0,o),
(0,0,cs)
);
}
);
width = 420;
}
);
note = uni0720.medi;
},
{
glyphname = uni0720.init;
lastChange = "2022-12-15 11:31:32 +0000";
layers = (
{
anchors = (
{
name = bottom;
pos = (169,-98);
},
{
name = top;
pos = (-28,812);
}
);
layerId = m01;
shapes = (
{
closed = 1;
nodes = (
(229,0,ls),
(261,0,o),
(277,24,o),
(277,59,cs),
(277,88,o),
(269,119,o),
(254,166,cs),
(223,263,o),
(80,655,o),
(41,753,c),
(-31,725,l),
(62,483,o),
(162,216,o),
(204,76,c),
(0,76,ls),
(-21,76,o),
(-39,61,o),
(-39,38,cs),
(-39,14,o),
(-21,0,o),
(0,0,cs)
);
}
);
width = 341;
},
{
anchors = (
{
name = bottom;
pos = (169,-98);
},
{
name = top;
pos = (-54,788);
}
);
layerId = "22847997-2214-411C-BF12-975F69A1246B";
shapes = (
{
closed = 1;
nodes = (
(224,0,ls),
(238,0,o),
(246,8,o),
(246,21,cs),
(246,29,o),
(243,38,o),
(239,53,cs),
(202,186,o),
(42,619,o),
(-1,720,c),
(-25,710,l),
(52,515,o),
(184,155,o),
(220,25,c),
(0,25,ls),
(-19,25,o),
(-40,21,o),
(-40,13,cs),
(-40,4,o),
(-19,0,o),
(0,0,cs)
);
}
);
width = 320;
},
{
anchors = (
{
name = bottom;
pos = (169,-98);
},
{
name = top;
pos = (-8,846);
}
);
layerId = "54406707-D089-4649-8539-9EC6A26EE6B0";
shapes = (
{
closed = 1;
nodes = (
(243,0,ls),
(333,0,o),
(346,92,o),
(346,131,cs),
(346,148,o),
(343,170,o),
(335,199,cs),
(303,321,o),
(203,632,o),
(139,803,c),
(-42,743,l),
(23,575,o),
(130,292,o),
(166,185,c),
(0,185,ls),
(-24,185,o),
(-40,141,o),
(-40,92,cs),
(-40,42,o),
(-24,0,o),
(0,0,cs)
);
}
);
width = 406;
}
);
note = uni0720.init;
},
{
glyphname = uni0721;
lastChange = "2022-12-15 11:31:32 +0000";
layers = (
{
anchors = (
{
name = bottom;
pos = (607,-98);
},
{
name = top;
pos = (482,537);
}
);
layerId = m01;
shapes = (
{
closed = 1;
nodes = (
(635,0,ls),
(772,0,o),
(816,66,o),
(816,182,cs),
(816,242,o),
(810,290,o),
(798,324,cs),
(772,400,o),
(706,427,o),
(625,427,cs),
(591,427,o),
(491,415,o),
(429,415,cs),
(293,415,o),
(167,443,o),
(85,475,c),
(59,405,l),
(99,383,o),
(254,346,o),
(414,343,c),
(409,306,o),
(407,255,o),
(403,217,cs),
(386,66,o),
(327,-35,o),
(224,-147,c),
(270,-185,l),
(352,-106,o),
(421,-8,o),
(443,97,c),
(447,97,l),
(464,42,o),
(523,0,o),
(604,0,cs)
);
},
{
closed = 1;
nodes = (
(611,76,ls),
(558,76,o),
(524,93,o),
(503,125,cs),
(480,160,o),
(476,195,o),
(476,260,cs),
(476,273,o),
(479,323,o),
(483,343,c),
(542,347,o),
(589,354,o),
(630,354,cs),
(717,354,o),
(743,308,o),
(743,182,cs),
(743,112,o),
(724,76,o),
(655,76,cs)
);
}
);
width = 885;
},
{
anchors = (
{
name = bottom;
pos = (565,-98);
},
{
name = top;
pos = (447,486);
}
);
layerId = "22847997-2214-411C-BF12-975F69A1246B";
shapes = (
{
closed = 1;
nodes = (
(595,0,ls),
(713,0,o),
(748,60,o),
(748,160,cs),
(748,228,o),
(740,283,o),
(715,320,cs),
(691,355,o),
(651,374,o),
(588,374,cs),
(540,374,o),
(473,365,o),
(413,365,cs),
(289,365,o),
(163,389,o),
(80,420,c),
(70,397,l),
(125,376,o),
(256,343,o),
(403,340,c),
(397,279,o),
(396,233,o),
(392,192,cs),
(377,43,o),
(323,-65,o),
(230,-159,c),
(248,-177,l),
(332,-95,o),
(389,14,o),
(404,123,c),
(407,123,l),
(418,45,o),
(474,0,o),
(576,0,cs)
);
},
{
closed = 1;
nodes = (
(582,25,ls),
(524,25,o),
(474,40,o),
(448,79,cs),
(422,119,o),
(420,146,o),
(420,217,cs),
(420,234,o),
(424,308,o),
(428,340,c),
(498,344,o),
(558,349,o),
(584,349,cs),
(684,349,o),
(722,308,o),
(722,160,cs),
(722,72,o),
(691,25,o),
(604,25,cs)
);
}
);
width = 828;
},
{
anchors = (
{
name = bottom;
pos = (655,-98);
},
{
name = top;
pos = (535,613);
}
);
layerId = "54406707-D089-4649-8539-9EC6A26EE6B0";
shapes = (
{
closed = 1;
nodes = (
(697,0,ls),
(839,0,o),
(912,99,o),
(912,227,cs),
(912,294,o),
(894,385,o),
(866,428,cs),
(822,494,o),
(752,507,o),
(674,507,cs),
(638,507,o),
(504,491,o),
(442,491,cs),
(293,491,o),
(176,525,o),
(104,557,c),
(46,391,l),
(110,354,o),
(239,327,o),
(413,324,c),
(408,277,o),
(401,233,o),
(392,193,cs),
(366,82,o),
(319,-9,o),
(235,-106,c),
(350,-206,l),
(432,-130,o),
(505,5,o),
(524,68,c),
(530,68,l),
(549,29,o),
(600,0,o),
(672,0,cs)
);
},
{
closed = 1;
nodes = (
(659,177,ls),
(623,177,o),
(599,190,o),
(584,211,cs),
(569,232,o),
(563,261,o),
(563,291,cs),
(563,295,o),
(564,318,o),
(566,333,c),
(602,340,o),
(644,342,o),
(674,342,cs),
(729,342,o),
(754,307,o),
(754,240,cs),
(754,203,o),
(738,177,o),
(688,177,cs)
);
}
);
width = 970;
}
);
note = uni0721;
unicode = 1825;
},
{
glyphname = uni0721.fina;
lastChange = "2022-12-15 11:31:32 +0000";
layers = (
{
anchors = (
{
name = bottom;
pos = (606,-98);
},
{
name = top;
pos = (483,537);
}
);
layerId = m01;
shapes = (
{
closed = 1;
nodes = (
(894,0,l),
(894,76,l),
(790,76,l),
(790,78,l),
(810,101,o),
(816,144,o),
(816,182,cs),
(816,242,o),
(810,290,o),
(798,324,cs),
(772,400,o),
(706,427,o),
(625,427,cs),
(591,427,o),
(491,415,o),
(429,415,cs),
(293,415,o),
(167,443,o),
(85,475,c),
(59,404,l),
(99,382,o),
(254,346,o),
(414,343,c),
(409,306,o),
(407,255,o),
(403,217,cs),
(386,66,o),
(327,-35,o),
(224,-147,c),
(270,-185,l),
(352,-106,o),
(421,-8,o),
(443,97,c),
(447,97,l),
(464,42,o),
(523,0,o),
(604,0,cs)
);
},
{
closed = 1;
nodes = (
(611,76,ls),
(558,76,o),
(524,93,o),
(503,125,cs),
(480,160,o),
(476,195,o),
(476,260,cs),
(476,273,o),
(479,323,o),
(483,343,c),
(542,347,o),
(589,354,o),
(630,354,cs),
(717,354,o),
(743,308,o),
(743,182,cs),
(743,112,o),
(724,76,o),
(655,76,cs)
);
}
);
width = 894;
},
{
anchors = (
{
name = bottom;
pos = (567,-98);
},
{
name = top;
pos = (448,485);
}
);
layerId = "22847997-2214-411C-BF12-975F69A1246B";
shapes = (
{
closed = 1;
nodes = (
(837,0,l),
(837,25,l),
(695,25,l),
(695,27,l),
(738,58,o),
(748,106,o),
(748,160,cs),
(748,228,o),
(740,283,o),
(715,320,cs),
(691,355,o),
(651,374,o),
(588,374,cs),
(540,374,o),
(473,365,o),
(413,365,cs),
(289,365,o),
(163,389,o),
(80,420,c),
(70,397,l),
(125,376,o),
(256,343,o),
(403,340,c),
(397,279,o),
(396,233,o),
(392,192,cs),
(377,43,o),
(323,-65,o),
(230,-159,c),
(248,-177,l),
(332,-95,o),
(389,14,o),
(404,123,c),
(407,123,l),
(418,45,o),
(474,0,o),
(576,0,cs)
);
},
{
closed = 1;
nodes = (
(582,25,ls),
(524,25,o),
(474,40,o),
(448,79,cs),
(422,119,o),
(420,146,o),
(420,217,cs),
(420,234,o),
(424,308,o),
(428,340,c),
(498,344,o),
(558,349,o),
(584,349,cs),
(684,349,o),
(722,308,o),
(722,160,cs),
(722,72,o),
(691,25,o),
(604,25,cs)
);
}
);
width = 837;
},
{
anchors = (
{
name = bottom;
pos = (655,-98);
},
{
name = top;
pos = (535,613);
}
);
layerId = "54406707-D089-4649-8539-9EC6A26EE6B0";
shapes = (
{
closed = 1;
nodes = (
(985,0,l),
(985,185,l),
(903,185,l),
(903,187,l),
(910,203,o),
(912,225,o),
(912,237,cs),
(912,307,o),
(893,391,o),
(862,434,cs),
(817,495,o),
(749,507,o),
(674,507,cs),
(638,507,o),
(504,491,o),
(442,491,cs),
(293,491,o),
(176,525,o),
(104,557,c),
(46,391,l),
(110,354,o),
(239,327,o),
(413,324,c),
(408,274,o),
(401,229,o),
(390,187,cs),
(363,80,o),
(315,-7,o),
(235,-106,c),
(350,-206,l),
(432,-130,o),
(505,5,o),
(524,68,c),
(530,68,l),
(549,29,o),
(600,0,o),
(672,0,cs)
);
},
{
closed = 1;
nodes = (
(659,177,ls),
(623,177,o),
(599,190,o),
(584,211,cs),
(569,232,o),
(563,261,o),
(563,291,cs),
(563,295,o),
(564,318,o),
(566,333,c),
(602,340,o),
(644,342,o),
(674,342,cs),
(729,342,o),
(754,307,o),
(754,240,cs),
(754,203,o),
(738,177,o),
(688,177,cs)
);
}
);
width = 985;
}
);
note = uni0721.fina;
},
{
glyphname = uni0721.medi;
lastChange = "2022-12-15 11:31:32 +0000";
layers = (
{
anchors = (
{
name = bottom;
pos = (465,-97);
},
{
name = top;
pos = (482,525);
}
);
layerId = m01;
shapes = (
{
closed = 1;
nodes = (
(896,0,l),
(896,76,l),
(793,76,l),
(793,78,l),
(809,109,o),
(814,136,o),
(814,178,cs),
(814,236,o),
(806,288,o),
(796,317,cs),
(769,396,o),
(701,428,o),
(620,428,cs),
(562,428,o),
(487,411,o),
(389,411,cs),
(239,411,o),
(171,432,o),
(93,470,c),
(63,400,l),
(100,372,o),
(195,337,o),
(370,337,cs),
(395,337,o),
(429,339,o),
(453,340,c),
(420,193,o),
(372,76,o),
(180,76,cs),
(0,76,ls),
(-21,76,o),
(-39,61,o),
(-39,38,cs),
(-39,14,o),
(-21,0,o),
(0,0,cs),
(172,0,ls),
(431,0,o),
(491,164,o),
(526,346,c),
(554,351,o),
(584,354,o),
(625,354,cs),
(673,354,o),
(710,331,o),
(724,298,cs),
(735,271,o),
(741,228,o),
(741,167,cs),
(741,99,o),
(710,57,o),
(646,57,cs),
(607,57,o),
(561,74,o),
(512,102,c),
(479,46,l),
(519,17,o),
(583,-14,o),
(644,-14,cs),
(674,-14,o),
(700,-9,o),
(721,0,c)
);
}
);
width = 896;
},
{
anchors = (
{
name = bottom;
pos = (409,-97);
},
{
name = top;
pos = (439,479);
}
);
layerId = "22847997-2214-411C-BF12-975F69A1246B";
shapes = (
{
closed = 1;
nodes = (
(808,0,l),
(808,25,l),
(674,25,l),
(674,27,l),
(712,63,o),
(721,111,o),
(721,164,cs),
(721,219,o),
(717,258,o),
(704,293,cs),
(679,361,o),
(630,381,o),
(559,381,cs),
(525,381,o),
(450,371,o),
(369,371,cs),
(229,371,o),
(159,385,o),
(85,420,c),
(74,398,l),
(117,373,o),
(209,346,o),
(353,346,cs),
(373,346,o),
(400,346,o),
(432,348,c),
(392,166,o),
(352,25,o),
(137,25,cs),
(0,25,ls),
(-19,25,o),
(-40,21,o),
(-40,13,cs),
(-40,4,o),
(-19,0,o),
(0,0,cs),
(129,0,ls),
(381,0,o),
(418,164,o),
(458,350,c),
(503,353,o),
(518,356,o),
(559,356,cs),
(621,356,o),
(655,338,o),
(675,295,cs),
(695,251,o),
(695,203,o),
(695,157,cs),
(695,65,o),
(653,14,o),
(577,14,cs),
(532,14,o),
(476,33,o),
(428,67,c),
(413,47,l),
(455,13,o),
(523,-11,o),
(575,-11,cs),
(599,-11,o),
(619,-7,o),
(636,0,c)
);
}
);
width = 808;
},
{
anchors = (
{
name = bottom;
pos = (575,-97);
},
{
name = top;
pos = (593,590);
}
);
layerId = "54406707-D089-4649-8539-9EC6A26EE6B0";
shapes = (
{
closed = 1;
nodes = (
(1056,0,l),
(1056,185,l),
(977,185,l),
(977,187,ls),
(979,202,o),
(979,214,o),
(979,224,cs),
(979,272,o),
(969,318,o),
(962,345,cs),
(932,457,o),
(849,493,o),
(755,493,cs),
(654,493,o),
(573,472,o),
(448,472,cs),
(349,472,o),
(242,493,o),
(145,537,c),
(82,372,l),
(138,340,o),
(262,303,o),
(404,303,cs),
(436,303,o),
(481,305,o),
(507,308,c),
(476,242,o),
(430,185,o),
(298,185,cs),
(0,185,ls),
(-24,185,o),
(-40,141,o),
(-40,92,cs),
(-40,42,o),
(-24,0,o),
(0,0,cs),
(290,0,ls),
(544,0,o),
(615,146,o),
(666,321,c),
(704,328,o),
(719,329,o),
(734,329,cs),
(770,329,o),
(790,313,o),
(801,297,cs),
(818,272,o),
(822,234,o),
(822,201,cs),
(822,171,o),
(805,147,o),
(769,147,cs),
(746,147,o),
(726,150,o),
(688,165,c),
(621,33,l),
(674,-3,o),
(724,-18,o),
(775,-18,cs),
(803,-18,o),
(836,-15,o),
(869,0,c)
);
}
);
width = 1056;
}
);
note = uni0721.medi;
},
{
glyphname = uni0721.init;
lastChange = "2022-12-15 11:31:32 +0000";
layers = (
{
anchors = (
{
name = bottom;
pos = (465,-97);
},
{
name = top;
pos = (484,525);
}
);
layerId = m01;
shapes = (
{
closed = 1;
nodes = (
(479,46,l),
(519,17,o),
(583,-14,o),
(644,-14,cs),
(739,-14,o),
(814,39,o),
(814,178,cs),
(814,236,o),
(806,288,o),
(796,317,cs),
(769,396,o),
(701,428,o),
(620,428,cs),
(562,428,o),
(487,411,o),
(389,411,cs),
(239,411,o),
(171,432,o),
(93,470,c),
(63,399,l),
(100,371,o),
(195,337,o),
(370,337,cs),
(395,337,o),
(429,339,o),
(453,340,c),
(420,193,o),
(372,76,o),
(180,76,cs),
(0,76,ls),
(-21,76,o),
(-39,61,o),
(-39,38,cs),
(-39,14,o),
(-21,0,o),
(0,0,cs),
(172,0,ls),
(431,0,o),
(491,164,o),
(526,345,c),
(554,351,o),
(584,354,o),
(625,354,cs),
(673,354,o),
(710,331,o),
(724,298,cs),
(735,271,o),
(741,228,o),
(741,167,cs),
(741,99,o),
(710,57,o),
(646,57,cs),
(607,57,o),
(561,74,o),
(512,102,c)
);
}
);
width = 880;
},
{
anchors = (
{
name = bottom;
pos = (406,-97);
},
{
name = top;
pos = (441,479);
}
);
layerId = "22847997-2214-411C-BF12-975F69A1246B";
shapes = (
{
closed = 1;
nodes = (
(413,47,l),
(455,13,o),
(523,-11,o),
(575,-11,cs),
(682,-11,o),
(721,63,o),
(721,160,cs),
(721,215,o),
(717,258,o),
(704,293,cs),
(679,361,o),
(630,381,o),
(559,381,cs),
(525,381,o),
(450,371,o),
(369,371,cs),
(229,371,o),
(159,385,o),
(85,420,c),
(74,398,l),
(117,373,o),
(209,346,o),
(353,346,cs),
(373,346,o),
(400,346,o),
(432,348,c),
(392,166,o),
(352,25,o),
(137,25,cs),
(0,25,ls),
(-19,25,o),
(-40,21,o),
(-40,13,cs),
(-40,4,o),
(-19,0,o),
(0,0,cs),
(129,0,ls),
(381,0,o),
(418,164,o),
(458,350,c),
(503,353,o),
(518,356,o),
(559,356,cs),
(621,356,o),
(655,338,o),
(675,295,cs),
(695,251,o),
(695,199,o),
(695,153,cs),
(695,61,o),
(653,14,o),
(577,14,cs),
(532,14,o),
(476,33,o),
(428,67,c)
);
}
);
width = 801;
},
{
anchors = (
{
name = bottom;
pos = (576,-97);
},
{
name = top;
pos = (593,588);
}
);
layerId = "54406707-D089-4649-8539-9EC6A26EE6B0";
shapes = (
{
closed = 1;
nodes = (
(621,33,l),
(674,-3,o),
(724,-18,o),
(775,-18,cs),
(840,-18,o),
(981,6,o),
(981,204,cs),
(981,263,o),
(971,312,o),
(962,345,cs),
(931,457,o),
(849,493,o),
(755,493,cs),
(654,493,o),
(573,472,o),
(448,472,cs),
(349,472,o),
(240,495,o),
(145,537,c),
(82,372,l),
(138,340,o),
(262,303,o),
(404,303,cs),
(436,303,o),
(481,305,o),
(507,308,c),
(476,242,o),
(430,185,o),
(298,185,cs),
(0,185,ls),
(-24,185,o),
(-40,141,o),
(-40,92,cs),
(-40,42,o),
(-24,0,o),
(0,0,cs),
(290,0,ls),
(544,0,o),
(615,147,o),
(666,322,c),
(704,329,o),
(719,329,o),
(734,329,cs),
(770,329,o),
(790,313,o),
(801,297,cs),
(818,272,o),
(822,234,o),
(822,201,cs),
(822,171,o),
(805,147,o),
(769,147,cs),
(746,147,o),
(726,150,o),
(688,165,c)
);
}
);
width = 1035;
}
);
note = uni0721.init;
},
{
glyphname = uni0722;
lastChange = "2022-12-15 11:31:32 +0000";
layers = (
{
anchors = (
{
name = bottom;
pos = (150,-161);
},
{
name = top;
pos = (197,301);
}
);
layerId = m01;
shapes = (
{
closed = 1;
nodes = (
(1102,-223,l),
(799,-146,o),
(728,-122,o),
(437,-23,cs),
(395,-9,o),
(293,29,o),
(237,56,cs),
(205,72,o),
(125,110,o),
(99,110,cs),
(78,110,o),
(59,93,o),
(59,65,cs),
(59,49,o),
(66,33,o),
(91,20,cs),
(141,-7,o),
(238,-39,o),
(359,-78,cs),
(614,-161,o),
(844,-232,o),
(1082,-288,c)
);
}
);
width = 678;
},
{
anchors = (
{
name = bottom;
pos = (160,-161);
},
{
name = top;
pos = (197,301);
}
);
layerId = "22847997-2214-411C-BF12-975F69A1246B";
shapes = (
{
closed = 1;
nodes = (
(971,-244,l),
(762,-184,o),
(669,-157,o),
(398,-64,cs),
(355,-49,o),
(285,-24,o),
(194,14,cs),
(110,49,o),
(87,56,o),
(78,56,cs),
(72,56,o),
(66,53,o),
(66,45,cs),
(66,41,o),
(68,36,o),
(82,28,cs),
(121,6,o),
(251,-41,o),
(360,-79,cs),
(599,-162,o),
(758,-210,o),
(964,-266,c)
);
}
);
width = 560;
},
{
anchors = (
{
name = bottom;
pos = (175,-170);
},
{
name = top;
pos = (215,434);
}
);
layerId = "54406707-D089-4649-8539-9EC6A26EE6B0";
shapes = (
{
closed = 1;
nodes = (
(1314,-183,l),
(978,-92,o),
(653,21,o),
(468,96,cs),
(413,118,o),
(371,136,o),
(300,170,cs),
(233,202,o),
(186,223,o),
(136,223,cs),
(91,223,o),
(49,186,o),
(49,125,cs),
(49,80,o),
(74,55,o),
(113,32,cs),
(175,-5,o),
(332,-54,o),
(458,-89,cs),
(649,-142,o),
(892,-218,o),
(1274,-321,c)
);
}
);
width = 895;
}
);
note = uni0722;
unicode = 1826;
},
{
glyphname = uni0722.fina;
lastChange = "2022-12-15 11:31:32 +0000";
layers = (
{
anchors = (
{
name = bottom;
pos = (123,-391);
},
{
name = top;
pos = (110,286);
}
);
layerId = m01;
shapes = (
{
closed = 1;
nodes = (
(376,-376,l),
(294,-271,o),
(169,-79,o),
(133,22,c),
(136,25,l),
(172,12,o),
(231,0,o),
(278,0,c),
(278,76,l),
(222,76,o),
(185,83,o),
(140,93,cs),
(134,94,o),
(119,98,o),
(112,98,cs),
(82,98,o),
(62,74,o),
(62,35,cs),
(62,10,o),
(67,-9,o),
(73,-25,cs),
(112,-131,o),
(219,-285,o),
(322,-415,c)
);
}
);
width = 278;
},
{
anchors = (
{
name = bottom;
pos = (123,-391);
},
{
name = top;
pos = (110,286);
}
);
layerId = "22847997-2214-411C-BF12-975F69A1246B";
shapes = (
{
closed = 1;
nodes = (
(355,-389,l),
(271,-277,o),
(141,-97,o),
(103,19,c),
(104,21,l),
(131,11,o),
(170,0,o),
(233,0,c),
(233,25,l),
(201,25,o),
(167,29,o),
(129,40,cs),
(112,45,o),
(106,46,o),
(101,46,cs),
(87,46,o),
(80,31,o),
(80,20,cs),
(80,4,o),
(84,-8,o),
(91,-25,cs),
(131,-122,o),
(236,-277,o),
(334,-405,c)
);
}
);
width = 233;
},
{
anchors = (
{
name = bottom;
pos = (106,-425);
},
{
name = top;
pos = (110,400);
}
);
layerId = "54406707-D089-4649-8539-9EC6A26EE6B0";
shapes = (
{
closed = 1;
nodes = (
(450,-355,l),
(350,-213,o),
(232,-18,o),
(219,26,c),
(226,32,l),
(267,15,o),
(316,0,o),
(374,0,c),
(374,185,l),
(356,185,o),
(309,186,o),
(265,195,cs),
(213,206,o),
(183,211,o),
(161,211,cs),
(103,211,o),
(50,169,o),
(50,69,cs),
(50,27,o),
(57,-5,o),
(69,-36,cs),
(114,-156,o),
(215,-299,o),
(331,-443,c)
);
}
);
width = 374;
}
);
note = uni0722.fina;
},
{
glyphname = uni0722.medi;
lastChange = "2022-12-15 11:31:32 +0000";
layers = (
{
anchors = (
{
name = bottom;
pos = (149,-97);
},
{
name = top;
pos = (116,537);
}
);
layerId = m01;
shapes = (
{
closed = 1;
nodes = (
(296,76,l),
(261,76,o),
(231,79,o),
(221,136,cs),
(206,220,o),
(189,326,o),
(173,426,c),
(100,415,l),
(115,310,o),
(127,239,o),
(143,149,cs),
(145,135,o),
(152,108,o),
(157,92,c),
(137,79,o),
(89,76,o),
(54,76,cs),
(0,76,ls),
(-21,76,o),
(-39,61,o),
(-39,38,cs),
(-39,14,o),
(-21,0,o),
(0,0,cs),
(29,0,ls),
(108,0,o),
(154,7,o),
(191,23,c),
(195,23,l),
(213,4,o),
(259,0,o),
(296,0,c)
);
}
);
width = 296;
},
{
anchors = (
{
name = bottom;
pos = (140,-97);
},
{
name = top;
pos = (112,486);
}
);
layerId = "22847997-2214-411C-BF12-975F69A1246B";
shapes = (
{
closed = 1;
nodes = (
(271,25,l),
(219,25,o),
(207,34,o),
(190,114,cs),
(172,198,o),
(161,269,o),
(146,373,c),
(119,368,l),
(136,261,o),
(150,179,o),
(157,142,cs),
(164,105,o),
(175,59,o),
(185,40,c),
(172,26,o),
(114,25,o),
(88,25,cs),
(0,25,ls),
(-19,25,o),
(-40,21,o),
(-40,13,cs),
(-40,4,o),
(-19,0,o),
(0,0,cs),
(86,0,ls),
(130,0,o),
(172,2,o),
(198,18,c),
(201,18,l),
(215,5,o),
(235,0,o),
(271,0,c)
);
}
);
width = 271;
},
{
anchors = (
{
name = bottom;
pos = (166,-97);
},
{
name = top;
pos = (143,607);
}
);
layerId = "54406707-D089-4649-8539-9EC6A26EE6B0";
shapes = (
{
closed = 1;
nodes = (
(380,185,l),
(320,185,o),
(297,189,o),
(286,249,cs),
(276,304,o),
(260,414,o),
(246,506,c),
(84,478,l),
(93,410,o),
(112,299,o),
(124,238,cs),
(128,220,o),
(130,206,o),
(132,199,c),
(118,186,o),
(59,185,o),
(37,185,cs),
(0,185,ls),
(-24,185,o),
(-40,141,o),
(-40,92,cs),
(-40,42,o),
(-24,0,o),
(0,0,cs),
(12,0,ls),
(83,0,o),
(162,9,o),
(209,41,c),
(213,41,l),
(256,6,o),
(301,0,o),
(380,0,c)
);
}
);
width = 380;
}
);
note = uni0722.medi;
},
{
glyphname = uni0722.init;
lastChange = "2022-12-15 11:53:59 +0000";
layers = (
{
anchors = (
{
name = bottom;
pos = (132,-97);
},
{
name = top;
pos = (117,537);
}
);
layerId = m01;
shapes = (
{
closed = 1;
nodes = (
(224,166,o),
(189,333,o),
(168,426,c),
(95,414,l),
(117,315,o),
(153,128,o),
(154,76,c),
(118,76,o),
(83,76,o),
(47,76,c),
(0,76,ls),
(-21,76,o),
(-39,61,o),
(-39,38,cs),
(-39,14,o),
(-21,0,o),
(0,0,cs),
(139,0,ls),
(173,0,o),
(194,10,o),
(207,26,cs),
(220,42,o),
(224,65,o),
(224,89,cs)
);
}
);
width = 291;
},
{
anchors = (
{
name = bottom;
pos = (132,-97);
},
{
name = top;
pos = (114,485);
}
);
layerId = "22847997-2214-411C-BF12-975F69A1246B";
shapes = (
{
closed = 1;
nodes = (
(194,81,o),
(160,289,o),
(140,373,c),
(113,368,l),
(135,280,o),
(167,80,o),
(170,25,c),
(134,25,o),
(99,25,o),
(63,25,c),
(0,25,ls),
(-19,25,o),
(-40,21,o),
(-40,13,cs),
(-40,4,o),
(-19,0,o),
(0,0,cs),
(166,0,ls),
(178,0,o),
(185,3,o),
(189,9,c),
(194,14,o),
(195,22,o),
(195,30,cs)
);
}
);
width = 271;
},
{
anchors = (
{
name = bottom;
pos = (132,-97);
},
{
name = top;
pos = (129,606);
}
);
layerId = "54406707-D089-4649-8539-9EC6A26EE6B0";
shapes = (
{
closed = 1;
nodes = (
(278,258,o),
(263,372,o),
(235,507,c),
(67,479,l),
(92,364,o),
(117,240,o),
(125,189,c),
(118,187,o),
(90,185,o),
(51,185,cs),
(0,185,ls),
(-24,185,o),
(-40,141,o),
(-40,92,cs),
(-40,42,o),
(-24,0,o),
(0,0,cs),
(48,0,ls),
(99,0,o),
(143,3,o),
(173,14,cs),
(241,38,o),
(278,87,o),
(278,179,cs)
);
}
);
width = 346;
}
);
note = uni0722.init;
},
{
glyphname = uni0723;
lastChange = "2022-12-15 11:31:32 +0000";
layers = (
{
anchors = (
{
name = bottom;
pos = (458,-98);
},
{
name = top;
pos = (458,492);
}
);
layerId = m01;
shapes = (
{
closed = 1;
nodes = (
(535,0,ls),
(727,0,o),
(818,36,o),
(818,208,cs),
(818,346,o),
(737,429,o),
(641,429,cs),
(566,429,o),
(495,391,o),
(459,300,c),
(456,300,l),
(426,388,o),
(355,440,o),
(262,440,cs),
(158,440,o),
(68,359,o),
(68,221,cs),
(68,86,o),
(136,0,o),
(307,0,cs)
);
},
{
closed = 1;
nodes = (
(418,76,l),
(304,76,ls),
(221,76,o),
(142,110,o),
(142,222,cs),
(142,320,o),
(199,367,o),
(263,367,cs),
(356,367,o),
(409,290,o),
(414,169,cs)
);
},
{
closed = 1;
nodes = (
(489,76,l),
(486,127,o),
(486,159,o),
(486,177,cs),
(486,295,o),
(565,355,o),
(633,355,cs),
(708,355,o),
(745,289,o),
(745,206,cs),
(745,99,o),
(687,76,o),
(574,76,cs)
);
}
);
width = 886;
},
{
anchors = (
{
name = bottom;
pos = (433,-98);
},
{
name = top;
pos = (432,442);
}
);
layerId = "22847997-2214-411C-BF12-975F69A1246B";
shapes = (
{
closed = 1;
nodes = (
(509,0,ls),
(679,0,o),
(755,31,o),
(755,183,cs),
(755,306,o),
(681,379,o),
(590,379,cs),
(525,379,o),
(453,347,o),
(425,236,c),
(422,236,l),
(400,336,o),
(341,389,o),
(248,389,cs),
(160,389,o),
(78,322,o),
(78,199,cs),
(78,80,o),
(141,0,o),
(292,0,cs)
);
},
{
closed = 1;
nodes = (
(413,25,l),
(288,25,ls),
(198,25,o),
(104,62,o),
(104,195,cs),
(104,310,o),
(176,364,o),
(249,364,cs),
(363,364,o),
(406,268,o),
(410,131,cs)
);
},
{
closed = 1;
nodes = (
(439,25,l),
(436,77,o),
(436,127,o),
(436,146,cs),
(436,277,o),
(498,354,o),
(587,354,cs),
(679,354,o),
(729,279,o),
(729,181,cs),
(729,52,o),
(663,25,o),
(539,25,cs)
);
}
);
width = 833;
},
{
anchors = (
{
name = bottom;
pos = (493,-98);
},
{
name = top;
pos = (510,572);
}
);
layerId = "54406707-D089-4649-8539-9EC6A26EE6B0";
shapes = (
{
closed = 1;
nodes = (
(571,0,ls),
(764,0,o),
(907,46,o),
(907,248,cs),
(907,433,o),
(800,507,o),
(700,507,cs),
(618,507,o),
(554,474,o),
(510,405,c),
(506,405,l),
(471,481,o),
(397,516,o),
(312,516,cs),
(185,516,o),
(68,421,o),
(68,261,cs),
(68,103,o),
(148,0,o),
(346,0,cs)
);
},
{
closed = 1;
nodes = (
(419,185,l),
(327,185,ls),
(258,185,o),
(230,215,o),
(230,268,cs),
(230,313,o),
(267,341,o),
(309,341,cs),
(353,341,o),
(409,325,o),
(415,241,cs)
);
},
{
closed = 1;
nodes = (
(562,185,l),
(564,200,o),
(565,216,o),
(567,231,cs),
(576,310,o),
(618,337,o),
(666,337,cs),
(702,337,o),
(745,321,o),
(745,249,cs),
(745,204,o),
(717,185,o),
(634,185,cs)
);
}
);
width = 963;
}
);
note = uni0723;
unicode = 1827;
},
{
glyphname = uni0723.fina;
lastChange = "2022-12-15 11:31:32 +0000";
layers = (
{
anchors = (
{
name = bottom;
pos = (452,-99);
},
{
name = top;
pos = (457,492);
}
);
layerId = m01;
shapes = (
{
closed = 1;
nodes = (
(891,0,l),
(891,76,l),
(781,76,l),
(781,78,l),
(808,108,o),
(818,156,o),
(818,208,cs),
(818,346,o),
(737,429,o),
(641,429,cs),
(566,429,o),
(495,391,o),
(459,300,c),
(456,300,l),
(426,388,o),
(355,440,o),
(262,440,cs),
(158,440,o),
(68,359,o),
(68,221,cs),
(68,86,o),
(136,0,o),
(307,0,cs)
);
},
{
closed = 1;
nodes = (
(418,76,l),
(304,76,ls),
(221,76,o),
(142,110,o),
(142,222,cs),
(142,320,o),
(199,367,o),
(263,367,cs),
(356,367,o),
(409,289,o),
(414,168,cs)
);
},
{
closed = 1;
nodes = (
(489,76,l),
(486,127,o),
(486,159,o),
(486,177,cs),
(486,295,o),
(565,355,o),
(633,355,cs),
(708,355,o),
(745,289,o),
(745,206,cs),
(745,99,o),
(687,76,o),
(574,76,cs)
);
}
);
width = 891;
},
{
anchors = (
{
name = bottom;
pos = (433,-99);
},
{
name = top;
pos = (433,441);
}
);
layerId = "22847997-2214-411C-BF12-975F69A1246B";
shapes = (
{
closed = 1;
nodes = (
(839,0,l),
(839,25,l),
(678,25,l),
(678,27,l),
(741,56,o),
(755,116,o),
(755,183,cs),
(755,306,o),
(681,379,o),
(590,379,cs),
(525,379,o),
(453,347,o),
(425,236,c),
(422,236,l),
(400,336,o),
(341,389,o),
(248,389,cs),
(160,389,o),
(78,322,o),
(78,199,cs),
(78,80,o),
(141,0,o),
(292,0,cs)
);
},
{
closed = 1;
nodes = (
(413,25,l),
(288,25,ls),
(198,25,o),
(104,62,o),
(104,195,cs),
(104,310,o),
(176,364,o),
(249,364,cs),
(363,364,o),
(406,268,o),
(410,131,cs)
);
},
{
closed = 1;
nodes = (
(439,25,l),
(436,77,o),
(436,127,o),
(436,146,cs),
(436,277,o),
(498,354,o),
(587,354,cs),
(679,354,o),
(729,279,o),
(729,181,cs),
(729,52,o),
(663,25,o),
(539,25,cs)
);
}
);
width = 839;
},
{
anchors = (
{
name = bottom;
pos = (493,-99);
},
{
name = top;
pos = (509,574);
}
);
layerId = "54406707-D089-4649-8539-9EC6A26EE6B0";
shapes = (
{
closed = 1;
nodes = (
(974,0,l),
(974,185,l),
(897,185,l),
(897,187,l),
(904,204,o),
(907,242,o),
(907,258,cs),
(907,433,o),
(800,507,o),
(700,507,cs),
(618,507,o),
(554,474,o),
(510,405,c),
(506,405,l),
(471,481,o),
(397,516,o),
(312,516,cs),
(185,516,o),
(68,421,o),
(68,261,cs),
(68,103,o),
(148,0,o),
(346,0,cs)
);
},
{
closed = 1;
nodes = (
(419,185,l),
(327,185,ls),
(258,185,o),
(230,215,o),
(230,268,cs),
(230,313,o),
(267,341,o),
(309,341,cs),
(353,341,o),
(409,325,o),
(415,241,cs)
);
},
{
closed = 1;
nodes = (
(562,185,l),
(563,200,o),
(565,216,o),
(567,231,cs),
(576,310,o),
(618,337,o),
(666,337,cs),
(702,337,o),
(745,321,o),
(745,249,cs),
(745,204,o),
(717,185,o),
(634,185,cs)
);
}
);
width = 974;
}
);
note = uni0723.fina;
},
{
glyphname = uni0723.medi;
lastChange = "2022-12-15 11:31:32 +0000";
layers = (
{
anchors = (
{
name = bottom;
pos = (457,-99);
},
{
name = top;
pos = (458,491);
}
);
layerId = m01;
shapes = (
{
closed = 1;
nodes = (
(895,0,l),
(895,76,l),
(785,76,l),
(785,78,l),
(812,108,o),
(822,156,o),
(822,208,cs),
(822,346,o),
(742,429,o),
(646,429,cs),
(571,429,o),
(499,391,o),
(464,300,c),
(460,300,l),
(431,388,o),
(360,440,o),
(267,440,cs),
(163,440,o),
(73,364,o),
(73,241,cs),
(73,169,o),
(92,112,o),
(135,78,c),
(135,74,l),
(115,75,o),
(92,76,o),
(74,76,cs),
(0,76,ls),
(-21,76,o),
(-39,61,o),
(-39,38,cs),
(-39,14,o),
(-21,0,o),
(0,0,cs)
);
},
{
closed = 1;
nodes = (
(423,76,l),
(292,76,ls),
(209,76,o),
(146,129,o),
(146,241,cs),
(146,325,o),
(203,367,o),
(268,367,cs),
(361,367,o),
(411,290,o),
(418,169,cs)
);
},
{
closed = 1;
nodes = (
(493,76,l),
(491,127,o),
(491,159,o),
(491,177,cs),
(491,295,o),
(569,355,o),
(638,355,cs),
(712,355,o),
(749,289,o),
(749,206,cs),
(749,99,o),
(691,76,o),
(579,76,cs)
);
}
);
width = 895;
},
{
anchors = (
{
name = bottom;
pos = (437,-99);
},
{
name = top;
pos = (438,440);
}
);
layerId = "22847997-2214-411C-BF12-975F69A1246B";
shapes = (
{
closed = 1;
nodes = (
(844,0,l),
(844,25,l),
(683,25,l),
(683,27,l),
(746,56,o),
(760,116,o),
(760,183,cs),
(760,306,o),
(686,379,o),
(595,379,cs),
(530,379,o),
(458,347,o),
(430,236,c),
(427,236,l),
(405,336,o),
(346,389,o),
(253,389,cs),
(165,389,o),
(83,322,o),
(83,199,cs),
(83,129,o),
(106,56,o),
(180,23,c),
(180,21,l),
(159,24,o),
(124,25,o),
(106,25,cs),
(0,25,ls),
(-19,25,o),
(-40,21,o),
(-40,13,cs),
(-40,4,o),
(-19,0,o),
(0,0,cs)
);
},
{
closed = 1;
nodes = (
(418,25,l),
(293,25,ls),
(203,25,o),
(109,62,o),
(109,195,cs),
(109,310,o),
(181,364,o),
(254,364,cs),
(368,364,o),
(411,268,o),
(415,131,cs)
);
},
{
closed = 1;
nodes = (
(444,25,l),
(441,77,o),
(441,127,o),
(441,146,cs),
(441,277,o),
(503,354,o),
(592,354,cs),
(684,354,o),
(734,279,o),
(734,181,cs),
(734,52,o),
(668,25,o),
(544,25,cs)
);
}
);
width = 844;
},
{
anchors = (
{
name = bottom;
pos = (495,-99);
},
{
name = top;
pos = (508,573);
}
);
layerId = "54406707-D089-4649-8539-9EC6A26EE6B0";
shapes = (
{
closed = 1;
nodes = (
(973,0,l),
(973,185,l),
(896,185,l),
(896,187,l),
(903,204,o),
(906,242,o),
(906,258,cs),
(906,433,o),
(799,507,o),
(699,507,cs),
(617,507,o),
(553,474,o),
(509,405,c),
(505,405,l),
(470,481,o),
(396,516,o),
(311,516,cs),
(184,516,o),
(67,421,o),
(67,261,cs),
(67,242,o),
(69,205,o),
(79,186,c),
(79,183,l),
(43,185,o),
(34,185,o),
(5,185,cs),
(0,185,ls),
(-24,185,o),
(-40,141,o),
(-40,92,cs),
(-40,42,o),
(-24,0,o),
(0,0,cs)
);
},
{
closed = 1;
nodes = (
(418,185,l),
(326,185,ls),
(257,185,o),
(229,215,o),
(229,268,cs),
(229,313,o),
(266,341,o),
(308,341,cs),
(352,341,o),
(408,325,o),
(414,241,cs)
);
},
{
closed = 1;
nodes = (
(561,185,l),
(562,199,o),
(564,216,o),
(566,231,cs),
(575,310,o),
(617,337,o),
(665,337,cs),
(701,337,o),
(744,321,o),
(744,249,cs),
(744,204,o),
(716,185,o),
(633,185,cs)
);
}
);
width = 973;
}
);
note = uni0723.medi;
},
{
glyphname = uni0723.init;
lastChange = "2022-12-15 11:31:32 +0000";
layers = (
{
anchors = (
{
name = bottom;
pos = (458,-98);
},
{
name = top;
pos = (458,491);
}
);
layerId = m01;
shapes = (
{
closed = 1;
nodes = (
(540,0,ls),
(629,0,o),
(742,3,o),
(792,80,cs),
(812,110,o),
(822,151,o),
(822,208,cs),
(822,346,o),
(742,429,o),
(646,429,cs),
(571,429,o),
(499,391,o),
(464,300,c),
(460,300,l),
(431,388,o),
(360,440,o),
(267,440,cs),
(163,440,o),
(73,364,o),
(73,241,cs),
(73,169,o),
(92,112,o),
(135,78,c),
(135,74,l),
(115,75,o),
(92,76,o),
(74,76,cs),
(0,76,ls),
(-21,76,o),
(-39,61,o),
(-39,38,cs),
(-39,14,o),
(-21,0,o),
(0,0,cs)
);
},
{
closed = 1;
nodes = (
(423,76,l),
(292,76,ls),
(209,76,o),
(146,129,o),
(146,241,cs),
(146,325,o),
(203,367,o),
(268,367,cs),
(361,367,o),
(411,290,o),
(418,169,cs)
);
},
{
closed = 1;
nodes = (
(493,76,l),
(491,127,o),
(491,159,o),
(491,177,cs),
(491,295,o),
(569,355,o),
(638,355,cs),
(712,355,o),
(749,289,o),
(749,206,cs),
(749,99,o),
(691,76,o),
(579,76,cs)
);
}
);
width = 890;
},
{
anchors = (
{
name = bottom;
pos = (438,-98);
},
{
name = top;
pos = (437,440);
}
);
layerId = "22847997-2214-411C-BF12-975F69A1246B";
shapes = (
{
closed = 1;
nodes = (
(514,0,ls),
(619,0,o),
(687,11,o),
(725,56,cs),
(748,84,o),
(760,125,o),
(760,183,cs),
(760,306,o),
(686,379,o),
(595,379,cs),
(530,379,o),
(458,347,o),
(430,236,c),
(427,236,l),
(405,336,o),
(346,389,o),
(253,389,cs),
(165,389,o),
(83,322,o),
(83,199,cs),
(83,129,o),
(106,56,o),
(180,23,c),
(180,21,l),
(159,24,o),
(124,25,o),
(106,25,cs),
(0,25,ls),
(-19,25,o),
(-40,21,o),
(-40,13,cs),
(-40,4,o),
(-19,0,o),
(0,0,cs)
);
},
{
closed = 1;
nodes = (
(418,25,l),
(293,25,ls),
(203,25,o),
(109,62,o),
(109,195,cs),
(109,310,o),
(181,364,o),
(254,364,cs),
(368,364,o),
(411,268,o),
(415,131,cs)
);
},
{
closed = 1;
nodes = (
(444,25,l),
(441,77,o),
(441,127,o),
(441,146,cs),
(441,277,o),
(503,354,o),
(592,354,cs),
(684,354,o),
(734,279,o),
(734,181,cs),
(734,52,o),
(668,25,o),
(544,25,cs)
);
}
);
width = 838;
},
{
anchors = (
{
name = bottom;
pos = (496,-98);
},
{
name = top;
pos = (507,571);
}
);
layerId = "54406707-D089-4649-8539-9EC6A26EE6B0";
shapes = (
{
closed = 1;
nodes = (
(570,0,ls),
(683,0,o),
(779,16,o),
(839,70,cs),
(881,108,o),
(906,164,o),
(906,248,cs),
(906,433,o),
(799,507,o),
(699,507,cs),
(617,507,o),
(553,474,o),
(509,405,c),
(505,405,l),
(470,481,o),
(396,516,o),
(311,516,cs),
(184,516,o),
(67,421,o),
(67,261,cs),
(67,242,o),
(69,205,o),
(79,186,c),
(79,183,l),
(43,185,o),
(34,185,o),
(5,185,cs),
(0,185,ls),
(-24,185,o),
(-40,141,o),
(-40,92,cs),
(-40,42,o),
(-24,0,o),
(0,0,cs)
);
},
{
closed = 1;
nodes = (
(418,185,l),
(326,185,ls),
(257,185,o),
(229,215,o),
(229,268,cs),
(229,313,o),
(266,341,o),
(308,341,cs),
(352,341,o),
(408,325,o),
(414,241,cs)
);
},
{
closed = 1;
nodes = (
(561,185,l),
(562,200,o),
(564,216,o),
(566,231,cs),
(575,310,o),
(617,337,o),
(665,337,cs),
(701,337,o),
(744,321,o),
(744,249,cs),
(744,204,o),
(716,185,o),
(633,185,cs)
);
}
);
width = 962;
}
);
note = uni0723.init;
},
{
glyphname = uni0724;
lastChange = "2023-01-02 14:51:01 +0000";
layers = (
{
anchors = (
{
name = bottom;
pos = (454,-97);
},
{
name = top;
pos = (458,491);
}
);
layerId = m01;
shapes = (
{
closed = 1;
nodes = (
(535,0,l),
(727,0,o),
(818,36,o),
(818,208,cs),
(818,346,o),
(737,429,o),
(641,429,cs),
(566,429,o),
(495,391,o),
(459,300,c),
(456,300,l),
(426,388,o),
(355,440,o),
(262,440,cs),
(158,440,o),
(68,359,o),
(68,221,cs),
(68,86,o),
(136,0,o),
(307,0,cs)
);
},
{
closed = 1;
nodes = (
(418,76,l),
(304,76,ls),
(221,76,o),
(142,110,o),
(142,222,cs),
(142,320,o),
(199,367,o),
(263,367,cs),
(356,367,o),
(409,289,o),
(414,168,cs)
);
},
{
closed = 1;
nodes = (
(489,76,l),
(486,127,o),
(486,159,o),
(486,177,cs),
(486,295,o),
(565,355,o),
(633,355,cs),
(708,355,o),
(745,289,o),
(745,206,cs),
(745,99,o),
(687,76,o),
(574,76,cs)
);
},
{
closed = 1;
nodes = (
(418,-70,l),
(491,-70,l),
(490,5,l),
(418,5,l)
);
}
);
width = 886;
},
{
anchors = (
{
name = bottom;
pos = (434,-97);
},
{
name = top;
pos = (433,443);
}
);
layerId = "22847997-2214-411C-BF12-975F69A1246B";
shapes = (
{
closed = 1;
nodes = (
(509,0,ls),
(679,0,o),
(755,31,o),
(755,183,cs),
(755,306,o),
(681,379,o),
(590,379,cs),
(525,379,o),
(453,347,o),
(425,236,c),
(422,236,l),
(400,336,o),
(341,389,o),
(248,389,cs),
(160,389,o),
(78,322,o),
(78,199,cs),
(78,80,o),
(141,0,o),
(292,0,cs)
);
},
{
closed = 1;
nodes = (
(413,25,l),
(288,25,ls),
(198,25,o),
(104,62,o),
(104,195,cs),
(104,310,o),
(176,364,o),
(249,364,cs),
(363,364,o),
(406,268,o),
(410,131,cs)
);
},
{
closed = 1;
nodes = (
(439,25,l),
(436,77,o),
(436,127,o),
(436,146,cs),
(436,277,o),
(498,354,o),
(587,354,cs),
(679,354,o),
(729,279,o),
(729,181,cs),
(729,52,o),
(663,25,o),
(539,25,cs)
);
},
{
closed = 1;
nodes = (
(413,-30,l),
(439,-30,l),
(439,6,l),
(413,6,l)
);
}
);
width = 833;
},
{
anchors = (
{
name = bottom;
pos = (494,-117);
},
{
name = top;
pos = (509,572);
}
);
layerId = "54406707-D089-4649-8539-9EC6A26EE6B0";
shapes = (
{
closed = 1;
nodes = (
(571,0,ls),
(764,0,o),
(907,46,o),
(907,248,cs),
(907,433,o),
(800,507,o),
(700,507,cs),
(618,507,o),
(554,474,o),
(510,405,c),
(506,405,l),
(471,481,o),
(397,516,o),
(312,516,cs),
(185,516,o),
(68,421,o),
(68,261,cs),
(68,103,o),
(148,0,o),
(346,0,cs)
);
},
{
closed = 1;
nodes = (
(419,185,l),
(327,185,ls),
(258,185,o),
(230,215,o),
(230,268,cs),
(230,313,o),
(267,341,o),
(309,341,cs),
(353,341,o),
(409,325,o),
(415,241,cs)
);
},
{
closed = 1;
nodes = (
(562,185,l),
(564,200,o),
(565,216,o),
(567,231,cs),
(576,310,o),
(618,337,o),
(666,337,cs),
(702,337,o),
(745,321,o),
(745,249,cs),
(745,204,o),
(717,185,o),
(634,185,cs)
);
},
{
closed = 1;
nodes = (
(418,-90,l),
(563,-90,l),
(562,5,l),
(418,5,l)
);
}
);
width = 963;
}
);
note = uni0724;
unicode = 1828;
},
{
glyphname = uni0724.fina;
lastChange = "2024-05-21 08:05:26 +0000";
layers = (
{
anchors = (
{
name = bottom;
pos = (453,-97);
},
{
name = top;
pos = (456,491);
}
);
layerId = m01;
shapes = (
{
closed = 1;
nodes = (
(891,0,l),
(891,76,l),
(781,76,l),
(781,78,l),
(808,108,o),
(818,156,o),
(818,208,cs),
(818,346,o),
(737,429,o),
(641,429,cs),
(566,429,o),
(495,391,o),
(459,300,c),
(456,300,l),
(426,388,o),
(355,440,o),
(262,440,cs),
(158,440,o),
(68,359,o),
(68,221,cs),
(68,86,o),
(136,0,o),
(307,0,cs)
);
},
{
closed = 1;
nodes = (
(418,76,l),
(304,76,ls),
(221,76,o),
(142,110,o),
(142,222,cs),
(142,320,o),
(199,367,o),
(263,367,cs),
(356,367,o),
(409,290,o),
(414,169,cs)
);
},
{
closed = 1;
nodes = (
(489,76,l),
(486,127,o),
(486,159,o),
(486,177,cs),
(486,295,o),
(565,355,o),
(633,355,cs),
(708,355,o),
(745,289,o),
(745,206,cs),
(745,99,o),
(687,76,o),
(574,76,cs)
);
},
{
closed = 1;
nodes = (
(418,-70,l),
(491,-70,l),
(490,5,l),
(418,5,l)
);
}
);
width = 891;
},
{
anchors = (
{
name = bottom;
pos = (433,-97);
},
{
name = top;
pos = (433,443);
}
);
layerId = "22847997-2214-411C-BF12-975F69A1246B";
shapes = (
{
closed = 1;
nodes = (
(839,0,l),
(839,25,l),
(678,25,l),
(678,27,l),
(741,56,o),
(755,116,o),
(755,183,cs),
(755,306,o),
(681,379,o),
(590,379,cs),
(525,379,o),
(453,347,o),
(425,236,c),
(422,236,l),
(400,336,o),
(341,389,o),
(248,389,cs),
(160,389,o),
(78,322,o),
(78,199,cs),
(78,80,o),
(141,0,o),
(292,0,cs)
);
},
{
closed = 1;
nodes = (
(413,25,l),
(288,25,ls),
(198,25,o),
(104,62,o),
(104,195,cs),
(104,310,o),
(176,364,o),
(249,364,cs),
(363,364,o),
(406,268,o),
(410,131,cs)
);
},
{
closed = 1;
nodes = (
(439,25,l),
(436,77,o),
(436,127,o),
(436,146,cs),
(436,277,o),
(498,354,o),
(587,354,cs),
(679,354,o),
(729,279,o),
(729,181,cs),
(729,52,o),
(663,25,o),
(539,25,cs)
);
},
{
closed = 1;
nodes = (
(413,-30,l),
(439,-30,l),
(439,6,l),
(413,6,l)
);
}
);
width = 839;
},
{
anchors = (
{
name = bottom;
pos = (493,-97);
},
{
name = top;
pos = (510,573);
}
);
layerId = "54406707-D089-4649-8539-9EC6A26EE6B0";
shapes = (
{
closed = 1;
nodes = (
(974,0,l),
(974,185,l),
(897,185,l),
(897,187,l),
(904,204,o),
(907,242,o),
(907,258,cs),
(907,433,o),
(800,507,o),
(700,507,cs),
(618,507,o),
(554,474,o),
(510,405,c),
(506,405,l),
(471,481,o),
(397,516,o),
(312,516,cs),
(185,516,o),
(68,421,o),
(68,261,cs),
(68,103,o),
(148,0,o),
(346,0,cs)
);
},
{
closed = 1;
nodes = (
(419,185,l),
(327,185,ls),
(258,185,o),
(230,215,o),
(230,268,cs),
(230,313,o),
(267,341,o),
(309,341,cs),
(353,341,o),
(409,325,o),
(415,241,cs)
);
},
{
closed = 1;
nodes = (
(562,185,l),
(564,200,o),
(565,216,o),
(567,231,cs),
(576,310,o),
(618,337,o),
(666,337,cs),
(702,337,o),
(745,321,o),
(745,249,cs),
(745,204,o),
(717,185,o),
(634,185,cs)
);
},
{
closed = 1;
nodes = (
(418,-90,l),
(563,-90,l),
(562,5,l),
(418,5,l)
);
}
);
width = 974;
}
);
note = uni0724.fina;
},
{
glyphname = uni0724.medi;
lastChange = "2022-12-15 11:31:32 +0000";
layers = (
{
anchors = (
{
name = bottom;
pos = (458,-98);
},
{
name = top;
pos = (458,491);
}
);
layerId = m01;
shapes = (
{
closed = 1;
nodes = (
(895,0,l),
(895,76,l),
(785,76,l),
(785,78,l),
(812,108,o),
(822,156,o),
(822,208,cs),
(822,346,o),
(742,429,o),
(646,429,cs),
(571,429,o),
(499,391,o),
(464,300,c),
(460,300,l),
(431,388,o),
(360,440,o),
(267,440,cs),
(163,440,o),
(73,364,o),
(73,241,cs),
(73,169,o),
(92,112,o),
(135,78,c),
(135,74,l),
(115,75,o),
(92,76,o),
(74,76,cs),
(0,76,ls),
(-21,76,o),
(-39,61,o),
(-39,38,cs),
(-39,14,o),
(-21,0,o),
(0,0,cs)
);
},
{
closed = 1;
nodes = (
(423,76,l),
(292,76,ls),
(209,76,o),
(146,129,o),
(146,241,cs),
(146,325,o),
(203,367,o),
(268,367,cs),
(361,367,o),
(411,290,o),
(418,169,cs)
);
},
{
closed = 1;
nodes = (
(493,76,l),
(491,127,o),
(491,159,o),
(491,177,cs),
(491,295,o),
(569,355,o),
(638,355,cs),
(712,355,o),
(749,289,o),
(749,206,cs),
(749,99,o),
(691,76,o),
(579,76,cs)
);
}
);
width = 896;
},
{
anchors = (
{
name = bottom;
pos = (438,-98);
},
{
name = top;
pos = (438,442);
}
);
layerId = "22847997-2214-411C-BF12-975F69A1246B";
shapes = (
{
closed = 1;
nodes = (
(844,0,l),
(844,25,l),
(683,25,l),
(683,27,l),
(746,56,o),
(760,116,o),
(760,183,cs),
(760,306,o),
(686,379,o),
(595,379,cs),
(530,379,o),
(458,347,o),
(430,236,c),
(427,236,l),
(405,336,o),
(346,389,o),
(253,389,cs),
(165,389,o),
(83,322,o),
(83,199,cs),
(83,129,o),
(106,56,o),
(180,23,c),
(180,21,l),
(159,24,o),
(124,25,o),
(106,25,cs),
(0,25,ls),
(-19,25,o),
(-40,21,o),
(-40,13,cs),
(-40,4,o),
(-19,0,o),
(0,0,cs)
);
},
{
closed = 1;
nodes = (
(418,25,l),
(293,25,ls),
(203,25,o),
(109,62,o),
(109,195,cs),
(109,310,o),
(181,364,o),
(254,364,cs),
(368,364,o),
(411,268,o),
(415,131,cs)
);
},
{
closed = 1;
nodes = (
(444,25,l),
(441,77,o),
(441,127,o),
(441,146,cs),
(441,277,o),
(503,354,o),
(592,354,cs),
(684,354,o),
(734,279,o),
(734,181,cs),
(734,52,o),
(668,25,o),
(544,25,cs)
);
}
);
width = 844;
},
{
anchors = (
{
name = bottom;
pos = (491,-98);
},
{
name = top;
pos = (508,572);
}
);
layerId = "54406707-D089-4649-8539-9EC6A26EE6B0";
shapes = (
{
closed = 1;
nodes = (
(973,0,l),
(973,185,l),
(896,185,l),
(896,187,l),
(903,204,o),
(906,242,o),
(906,258,cs),
(906,433,o),
(799,507,o),
(699,507,cs),
(617,507,o),
(553,474,o),
(509,405,c),
(505,405,l),
(470,481,o),
(396,516,o),
(311,516,cs),
(184,516,o),
(67,421,o),
(67,261,cs),
(67,242,o),
(69,205,o),
(79,186,c),
(79,183,l),
(43,185,o),
(34,185,o),
(5,185,cs),
(0,185,ls),
(-24,185,o),
(-40,141,o),
(-40,92,cs),
(-40,42,o),
(-24,0,o),
(0,0,cs)
);
},
{
closed = 1;
nodes = (
(418,185,l),
(326,185,ls),
(257,185,o),
(229,215,o),
(229,268,cs),
(229,313,o),
(266,341,o),
(308,341,cs),
(352,341,o),
(408,325,o),
(414,241,cs)
);
},
{
closed = 1;
nodes = (
(561,185,l),
(562,200,o),
(564,216,o),
(566,231,cs),
(575,310,o),
(617,337,o),
(665,337,cs),
(701,337,o),
(744,321,o),
(744,249,cs),
(744,204,o),
(716,185,o),
(633,185,cs)
);
}
);
width = 973;
}
);
note = uni0724.medi;
},
{
glyphname = uni0724.init;
lastChange = "2022-12-15 11:31:32 +0000";
layers = (
{
anchors = (
{
name = bottom;
pos = (458,-98);
},
{
name = top;
pos = (458,492);
}
);
layerId = m01;
shapes = (
{
closed = 1;
nodes = (
(540,0,ls),
(629,0,o),
(742,3,o),
(792,80,cs),
(812,110,o),
(822,151,o),
(822,208,cs),
(822,346,o),
(742,429,o),
(646,429,cs),
(571,429,o),
(499,391,o),
(464,300,c),
(460,300,l),
(431,388,o),
(360,440,o),
(267,440,cs),
(163,440,o),
(73,364,o),
(73,241,cs),
(73,169,o),
(92,112,o),
(135,78,c),
(135,74,l),
(115,75,o),
(92,76,o),
(74,76,cs),
(0,76,ls),
(-21,76,o),
(-39,61,o),
(-39,38,cs),
(-39,14,o),
(-21,0,o),
(0,0,cs)
);
},
{
closed = 1;
nodes = (
(423,76,l),
(292,76,ls),
(209,76,o),
(146,129,o),
(146,241,cs),
(146,325,o),
(203,367,o),
(268,367,cs),
(361,367,o),
(411,290,o),
(418,169,cs)
);
},
{
closed = 1;
nodes = (
(493,76,l),
(491,127,o),
(491,159,o),
(491,177,cs),
(491,295,o),
(569,355,o),
(638,355,cs),
(712,355,o),
(749,289,o),
(749,206,cs),
(749,99,o),
(691,76,o),
(579,76,cs)
);
}
);
width = 890;
},
{
anchors = (
{
name = bottom;
pos = (438,-98);
},
{
name = top;
pos = (438,441);
}
);
layerId = "22847997-2214-411C-BF12-975F69A1246B";
shapes = (
{
closed = 1;
nodes = (
(514,0,ls),
(619,0,o),
(687,11,o),
(725,56,cs),
(748,84,o),
(760,125,o),
(760,183,cs),
(760,306,o),
(686,379,o),
(595,379,cs),
(530,379,o),
(458,347,o),
(430,236,c),
(427,236,l),
(405,336,o),
(346,389,o),
(253,389,cs),
(165,389,o),
(83,322,o),
(83,199,cs),
(83,129,o),
(106,56,o),
(180,23,c),
(180,21,l),
(159,24,o),
(124,25,o),
(106,25,cs),
(0,25,ls),
(-19,25,o),
(-40,21,o),
(-40,13,cs),
(-40,4,o),
(-19,0,o),
(0,0,cs)
);
},
{
closed = 1;
nodes = (
(418,25,l),
(293,25,ls),
(203,25,o),
(109,62,o),
(109,195,cs),
(109,310,o),
(181,364,o),
(254,364,cs),
(368,364,o),
(411,268,o),
(415,131,cs)
);
},
{
closed = 1;
nodes = (
(444,25,l),
(441,77,o),
(441,127,o),
(441,146,cs),
(441,277,o),
(503,354,o),
(592,354,cs),
(684,354,o),
(734,279,o),
(734,181,cs),
(734,52,o),
(668,25,o),
(544,25,cs)
);
}
);
width = 838;
},
{
anchors = (
{
name = bottom;
pos = (491,-98);
},
{
name = top;
pos = (506,570);
}
);
layerId = "54406707-D089-4649-8539-9EC6A26EE6B0";
shapes = (
{
closed = 1;
nodes = (
(570,0,ls),
(683,0,o),
(779,16,o),
(839,70,cs),
(881,108,o),
(906,164,o),
(906,248,cs),
(906,433,o),
(799,507,o),
(699,507,cs),
(617,507,o),
(553,474,o),
(509,405,c),
(505,405,l),
(470,481,o),
(396,516,o),
(311,516,cs),
(184,516,o),
(67,421,o),
(67,261,cs),
(67,242,o),
(69,205,o),
(79,186,c),
(79,183,l),
(43,185,o),
(34,185,o),
(5,185,cs),
(0,185,ls),
(-24,185,o),
(-40,141,o),
(-40,92,cs),
(-40,42,o),
(-24,0,o),
(0,0,cs)
);
},
{
closed = 1;
nodes = (
(418,185,l),
(326,185,ls),
(257,185,o),
(229,215,o),
(229,268,cs),
(229,313,o),
(266,341,o),
(308,341,cs),
(352,341,o),
(408,325,o),
(414,241,cs)
);
},
{
closed = 1;
nodes = (
(561,185,l),
(563,200,o),
(564,216,o),
(566,231,cs),
(575,310,o),
(617,337,o),
(665,337,cs),
(701,337,o),
(744,321,o),
(744,249,cs),
(744,204,o),
(716,185,o),
(633,185,cs)
);
}
);
width = 962;
}
);
note = uni0724.init;
},
{
glyphname = uni0725;
lastChange = "2022-12-15 11:31:32 +0000";
layers = (
{
anchors = (
{
name = bottom;
pos = (452,-98);
},
{
name = top;
pos = (462,488);
}
);
layerId = m01;
shapes = (
{
closed = 1;
nodes = (
(904,0,l),
(904,76,l),
(868,76,ls),
(787,76,o),
(737,87,o),
(698,107,cs),
(553,182,o),
(415,363,o),
(371,427,c),
(307,383,l),
(354,311,o),
(458,175,o),
(607,78,c),
(607,72,l),
(586,73,o),
(491,76,o),
(472,76,cs),
(268,76,ls),
(167,76,o),
(132,87,o),
(101,131,c),
(49,85,l),
(73,33,o),
(120,0,o),
(230,0,cs)
);
}
);
width = 953;
},
{
anchors = (
{
name = bottom;
pos = (426,-98);
},
{
name = top;
pos = (419,439);
}
);
layerId = "22847997-2214-411C-BF12-975F69A1246B";
shapes = (
{
closed = 1;
nodes = (
(828,0,l),
(828,25,l),
(794,25,ls),
(708,25,o),
(683,37,o),
(641,60,cs),
(510,131,o),
(378,299,o),
(326,378,c),
(305,362,l),
(353,283,o),
(518,82,o),
(651,26,c),
(651,24,l),
(631,25,o),
(514,25,o),
(495,25,cs),
(228,25,ls),
(137,25,o),
(106,34,o),
(77,73,c),
(60,53,l),
(77,23,o),
(113,0,o),
(197,0,cs)
);
}
);
width = 888;
},
{
anchors = (
{
name = bottom;
pos = (478,-96);
},
{
name = top;
pos = (569,591);
}
);
layerId = "54406707-D089-4649-8539-9EC6A26EE6B0";
shapes = (
{
closed = 1;
nodes = (
(978,0,l),
(978,182,l),
(960,182,ls),
(903,182,o),
(842,187,o),
(787,214,cs),
(682,266,o),
(550,431,o),
(476,529,c),
(324,405,l),
(382,317,o),
(510,205,o),
(559,183,c),
(559,178,l),
(538,179,o),
(408,185,o),
(391,185,cs),
(375,185,ls),
(266,185,o),
(205,207,o),
(163,250,c),
(38,138,l),
(79,41,o),
(174,0,o),
(329,0,cs)
);
}
);
width = 1016;
}
);
note = uni0725;
unicode = 1829;
},
{
glyphname = uni0725.fina;
lastChange = "2022-12-15 11:31:32 +0000";
layers = (
{
anchors = (
{
name = bottom;
pos = (452,-98);
},
{
name = top;
pos = (461,488);
}
);
layerId = m01;
shapes = (
{
closed = 1;
nodes = (
(743,0,l),
(743,76,l),
(720,76,o),
(694,90,o),
(672,106,cs),
(559,192,o),
(426,347,o),
(369,427,c),
(305,383,l),
(354,311,o),
(502,139,o),
(597,78,c),
(597,72,l),
(577,73,o),
(481,76,o),
(462,76,cs),
(268,76,ls),
(167,76,o),
(132,87,o),
(101,131,c),
(49,85,l),
(73,33,o),
(120,0,o),
(230,0,cs)
);
}
);
width = 743;
},
{
anchors = (
{
name = bottom;
pos = (426,-98);
},
{
name = top;
pos = (419,439);
}
);
layerId = "22847997-2214-411C-BF12-975F69A1246B";
shapes = (
{
closed = 1;
nodes = (
(698,0,l),
(698,25,l),
(677,25,o),
(650,41,o),
(639,48,cs),
(508,131,o),
(367,299,o),
(315,378,c),
(294,362,l),
(342,283,o),
(531,68,o),
(631,26,c),
(631,24,l),
(611,25,o),
(502,25,o),
(483,25,cs),
(228,25,ls),
(137,25,o),
(106,34,o),
(77,73,c),
(60,53,l),
(77,23,o),
(113,0,o),
(197,0,cs)
);
}
);
width = 698;
},
{
anchors = (
{
name = bottom;
pos = (478,-98);
},
{
name = top;
pos = (569,591);
}
);
layerId = "54406707-D089-4649-8539-9EC6A26EE6B0";
shapes = (
{
closed = 1;
nodes = (
(844,0,l),
(844,185,l),
(836,185,o),
(815,190,o),
(795,200,cs),
(690,252,o),
(551,431,o),
(477,529,c),
(324,405,l),
(382,317,o),
(510,205,o),
(559,183,c),
(559,178,l),
(538,179,o),
(408,185,o),
(391,185,cs),
(375,185,ls),
(266,185,o),
(205,207,o),
(163,250,c),
(38,138,l),
(79,41,o),
(174,0,o),
(329,0,cs)
);
}
);
width = 844;
}
);
note = uni0725.fina;
},
{
glyphname = uni0725.medi;
lastChange = "2022-12-15 11:31:32 +0000";
layers = (
{
anchors = (
{
name = bottom;
pos = (272,-98);
},
{
name = top;
pos = (220,488);
}
);
layerId = m01;
shapes = (
{
closed = 1;
nodes = (
(500,0,l),
(500,76,l),
(477,76,o),
(450,90,o),
(429,106,cs),
(315,192,o),
(183,347,o),
(125,427,c),
(61,383,l),
(110,311,o),
(259,139,o),
(354,78,c),
(354,72,l),
(333,73,o),
(237,76,o),
(219,76,cs),
(0,76,ls),
(-21,76,o),
(-39,61,o),
(-39,38,cs),
(-39,14,o),
(-21,0,o),
(0,0,cs)
);
}
);
width = 500;
},
{
anchors = (
{
name = bottom;
pos = (248,-98);
},
{
name = top;
pos = (214,441);
}
);
layerId = "22847997-2214-411C-BF12-975F69A1246B";
shapes = (
{
closed = 1;
nodes = (
(491,0,l),
(491,25,l),
(470,25,o),
(443,41,o),
(432,48,cs),
(301,131,o),
(160,299,o),
(108,378,c),
(87,362,l),
(135,283,o),
(324,68,o),
(424,26,c),
(424,24,l),
(404,25,o),
(295,25,o),
(276,25,cs),
(0,25,ls),
(-19,25,o),
(-40,21,o),
(-40,13,cs),
(-40,4,o),
(-19,0,o),
(0,0,cs)
);
}
);
width = 491;
},
{
anchors = (
{
name = bottom;
pos = (273,-98);
},
{
name = top;
pos = (292,591);
}
);
layerId = "54406707-D089-4649-8539-9EC6A26EE6B0";
shapes = (
{
closed = 1;
nodes = (
(568,0,l),
(568,185,l),
(560,185,o),
(539,190,o),
(519,200,cs),
(414,252,o),
(274,431,o),
(200,529,c),
(40,417,l),
(103,321,o),
(221,210,o),
(270,188,c),
(270,183,l),
(249,184,o),
(169,185,o),
(152,185,cs),
(0,185,ls),
(-24,185,o),
(-40,141,o),
(-40,92,cs),
(-40,42,o),
(-24,0,o),
(0,0,cs)
);
}
);
width = 568;
}
);
note = uni0725.medi;
},
{
glyphname = uni0725.init;
lastChange = "2022-12-15 11:31:32 +0000";
layers = (
{
anchors = (
{
name = bottom;
pos = (272,-98);
},
{
name = top;
pos = (222,488);
}
);
layerId = m01;
shapes = (
{
closed = 1;
nodes = (
(660,0,l),
(660,76,l),
(624,76,ls),
(543,76,o),
(493,87,o),
(455,107,cs),
(310,182,o),
(171,363,o),
(127,427,c),
(63,383,l),
(111,311,o),
(215,175,o),
(363,78,c),
(363,72,l),
(326,74,o),
(247,76,o),
(229,76,cs),
(0,76,ls),
(-21,76,o),
(-39,61,o),
(-39,38,cs),
(-39,14,o),
(-21,0,o),
(0,0,cs)
);
}
);
width = 709;
},
{
anchors = (
{
name = bottom;
pos = (246,-98);
},
{
name = top;
pos = (213,439);
}
);
layerId = "22847997-2214-411C-BF12-975F69A1246B";
shapes = (
{
closed = 1;
nodes = (
(610,0,l),
(610,25,l),
(576,25,ls),
(490,25,o),
(465,37,o),
(423,60,cs),
(292,131,o),
(160,299,o),
(108,378,c),
(87,362,l),
(135,283,o),
(300,82,o),
(433,26,c),
(433,24,l),
(413,25,o),
(296,25,o),
(277,25,cs),
(0,25,ls),
(-19,25,o),
(-40,21,o),
(-40,13,cs),
(-40,4,o),
(-19,0,o),
(0,0,cs)
);
}
);
width = 670;
},
{
anchors = (
{
name = bottom;
pos = (321,-98);
},
{
name = top;
pos = (292,588);
}
);
layerId = "54406707-D089-4649-8539-9EC6A26EE6B0";
shapes = (
{
closed = 1;
nodes = (
(702,0,l),
(702,182,l),
(684,182,ls),
(627,182,o),
(566,187,o),
(511,214,cs),
(406,266,o),
(274,431,o),
(200,529,c),
(40,417,l),
(103,321,o),
(221,210,o),
(270,188,c),
(270,183,l),
(249,184,o),
(169,185,o),
(152,185,cs),
(0,185,ls),
(-24,185,o),
(-40,141,o),
(-40,92,cs),
(-40,42,o),
(-24,0,o),
(0,0,cs)
);
}
);
width = 740;
}
);
note = uni0725.init;
},
{
glyphname = uni0726;
lastChange = "2022-12-15 11:31:32 +0000";
layers = (
{
anchors = (
{
name = bottom;
pos = (417,-96);
},
{
name = bottomright;
pos = (737,-94);
},
{
name = top;
pos = (462,634);
},
{
name = topright;
pos = (700,558);
}
);
layerId = m01;
shapes = (
{
closed = 1;
nodes = (
(712,0,ls),
(757,0,o),
(785,29,o),
(785,83,cs),
(785,103,o),
(777,137,o),
(761,186,cs),
(741,248,o),
(715,319,o),
(693,373,cs),
(632,523,o),
(575,552,o),
(489,552,cs),
(398,552,o),
(307,467,o),
(307,353,cs),
(307,233,o),
(392,202,o),
(510,202,cs),
(560,202,o),
(618,208,o),
(672,226,c),
(690,177,o),
(707,123,o),
(716,76,c),
(268,76,ls),
(167,76,o),
(132,87,o),
(101,131,c),
(49,85,l),
(73,33,o),
(120,0,o),
(230,0,cs)
);
},
{
closed = 1;
nodes = (
(424,274,o),
(380,296,o),
(380,359,cs),
(380,419,o),
(432,477,o),
(488,477,cs),
(540,477,o),
(572,465,o),
(615,371,cs),
(627,345,o),
(637,318,o),
(647,291,c),
(610,280,o),
(565,274,o),
(513,274,cs)
);
}
);
width = 843;
},
{
anchors = (
{
name = bottom;
pos = (387,-96);
},
{
name = bottomright;
pos = (707,-82);
},
{
name = top;
pos = (419,586);
},
{
name = topright;
pos = (644,508);
}
);
layerId = "22847997-2214-411C-BF12-975F69A1246B";
shapes = (
{
closed = 1;
nodes = (
(676,0,ls),
(699,0,o),
(709,9,o),
(709,28,cs),
(709,40,o),
(704,65,o),
(695,95,cs),
(673,170,o),
(631,284,o),
(600,356,cs),
(543,490,o),
(489,503,o),
(431,503,cs),
(354,503,o),
(277,431,o),
(277,332,cs),
(277,236,o),
(342,198,o),
(450,198,cs),
(494,198,o),
(559,203,o),
(623,226,c),
(656,134,o),
(680,58,o),
(685,25,c),
(228,25,ls),
(137,25,o),
(106,34,o),
(77,73,c),
(60,53,l),
(77,23,o),
(113,0,o),
(197,0,cs)
);
},
{
closed = 1;
nodes = (
(351,223,o),
(303,253,o),
(303,335,cs),
(303,409,o),
(362,478,o),
(430,478,cs),
(482,478,o),
(523,466,o),
(571,357,cs),
(582,332,o),
(604,277,o),
(614,249,c),
(563,232,o),
(514,223,o),
(451,223,cs)
);
}
);
width = 777;
},
{
anchors = (
{
name = bottom;
pos = (449,-96);
},
{
name = bottomright;
pos = (809,-92);
},
{
name = top;
pos = (531,720);
},
{
name = topright;
pos = (802,646);
}
);
layerId = "54406707-D089-4649-8539-9EC6A26EE6B0";
shapes = (
{
closed = 1;
nodes = (
(720,0,ls),
(825,0,o),
(874,47,o),
(874,152,cs),
(874,176,o),
(869,208,o),
(859,248,cs),
(849,289,o),
(832,340,o),
(810,401,cs),
(747,573,o),
(679,637,o),
(551,637,cs),
(442,637,o),
(326,543,o),
(326,404,cs),
(326,312,o),
(389,240,o),
(526,240,cs),
(574,240,o),
(643,245,o),
(683,258,c),
(692,234,o),
(701,209,o),
(709,185,c),
(369,185,ls),
(257,185,o),
(188,201,o),
(148,249,c),
(38,140,l),
(75,47,o),
(156,0,o),
(309,0,cs)
);
},
{
closed = 1;
nodes = (
(491,376,o),
(480,403,o),
(480,422,cs),
(480,449,o),
(506,484,o),
(549,484,cs),
(586,484,o),
(607,464,o),
(626,426,cs),
(632,415,o),
(638,401,o),
(643,386,c),
(621,381,o),
(585,376,o),
(550,376,cs)
);
}
);
width = 920;
}
);
note = uni0726;
unicode = 1830;
},
{
glyphname = uni0726.fina;
lastChange = "2022-12-15 11:31:32 +0000";
layers = (
{
anchors = (
{
name = bottom;
pos = (416,-96);
},
{
name = bottomright;
pos = (736,-81);
},
{
name = top;
pos = (461,634);
},
{
name = topright;
pos = (699,558);
}
);
layerId = m01;
shapes = (
{
closed = 1;
nodes = (
(846,0,l),
(846,76,l),
(805,76,l),
(790,113,o),
(746,229,o),
(730,271,cs),
(717,305,o),
(705,339,o),
(692,373,cs),
(635,525,o),
(574,552,o),
(488,552,cs),
(397,552,o),
(306,467,o),
(306,353,cs),
(306,233,o),
(391,202,o),
(509,202,cs),
(559,202,o),
(616,208,o),
(671,226,c),
(689,176,o),
(708,124,o),
(726,76,c),
(268,76,ls),
(167,76,o),
(132,87,o),
(101,131,c),
(49,85,l),
(73,33,o),
(120,0,o),
(230,0,cs)
);
},
{
closed = 1;
nodes = (
(423,274,o),
(379,296,o),
(379,359,cs),
(379,419,o),
(431,477,o),
(487,477,cs),
(539,477,o),
(575,467,o),
(614,371,cs),
(625,344,o),
(636,317,o),
(646,291,c),
(609,280,o),
(564,274,o),
(512,274,cs)
);
}
);
width = 846;
},
{
anchors = (
{
name = bottom;
pos = (388,-96);
},
{
name = bottomright;
pos = (704,-81);
},
{
name = top;
pos = (419,586);
},
{
name = topright;
pos = (643,506);
}
);
layerId = "22847997-2214-411C-BF12-975F69A1246B";
shapes = (
{
closed = 1;
nodes = (
(778,0,l),
(778,25,l),
(727,25,l),
(712,63,o),
(662,194,o),
(647,236,cs),
(632,279,o),
(614,323,o),
(600,356,cs),
(543,490,o),
(489,503,o),
(431,503,cs),
(354,503,o),
(277,431,o),
(277,332,cs),
(277,236,o),
(342,198,o),
(450,198,cs),
(494,198,o),
(559,203,o),
(623,226,c),
(642,172,o),
(688,48,o),
(699,25,c),
(228,25,ls),
(137,25,o),
(106,34,o),
(77,73,c),
(60,53,l),
(77,23,o),
(113,0,o),
(197,0,cs)
);
},
{
closed = 1;
nodes = (
(351,223,o),
(303,253,o),
(303,335,cs),
(303,409,o),
(362,478,o),
(430,478,cs),
(482,478,o),
(523,466,o),
(571,357,cs),
(582,332,o),
(604,277,o),
(614,249,c),
(563,232,o),
(514,223,o),
(451,223,cs)
);
}
);
width = 778;
},
{
anchors = (
{
name = bottom;
pos = (450,-96);
},
{
name = bottomright;
pos = (807,-96);
},
{
name = top;
pos = (531,720);
},
{
name = topright;
pos = (802,646);
}
);
layerId = "54406707-D089-4649-8539-9EC6A26EE6B0";
shapes = (
{
closed = 1;
nodes = (
(962,0,l),
(962,185,l),
(881,185,l),
(869,221,o),
(856,257,o),
(844,293,cs),
(832,329,o),
(819,365,o),
(807,401,cs),
(748,573,o),
(679,637,o),
(551,637,cs),
(442,637,o),
(326,543,o),
(326,404,cs),
(326,312,o),
(389,240,o),
(526,240,cs),
(574,240,o),
(643,245,o),
(683,258,c),
(691,234,o),
(700,209,o),
(708,185,c),
(369,185,ls),
(257,185,o),
(188,201,o),
(148,249,c),
(38,140,l),
(75,47,o),
(156,0,o),
(309,0,cs)
);
},
{
closed = 1;
nodes = (
(491,376,o),
(480,403,o),
(480,422,cs),
(480,449,o),
(506,484,o),
(549,484,cs),
(588,484,o),
(610,462,o),
(629,419,cs),
(634,409,o),
(638,398,o),
(643,386,c),
(621,381,o),
(585,376,o),
(550,376,cs)
);
}
);
width = 962;
}
);
note = uni0726.fina;
},
{
glyphname = uni0726.medi;
lastChange = "2022-12-15 11:31:32 +0000";
layers = (
{
anchors = (
{
name = bottom;
pos = (265,-97);
},
{
name = bottomright;
pos = (509,-83);
},
{
name = top;
pos = (236,634);
},
{
name = topright;
pos = (475,558);
}
);
layerId = m01;
shapes = (
{
closed = 1;
nodes = (
(620,0,l),
(620,76,l),
(579,76,l),
(564,112,o),
(521,226,o),
(506,266,cs),
(492,302,o),
(479,337,o),
(465,373,cs),
(406,524,o),
(348,552,o),
(262,552,cs),
(171,552,o),
(79,467,o),
(79,353,cs),
(79,233,o),
(164,202,o),
(283,202,cs),
(333,202,o),
(390,208,o),
(444,226,c),
(463,176,o),
(482,126,o),
(500,76,c),
(0,76,ls),
(-21,76,o),
(-39,61,o),
(-39,38,cs),
(-39,14,o),
(-21,0,o),
(0,0,cs)
);
},
{
closed = 1;
nodes = (
(196,274,o),
(152,296,o),
(152,359,cs),
(152,419,o),
(204,477,o),
(260,477,cs),
(312,477,o),
(346,466,o),
(387,371,cs),
(397,347,o),
(409,319,o),
(420,291,c),
(382,280,o),
(337,274,o),
(285,274,cs)
);
}
);
width = 620;
},
{
anchors = (
{
name = bottom;
pos = (265,-97);
},
{
name = bottomright;
pos = (509,-83);
},
{
name = top;
pos = (230,584);
},
{
name = topright;
pos = (455,510);
}
);
layerId = "22847997-2214-411C-BF12-975F69A1246B";
shapes = (
{
closed = 1;
nodes = (
(590,0,l),
(590,25,l),
(539,25,l),
(524,63,o),
(474,194,o),
(459,236,cs),
(444,279,o),
(426,323,o),
(412,356,cs),
(355,490,o),
(301,503,o),
(243,503,cs),
(166,503,o),
(89,431,o),
(89,332,cs),
(89,236,o),
(154,198,o),
(262,198,cs),
(306,198,o),
(371,203,o),
(435,226,c),
(454,172,o),
(500,48,o),
(511,25,c),
(0,25,ls),
(-19,25,o),
(-40,21,o),
(-40,13,cs),
(-40,4,o),
(-19,0,o),
(0,0,cs)
);
},
{
closed = 1;
nodes = (
(163,223,o),
(115,253,o),
(115,335,cs),
(115,409,o),
(174,478,o),
(242,478,cs),
(294,478,o),
(335,466,o),
(383,357,cs),
(394,332,o),
(416,277,o),
(426,249,c),
(375,232,o),
(326,223,o),
(263,223,cs)
);
}
);
width = 590;
},
{
anchors = (
{
name = bottom;
pos = (265,-97);
},
{
name = bottomright;
pos = (509,-97);
},
{
name = top;
pos = (265,718);
},
{
name = topright;
pos = (536,646);
}
);
layerId = "54406707-D089-4649-8539-9EC6A26EE6B0";
shapes = (
{
closed = 1;
nodes = (
(696,0,l),
(696,185,l),
(615,185,l),
(603,218,o),
(590,257,o),
(578,293,cs),
(566,329,o),
(553,365,o),
(541,401,cs),
(481,575,o),
(413,637,o),
(285,637,cs),
(176,637,o),
(60,543,o),
(60,404,cs),
(60,312,o),
(123,240,o),
(260,240,cs),
(308,240,o),
(377,245,o),
(417,258,c),
(426,234,o),
(435,209,o),
(443,185,c),
(0,185,ls),
(-24,185,o),
(-40,141,o),
(-40,92,cs),
(-40,42,o),
(-24,0,o),
(0,0,cs)
);
},
{
closed = 1;
nodes = (
(225,376,o),
(214,403,o),
(214,422,cs),
(214,449,o),
(240,484,o),
(283,484,cs),
(323,484,o),
(345,460,o),
(366,414,cs),
(370,405,o),
(374,395,o),
(377,386,c),
(355,381,o),
(319,376,o),
(284,376,cs)
);
}
);
width = 696;
}
);
note = uni0726.medi;
},
{
glyphname = uni0726.init;
lastChange = "2022-12-15 11:31:32 +0000";
layers = (
{
anchors = (
{
name = bottom;
pos = (265,-98);
},
{
name = bottomright;
pos = (511,-94);
},
{
name = top;
pos = (234,634);
},
{
name = topright;
pos = (474,558);
}
);
layerId = m01;
shapes = (
{
closed = 1;
nodes = (
(484,0,ls),
(529,0,o),
(557,29,o),
(557,83,cs),
(557,103,o),
(549,137,o),
(533,186,cs),
(513,248,o),
(487,319,o),
(465,373,cs),
(404,523,o),
(347,552,o),
(261,552,cs),
(170,552,o),
(79,467,o),
(79,353,cs),
(79,233,o),
(164,202,o),
(282,202,cs),
(332,202,o),
(390,208,o),
(444,226,c),
(462,177,o),
(479,123,o),
(488,76,c),
(0,76,ls),
(-21,76,o),
(-39,61,o),
(-39,38,cs),
(-39,14,o),
(-21,0,o),
(0,0,cs)
);
},
{
closed = 1;
nodes = (
(382,280,o),
(337,274,o),
(285,274,cs),
(196,274,o),
(152,296,o),
(152,359,cs),
(152,419,o),
(204,477,o),
(260,477,cs),
(312,477,o),
(344,465,o),
(387,371,cs),
(399,345,o),
(409,318,o),
(419,291,c)
);
}
);
width = 616;
},
{
anchors = (
{
name = bottom;
pos = (265,-98);
},
{
name = bottomright;
pos = (510,-82);
},
{
name = top;
pos = (234,634);
},
{
name = topright;
pos = (474,558);
}
);
layerId = "22847997-2214-411C-BF12-975F69A1246B";
shapes = (
{
closed = 1;
nodes = (
(488,0,ls),
(511,0,o),
(521,9,o),
(521,28,cs),
(521,40,o),
(517,61,o),
(509,88,cs),
(488,163,o),
(443,282,o),
(412,356,cs),
(355,490,o),
(301,503,o),
(243,503,cs),
(166,503,o),
(89,431,o),
(89,332,cs),
(89,236,o),
(154,198,o),
(262,198,cs),
(306,198,o),
(371,203,o),
(435,226,c),
(468,134,o),
(492,58,o),
(497,25,c),
(0,25,ls),
(-19,25,o),
(-40,21,o),
(-40,13,cs),
(-40,4,o),
(-19,0,o),
(0,0,cs)
);
},
{
closed = 1;
nodes = (
(375,232,o),
(326,223,o),
(263,223,cs),
(163,223,o),
(115,253,o),
(115,335,cs),
(115,409,o),
(174,478,o),
(242,478,cs),
(294,478,o),
(335,466,o),
(383,357,cs),
(394,332,o),
(416,277,o),
(426,249,c)
);
}
);
width = 589;
},
{
anchors = (
{
name = bottom;
pos = (265,-98);
},
{
name = bottomright;
pos = (542,-93);
},
{
name = top;
pos = (265,719);
},
{
name = topright;
pos = (537,642);
}
);
layerId = "54406707-D089-4649-8539-9EC6A26EE6B0";
shapes = (
{
closed = 1;
nodes = (
(454,0,ls),
(559,0,o),
(608,47,o),
(608,152,cs),
(608,176,o),
(603,208,o),
(593,248,cs),
(583,289,o),
(567,340,o),
(544,401,cs),
(480,572,o),
(413,637,o),
(285,637,cs),
(176,637,o),
(60,543,o),
(60,404,cs),
(60,312,o),
(123,240,o),
(260,240,cs),
(308,240,o),
(377,245,o),
(417,258,c),
(426,234,o),
(435,209,o),
(443,185,c),
(0,185,ls),
(-24,185,o),
(-40,141,o),
(-40,92,cs),
(-40,42,o),
(-24,0,o),
(0,0,cs)
);
},
{
closed = 1;
nodes = (
(355,381,o),
(319,376,o),
(284,376,cs),
(225,376,o),
(214,403,o),
(214,422,cs),
(214,449,o),
(240,484,o),
(283,484,cs),
(324,484,o),
(346,460,o),
(366,413,cs),
(370,405,o),
(374,396,o),
(377,386,c)
);
}
);
width = 654;
}
);
note = uni0726.init;
},
{
glyphname = uni0727;
lastChange = "2022-12-15 11:31:32 +0000";
layers = (
{
anchors = (
{
name = bottom;
pos = (429,-98);
},
{
name = top;
pos = (469,733);
}
);
layerId = m01;
shapes = (
{
closed = 1;
nodes = (
(403,550,o),
(423,570,o),
(423,606,cs),
(423,643,o),
(404,663,o),
(371,663,cs),
(340,663,o),
(322,643,o),
(322,606,cs),
(322,566,o),
(343,550,o),
(371,550,cs)
);
},
{
closed = 1;
nodes = (
(588,550,o),
(608,570,o),
(608,606,cs),
(608,643,o),
(589,663,o),
(556,663,cs),
(525,663,o),
(507,643,o),
(507,606,cs),
(507,566,o),
(528,550,o),
(556,550,cs)
);
},
{
closed = 1;
nodes = (
(748,0,l),
(748,76,l),
(679,76,ls),
(529,76,o),
(328,105,o),
(328,287,cs),
(328,373,o),
(396,423,o),
(471,423,cs),
(539,423,o),
(600,392,o),
(600,328,cs),
(600,287,o),
(579,255,o),
(531,255,cs),
(498,255,o),
(470,274,o),
(465,319,c),
(406,312,l),
(406,238,o),
(456,189,o),
(534,189,cs),
(630,189,o),
(670,249,o),
(670,329,cs),
(670,426,o),
(584,497,o),
(469,497,cs),
(346,497,o),
(254,407,o),
(254,283,cs),
(254,200,o),
(288,112,o),
(365,78,c),
(365,74,l),
(344,75,o),
(322,76,o),
(303,76,cs),
(262,76,ls),
(161,76,o),
(125,94,o),
(94,138,c),
(49,78,l),
(69,33,o),
(129,0,o),
(240,0,cs)
);
}
);
width = 797;
},
{
anchors = (
{
name = bottom;
pos = (411,-98);
},
{
name = top;
pos = (437,710);
}
);
layerId = "22847997-2214-411C-BF12-975F69A1246B";
shapes = (
{
closed = 1;
nodes = (
(367,584,o),
(369,597,o),
(369,612,cs),
(369,626,o),
(367,640,o),
(345,640,cs),
(327,640,o),
(323,626,o),
(323,612,cs),
(323,597,o),
(327,584,o),
(345,584,cs)
);
},
{
closed = 1;
nodes = (
(545,584,o),
(547,597,o),
(547,612,cs),
(547,626,o),
(545,640,o),
(523,640,cs),
(505,640,o),
(501,626,o),
(501,612,cs),
(501,597,o),
(505,584,o),
(523,584,cs)
);
},
{
closed = 1;
nodes = (
(695,0,l),
(695,25,l),
(599,25,ls),
(490,25,o),
(273,47,o),
(273,253,cs),
(273,361,o),
(352,425,o),
(439,425,cs),
(515,425,o),
(583,390,o),
(583,304,cs),
(583,247,o),
(557,208,o),
(496,208,cs),
(460,208,o),
(431,226,o),
(419,268,c),
(396,264,l),
(404,213,o),
(442,183,o),
(496,183,cs),
(572,183,o),
(609,240,o),
(609,305,cs),
(609,393,o),
(539,450,o),
(440,450,cs),
(335,450,o),
(247,369,o),
(247,253,cs),
(247,120,o),
(325,51,o),
(436,25,c),
(436,22,l),
(415,23,o),
(372,25,o),
(353,25,cs),
(228,25,ls),
(137,25,o),
(106,34,o),
(77,73,c),
(60,53,l),
(77,23,o),
(113,0,o),
(197,0,cs)
);
}
);
width = 755;
},
{
anchors = (
{
name = bottom;
pos = (478,-98);
},
{
name = top;
pos = (547,846);
}
);
layerId = "54406707-D089-4649-8539-9EC6A26EE6B0";
shapes = (
{
closed = 1;
nodes = (
(477,619,o),
(518,640,o),
(518,695,cs),
(518,752,o),
(477,772,o),
(435,772,cs),
(392,772,o),
(353,752,o),
(353,695,cs),
(353,640,o),
(392,619,o),
(435,619,cs)
);
},
{
closed = 1;
nodes = (
(693,619,o),
(734,640,o),
(734,695,cs),
(734,752,o),
(693,772,o),
(651,772,cs),
(608,772,o),
(569,752,o),
(569,695,cs),
(569,640,o),
(608,619,o),
(651,619,cs)
);
},
{
closed = 1;
nodes = (
(858,0,l),
(858,185,l),
(626,185,ls),
(502,185,o),
(440,250,o),
(440,333,cs),
(440,391,o),
(474,438,o),
(547,438,cs),
(594,438,o),
(642,417,o),
(642,374,cs),
(642,356,o),
(633,346,o),
(618,346,cs),
(600,346,o),
(593,356,o),
(591,372,c),
(496,362,l),
(496,239,o),
(578,225,o),
(623,225,cs),
(707,225,o),
(775,274,o),
(775,374,cs),
(775,496,o),
(684,580,o),
(546,580,cs),
(405,580,o),
(289,486,o),
(289,349,cs),
(289,290,o),
(310,224,o),
(354,187,c),
(354,183,l),
(334,185,o),
(326,185,o),
(323,185,cs),
(319,185,ls),
(210,185,o),
(189,207,o),
(148,250,c),
(38,138,l),
(79,41,o),
(187,0,o),
(342,0,cs)
);
}
);
width = 896;
}
);
note = uni0727;
unicode = 1831;
},
{
glyphname = uni0727.fina;
lastChange = "2022-12-15 11:31:32 +0000";
layers = (
{
anchors = (
{
name = bottom;
pos = (430,-98);
},
{
name = top;
pos = (468,733);
}
);
layerId = m01;
shapes = (
{
closed = 1;
nodes = (
(403,550,o),
(423,570,o),
(423,606,cs),
(423,643,o),
(404,663,o),
(371,663,cs),
(340,663,o),
(322,643,o),
(322,606,cs),
(322,566,o),
(343,550,o),
(371,550,cs)
);
},
{
closed = 1;
nodes = (
(588,550,o),
(608,570,o),
(608,606,cs),
(608,643,o),
(589,663,o),
(556,663,cs),
(525,663,o),
(507,643,o),
(507,606,cs),
(507,566,o),
(528,550,o),
(556,550,cs)
);
},
{
closed = 1;
nodes = (
(748,0,l),
(748,76,l),
(679,76,ls),
(529,76,o),
(328,105,o),
(328,287,cs),
(328,373,o),
(396,423,o),
(471,423,cs),
(539,423,o),
(600,392,o),
(600,328,cs),
(600,287,o),
(579,255,o),
(531,255,cs),
(498,255,o),
(470,274,o),
(465,319,c),
(406,312,l),
(406,238,o),
(456,189,o),
(534,189,cs),
(630,189,o),
(670,249,o),
(670,329,cs),
(670,426,o),
(584,497,o),
(469,497,cs),
(346,497,o),
(254,407,o),
(254,283,cs),
(254,185,o),
(298,109,o),
(365,78,c),
(365,74,l),
(344,75,o),
(322,76,o),
(303,76,cs),
(262,76,ls),
(161,76,o),
(125,94,o),
(94,138,c),
(49,78,l),
(69,33,o),
(129,0,o),
(240,0,cs)
);
}
);
width = 748;
},
{
anchors = (
{
name = bottom;
pos = (411,-98);
},
{
name = top;
pos = (442,711);
}
);
layerId = "22847997-2214-411C-BF12-975F69A1246B";
shapes = (
{
closed = 1;
nodes = (
(367,584,o),
(369,597,o),
(369,612,cs),
(369,626,o),
(367,640,o),
(345,640,cs),
(327,640,o),
(323,626,o),
(323,612,cs),
(323,597,o),
(327,584,o),
(345,584,cs)
);
},
{
closed = 1;
nodes = (
(545,584,o),
(547,597,o),
(547,612,cs),
(547,626,o),
(545,640,o),
(523,640,cs),
(505,640,o),
(501,626,o),
(501,612,cs),
(501,597,o),
(505,584,o),
(523,584,cs)
);
},
{
closed = 1;
nodes = (
(695,0,l),
(695,25,l),
(599,25,ls),
(490,25,o),
(273,47,o),
(273,253,cs),
(273,361,o),
(352,425,o),
(439,425,cs),
(515,425,o),
(583,390,o),
(583,304,cs),
(583,247,o),
(557,208,o),
(496,208,cs),
(460,208,o),
(431,226,o),
(419,268,c),
(396,264,l),
(404,213,o),
(442,183,o),
(496,183,cs),
(572,183,o),
(609,240,o),
(609,305,cs),
(609,393,o),
(539,450,o),
(440,450,cs),
(335,450,o),
(247,369,o),
(247,253,cs),
(247,147,o),
(299,56,o),
(436,25,c),
(436,22,l),
(415,23,o),
(372,25,o),
(353,25,cs),
(228,25,ls),
(137,25,o),
(106,34,o),
(77,73,c),
(60,53,l),
(77,23,o),
(113,0,o),
(197,0,cs)
);
}
);
width = 695;
},
{
anchors = (
{
name = bottom;
pos = (478,-98);
},
{
name = top;
pos = (557,846);
}
);
layerId = "54406707-D089-4649-8539-9EC6A26EE6B0";
shapes = (
{
closed = 1;
nodes = (
(477,619,o),
(518,640,o),
(518,695,cs),
(518,752,o),
(477,772,o),
(435,772,cs),
(392,772,o),
(353,752,o),
(353,695,cs),
(353,640,o),
(392,619,o),
(435,619,cs)
);
},
{
closed = 1;
nodes = (
(693,619,o),
(734,640,o),
(734,695,cs),
(734,752,o),
(693,772,o),
(651,772,cs),
(608,772,o),
(569,752,o),
(569,695,cs),
(569,640,o),
(608,619,o),
(651,619,cs)
);
},
{
closed = 1;
nodes = (
(843,0,l),
(843,185,l),
(626,185,ls),
(502,185,o),
(440,250,o),
(440,333,cs),
(440,391,o),
(474,438,o),
(547,438,cs),
(594,438,o),
(642,417,o),
(642,374,cs),
(642,356,o),
(633,346,o),
(618,346,cs),
(600,346,o),
(593,356,o),
(591,372,c),
(496,362,l),
(496,239,o),
(578,225,o),
(623,225,cs),
(707,225,o),
(775,274,o),
(775,374,cs),
(775,496,o),
(684,580,o),
(546,580,cs),
(405,580,o),
(289,486,o),
(289,349,cs),
(289,290,o),
(310,224,o),
(354,187,c),
(354,183,l),
(334,185,o),
(326,185,o),
(323,185,cs),
(319,185,ls),
(210,185,o),
(189,207,o),
(148,250,c),
(38,138,l),
(79,41,o),
(187,0,o),
(342,0,cs)
);
}
);
width = 843;
}
);
note = uni0727.fina;
},
{
glyphname = uni0727.medi;
lastChange = "2022-12-15 11:31:32 +0000";
layers = (
{
anchors = (
{
name = bottom;
pos = (311,-96);
},
{
name = top;
pos = (301,733);
}
);
layerId = m01;
shapes = (
{
closed = 1;
nodes = (
(237,550,o),
(257,570,o),
(257,606,cs),
(257,643,o),
(238,663,o),
(205,663,cs),
(174,663,o),
(156,643,o),
(156,606,cs),
(156,566,o),
(177,550,o),
(205,550,cs)
);
},
{
closed = 1;
nodes = (
(421,550,o),
(441,570,o),
(441,606,cs),
(441,643,o),
(422,663,o),
(389,663,cs),
(358,663,o),
(340,643,o),
(340,606,cs),
(340,566,o),
(361,550,o),
(389,550,cs)
);
},
{
closed = 1;
nodes = (
(581,0,l),
(581,76,l),
(512,76,ls),
(362,76,o),
(161,105,o),
(161,287,cs),
(161,373,o),
(229,423,o),
(305,423,cs),
(372,423,o),
(433,392,o),
(433,328,cs),
(433,287,o),
(412,255,o),
(364,255,cs),
(332,255,o),
(303,274,o),
(298,319,c),
(239,312,l),
(239,238,o),
(289,189,o),
(367,189,cs),
(463,189,o),
(503,249,o),
(503,329,cs),
(503,426,o),
(417,497,o),
(302,497,cs),
(180,497,o),
(87,407,o),
(87,283,cs),
(87,185,o),
(131,109,o),
(198,78,c),
(198,74,l),
(177,75,o),
(155,76,o),
(136,76,cs),
(0,76,ls),
(-21,76,o),
(-39,61,o),
(-39,38,cs),
(-39,14,o),
(-21,0,o),
(0,0,cs)
);
}
);
width = 581;
},
{
anchors = (
{
name = bottom;
pos = (262,-96);
},
{
name = top;
pos = (290,710);
}
);
layerId = "22847997-2214-411C-BF12-975F69A1246B";
shapes = (
{
closed = 1;
nodes = (
(217,584,o),
(219,597,o),
(219,612,cs),
(219,626,o),
(217,640,o),
(195,640,cs),
(177,640,o),
(173,626,o),
(173,612,cs),
(173,597,o),
(177,584,o),
(195,584,cs)
);
},
{
closed = 1;
nodes = (
(395,584,o),
(397,597,o),
(397,612,cs),
(397,626,o),
(395,640,o),
(373,640,cs),
(355,640,o),
(351,626,o),
(351,612,cs),
(351,597,o),
(355,584,o),
(373,584,cs)
);
},
{
closed = 1;
nodes = (
(545,0,l),
(545,25,l),
(449,25,ls),
(340,25,o),
(123,47,o),
(123,253,cs),
(123,361,o),
(202,425,o),
(289,425,cs),
(365,425,o),
(433,390,o),
(433,304,cs),
(433,247,o),
(407,208,o),
(346,208,cs),
(310,208,o),
(281,226,o),
(269,268,c),
(246,264,l),
(254,213,o),
(292,183,o),
(346,183,cs),
(422,183,o),
(459,240,o),
(459,305,cs),
(459,393,o),
(389,450,o),
(290,450,cs),
(185,450,o),
(97,369,o),
(97,253,cs),
(97,147,o),
(149,56,o),
(286,25,c),
(286,22,l),
(265,23,o),
(222,25,o),
(203,25,cs),
(0,25,ls),
(-19,25,o),
(-40,21,o),
(-40,13,cs),
(-40,4,o),
(-19,0,o),
(0,0,cs)
);
}
);
width = 545;
},
{
anchors = (
{
name = bottom;
pos = (336,-96);
},
{
name = top;
pos = (345,846);
}
);
layerId = "54406707-D089-4649-8539-9EC6A26EE6B0";
shapes = (
{
closed = 1;
nodes = (
(265,619,o),
(306,640,o),
(306,695,cs),
(306,752,o),
(265,772,o),
(223,772,cs),
(180,772,o),
(141,752,o),
(141,695,cs),
(141,640,o),
(180,619,o),
(223,619,cs)
);
},
{
closed = 1;
nodes = (
(481,619,o),
(522,640,o),
(522,695,cs),
(522,752,o),
(481,772,o),
(439,772,cs),
(396,772,o),
(357,752,o),
(357,695,cs),
(357,640,o),
(396,619,o),
(439,619,cs)
);
},
{
closed = 1;
nodes = (
(631,0,l),
(631,185,l),
(414,185,ls),
(290,185,o),
(228,250,o),
(228,333,cs),
(228,391,o),
(262,438,o),
(335,438,cs),
(382,438,o),
(430,417,o),
(430,374,cs),
(430,356,o),
(421,346,o),
(406,346,cs),
(388,346,o),
(381,356,o),
(379,372,c),
(284,362,l),
(284,239,o),
(366,225,o),
(411,225,cs),
(495,225,o),
(563,274,o),
(563,374,cs),
(563,496,o),
(472,580,o),
(334,580,cs),
(193,580,o),
(77,486,o),
(77,349,cs),
(77,290,o),
(97,224,o),
(142,187,c),
(142,183,l),
(122,185,o),
(114,185,o),
(111,185,cs),
(0,185,ls),
(-24,185,o),
(-40,141,o),
(-40,92,cs),
(-40,42,o),
(-24,0,o),
(0,0,cs)
);
}
);
width = 631;
}
);
note = uni0727.medi;
},
{
glyphname = uni0727.init;
lastChange = "2022-12-15 11:31:32 +0000";
layers = (
{
anchors = (
{
name = bottom;
pos = (310,-95);
},
{
name = top;
pos = (301,733);
}
);
layerId = m01;
shapes = (
{
closed = 1;
nodes = (
(237,550,o),
(257,570,o),
(257,606,cs),
(257,643,o),
(238,663,o),
(205,663,cs),
(174,663,o),
(156,643,o),
(156,606,cs),
(156,566,o),
(177,550,o),
(205,550,cs)
);
},
{
closed = 1;
nodes = (
(421,550,o),
(441,570,o),
(441,606,cs),
(441,643,o),
(422,663,o),
(389,663,cs),
(358,663,o),
(340,643,o),
(340,606,cs),
(340,566,o),
(361,550,o),
(389,550,cs)
);
},
{
closed = 1;
nodes = (
(581,0,l),
(581,76,l),
(512,76,ls),
(362,76,o),
(161,105,o),
(161,287,cs),
(161,373,o),
(229,423,o),
(305,423,cs),
(372,423,o),
(433,392,o),
(433,328,cs),
(433,287,o),
(412,255,o),
(364,255,cs),
(332,255,o),
(303,274,o),
(298,319,c),
(239,312,l),
(239,238,o),
(289,189,o),
(367,189,cs),
(463,189,o),
(503,249,o),
(503,329,cs),
(503,426,o),
(417,497,o),
(302,497,cs),
(180,497,o),
(87,407,o),
(87,283,cs),
(87,185,o),
(131,109,o),
(198,78,c),
(198,74,l),
(177,75,o),
(155,76,o),
(136,76,cs),
(0,76,ls),
(-21,76,o),
(-39,61,o),
(-39,38,cs),
(-39,14,o),
(-21,0,o),
(0,0,cs)
);
}
);
width = 630;
},
{
anchors = (
{
name = bottom;
pos = (261,-95);
},
{
name = top;
pos = (289,711);
}
);
layerId = "22847997-2214-411C-BF12-975F69A1246B";
shapes = (
{
closed = 1;
nodes = (
(217,584,o),
(219,597,o),
(219,612,cs),
(219,626,o),
(217,640,o),
(195,640,cs),
(177,640,o),
(173,626,o),
(173,612,cs),
(173,597,o),
(177,584,o),
(195,584,cs)
);
},
{
closed = 1;
nodes = (
(395,584,o),
(397,597,o),
(397,612,cs),
(397,626,o),
(395,640,o),
(373,640,cs),
(355,640,o),
(351,626,o),
(351,612,cs),
(351,597,o),
(355,584,o),
(373,584,cs)
);
},
{
closed = 1;
nodes = (
(545,0,l),
(545,25,l),
(449,25,ls),
(340,25,o),
(123,47,o),
(123,253,cs),
(123,361,o),
(202,425,o),
(289,425,cs),
(365,425,o),
(433,390,o),
(433,304,cs),
(433,247,o),
(407,208,o),
(346,208,cs),
(310,208,o),
(281,226,o),
(269,268,c),
(246,264,l),
(254,213,o),
(292,183,o),
(346,183,cs),
(422,183,o),
(459,240,o),
(459,305,cs),
(459,393,o),
(389,450,o),
(290,450,cs),
(185,450,o),
(97,369,o),
(97,253,cs),
(97,147,o),
(149,56,o),
(286,25,c),
(286,22,l),
(265,23,o),
(222,25,o),
(203,25,cs),
(0,25,ls),
(-19,25,o),
(-40,21,o),
(-40,13,cs),
(-40,4,o),
(-19,0,o),
(0,0,cs)
);
}
);
width = 605;
},
{
anchors = (
{
name = bottom;
pos = (334,-95);
},
{
name = top;
pos = (345,846);
}
);
layerId = "54406707-D089-4649-8539-9EC6A26EE6B0";
shapes = (
{
closed = 1;
nodes = (
(265,619,o),
(306,640,o),
(306,695,cs),
(306,752,o),
(265,772,o),
(223,772,cs),
(180,772,o),
(141,752,o),
(141,695,cs),
(141,640,o),
(180,619,o),
(223,619,cs)
);
},
{
closed = 1;
nodes = (
(481,619,o),
(522,640,o),
(522,695,cs),
(522,752,o),
(481,772,o),
(439,772,cs),
(396,772,o),
(357,752,o),
(357,695,cs),
(357,640,o),
(396,619,o),
(439,619,cs)
);
},
{
closed = 1;
nodes = (
(646,0,l),
(646,185,l),
(414,185,ls),
(290,185,o),
(228,250,o),
(228,333,cs),
(228,391,o),
(262,438,o),
(335,438,cs),
(382,438,o),
(430,417,o),
(430,374,cs),
(430,356,o),
(421,346,o),
(406,346,cs),
(388,346,o),
(381,356,o),
(379,372,c),
(284,362,l),
(284,239,o),
(366,225,o),
(411,225,cs),
(495,225,o),
(563,274,o),
(563,374,cs),
(563,496,o),
(472,580,o),
(334,580,cs),
(193,580,o),
(77,486,o),
(77,349,cs),
(77,290,o),
(97,224,o),
(142,187,c),
(142,183,l),
(122,185,o),
(114,185,o),
(111,185,cs),
(0,185,ls),
(-24,185,o),
(-40,141,o),
(-40,92,cs),
(-40,42,o),
(-24,0,o),
(0,0,cs)
);
}
);
width = 684;
}
);
note = uni0727.init;
},
{
glyphname = uni0728;
lastChange = "2022-12-15 11:31:32 +0000";
layers = (
{
anchors = (
{
name = bottom;
pos = (295,-455);
},
{
name = top;
pos = (326,272);
}
);
layerId = m01;
shapes = (
{
closed = 1;
nodes = (
(470,114,l),
(462,88,o),
(440,76,o),
(404,76,cs),
(368,76,o),
(342,87,o),
(317,98,cs),
(292,109,o),
(266,120,o),
(229,120,cs),
(163,120,o),
(101,70,o),
(101,-1,cs),
(101,-102,o),
(190,-135,o),
(301,-168,cs),
(420,-203,o),
(455,-224,o),
(455,-250,cs),
(455,-272,o),
(443,-286,o),
(401,-294,cs),
(359,-302,o),
(287,-305,o),
(165,-305,cs),
(43,-305,o),
(-78,-305,o),
(-189,-302,c),
(-195,-367,l),
(-56,-377,o),
(148,-381,o),
(206,-381,cs),
(381,-381,o),
(444,-370,o),
(487,-339,cs),
(517,-317,o),
(528,-287,o),
(528,-250,cs),
(528,-210,o),
(511,-181,o),
(475,-159,cs),
(440,-137,o),
(389,-119,o),
(324,-98,cs),
(233,-69,o),
(174,-49,o),
(174,-2,cs),
(174,30,o),
(202,45,o),
(227,45,cs),
(247,45,o),
(268,36,o),
(295,24,cs),
(323,11,o),
(358,0,o),
(402,0,cs),
(473,0,o),
(535,35,o),
(539,114,c)
);
}
);
width = 626;
},
{
anchors = (
{
name = bottom;
pos = (293,-444);
},
{
name = top;
pos = (326,272);
}
);
layerId = "22847997-2214-411C-BF12-975F69A1246B";
shapes = (
{
closed = 1;
nodes = (
(462,64,l),
(447,35,o),
(420,25,o),
(383,25,cs),
(344,25,o),
(317,37,o),
(292,49,cs),
(269,60,o),
(245,71,o),
(212,71,cs),
(160,71,o),
(111,39,o),
(111,-22,cs),
(111,-101,o),
(189,-130,o),
(286,-165,cs),
(411,-210,o),
(459,-237,o),
(459,-279,cs),
(459,-306,o),
(449,-320,o),
(406,-329,cs),
(364,-338,o),
(289,-339,o),
(159,-339,cs),
(102,-339,o),
(-55,-336,o),
(-161,-331,c),
(-163,-354,l),
(-34,-361,o),
(150,-363,o),
(203,-363,cs),
(319,-363,o),
(387,-360,o),
(428,-349,cs),
(474,-337,o),
(485,-310,o),
(485,-278,cs),
(485,-250,o),
(471,-226,o),
(440,-206,cs),
(409,-186,o),
(363,-166,o),
(300,-143,cs),
(202,-107,o),
(137,-81,o),
(137,-22,cs),
(137,28,o),
(177,46,o),
(212,46,cs),
(233,46,o),
(256,38,o),
(279,27,cs),
(306,14,o),
(339,0,o),
(381,0,cs),
(431,0,o),
(473,18,o),
(488,64,c)
);
}
);
width = 585;
},
{
anchors = (
{
name = bottom;
pos = (364,-480);
},
{
name = top;
pos = (374,369);
}
);
layerId = "54406707-D089-4649-8539-9EC6A26EE6B0";
shapes = (
{
closed = 1;
nodes = (
(520,218,l),
(509,184,o),
(487,178,o),
(458,178,cs),
(437,178,o),
(405,189,o),
(376,199,cs),
(339,212,o),
(313,219,o),
(275,219,cs),
(171,219,o),
(99,138,o),
(99,52,cs),
(99,-95,o),
(226,-128,o),
(354,-154,cs),
(471,-178,o),
(476,-185,o),
(476,-194,cs),
(476,-202,o),
(472,-207,o),
(441,-211,cs),
(397,-217,o),
(340,-218,o),
(258,-218,cs),
(160,-218,o),
(-69,-212,o),
(-185,-208,c),
(-198,-356,l),
(52,-386,o),
(204,-389,o),
(287,-389,cs),
(353,-389,o),
(482,-384,o),
(557,-354,cs),
(627,-326,o),
(669,-280,o),
(669,-198,cs),
(669,-152,o),
(652,-119,o),
(625,-96,cs),
(583,-60,o),
(520,-44,o),
(397,-14,cs),
(284,14,o),
(260,26,o),
(260,47,cs),
(260,60,o),
(269,66,o),
(283,66,cs),
(295,66,o),
(317,60,o),
(371,43,cs),
(434,23,o),
(462,19,o),
(485,19,cs),
(581,19,o),
(666,67,o),
(667,218,c)
);
}
);
width = 742;
}
);
note = uni0728;
unicode = 1832;
},
